<svg width="48" height="48" viewBox="0 0 48 48" fill="none" xmlns="http://www.w3.org/2000/svg"><path d="M8 40h32" stroke="#fff" stroke-width="4" stroke-linecap="square" stroke-linejoin="round"/><path d="M16 40v2h.855l.59-.617L16 40Zm-8 0H6v2h2v-2Zm0-8-1.39-1.439-.61.59v.85h2Zm30-15-1.414-1.414-.016.015-.015.017L38 17Zm-6-8.171 1.431-1.397-1.39-1.424-1.43 1.382L32 8.829ZM39 16l1.414 1.414 1.397-1.397-1.38-1.414L39 16ZM16 38H8v4h8v-4Zm-6 2v-8H6v8h4Zm26.555-24.382-22 23 2.89 2.765 22-23-2.89-2.765ZM39 16l-1.414-1.414h-.001v.001h-.001v.001h-.001v.001h-.001v.001h-.001v.001h-.001v.001h-.001v.001h-.001v.001h-.001v.001l-.002.001v.001h-.001v.001h-.001v.001h-.001l-.001.002h-.001v.001l-.002.001v.002h-.002l-.001.002-.002.001-.001.002-.002.001-.001.002h-.001v.001l-.002.001v.001l-.001.001h-.001l-.001.002h-.001l-.001.002-.002.001v.001l-.002.001v.001l-.002.001v.001l-.002.001v.001l-.002.001v.001l-.002.001v.001l-.002.002h-.001l-.001.002h-.001l-.001.002-.001.001-.002.001v.001l-.002.001-.001.002h-.001l-.001.002-.002.001v.001l-.002.002h-.001l-.002.002v.001l-.002.002h-.001l-.002.002v.001l-.002.002-.001.001-.002.001-.001.002h-.001l-.002.002-.001.002-.001.001-.002.001-.001.002-.002.001-.001.002-.001.001-.002.001-.001.002-.002.001-.001.002-.002.001-.001.002-.002.001a238844094.545 238844094.545 0 0 1-.006.006l-.001.002-.002.001-.001.002-.002.001-.001.002-.002.001-.001.002-.002.002-.002.001-.001.002-.002.001-.001.002-.002.002-.002.001-.001.002-.002.002-.002.001-.001.002-.002.002-.002.001-.001.002-.002.002-.002.001s0 .002-.002.002l-.001.002-.002.002-.002.001s0 .002-.002.002l-.001.002-.002.002-.002.001-.002.002-.001.002-.002.002-.002.002-.002.001-.002.002-.002.002-.001.002-.002.002-.002.002-.002.001-.002.002-.002.002-.002.002-.001.002-.002.002-.002.002-.002.002-.002.002-.002.002-.002.002-.002.001-.002.002-.002.002-.002.002-.002.002-.002.002-.002.002-.002.002-.002.002-.002.002-.002.002-.002.002a.039.039 0 0 1-.004.004l-.002.002-.002.002-.002.002-.002.002-.002.003-.002.002-.002.002-.002.002-.002.002-.002.002-.003.002s0 .002-.002.002l-.002.002-.002.002-.002.003-.002.002-.002.002-.002.002-.003.002-.002.002-.002.002-.002.003-.002.002-.002.002-.003.002-.002.002-.002.003-.002.002-.002.002-.003.002-.002.002-.002.003-.002.002-.002.002-.003.002-.002.003-.002.002-.002.002-.003.002-.002.003-.002.002-.003.002-.002.003-.002.002-.002.002-.003.002-.002.003-.002.002-.003.002-.002.003-.002.002-.003.002-.002.003-.002.002-.003.002-.002.003-.002.002-.003.002-.002.003-.002.002-.003.002-.002.003-.003.002-.002.002-.002.003-.003.002-.002.003-.002.002-.003.003-.002.002-.003.002-.002.003-.003.002-.002.003-.002.002-.003.002-.002.003-.003.002-.002.003-.003.002-.002.003-.002.002-.003.003-.002.002-.003.002-.002.003-.003.002-.002.003-.003.002-.002.003-.003.002-.002.003-.003.002-.002.003-.003.002-.002.003-.003.002-.002.003-.003.002-.002.003-.003.002-.002.003-.003.002-.002.003-.003.002-.002.003-.003.002-.002.003-.003.003-.002.002-.003.003-.003.002-.002.003-.003.002-.002.003-.003.002-.002.003-.003.002-.003.003-.002.003-.003.002-.002.003-.003.002-.002.003-.003.002-.003.003-.002.003-.003.002-.002.003-.003.002-.002.003-.003.002-.003.003-.002.003-.003.002-.002.003-.003.002-.002.003-.003.003-.003.002-.002.003-.003.002-.002.003-.003.003-.003.002-.002.003-.003.002-.002.003-.003.003a.065.065 0 0 1-.005.005l-.003.003-.003.002-.002.003-.003.002-.002.003-.003.003-.003.002-.002.003-.003.002-.003.003-.002.003-.003.002-.002.003-.003.003-.003.002-.002.003-.003.002-.002.003-.003.003-.003.002-.002.003-.003.003-.003.002-.002.003-.003.002-.002.003-.003.003-.003.002-.002.003-.003.003-.003.002-.002.003-.003.002-.003.003-.002.003-.003.002-.002.003-.003.003-.003.002-.002.003-.003.002-.003.003-.002.003-.003.002-.002.003-.003.003-.003.002-.002.003-.003.003-.002.002-.003.003-.003.002-.002.003-.003.003-.003.002-.002.003-.003.002a.065.065 0 0 1-.005.006l-.003.002-.002.003-.003.002-.002.003-.003.003-.003.002-.002.003-.003.002-.002.003-.003.003-.003.002-.002.003a.063.063 0 0 1-.006.005l-.002.003-.003.002-.002.003-.003.002-.002.003-.003.002-.003.003-.002.003-.003.002-.002.003-.003.002-.002.003-.003.003-.002.002-.003.003-.003.002-.002.003-.003.002-.002.003-.003.002-.002.003-.003.003-.002.002-.003.003-.003.002-.002.003-.003.002-.002.003-.003.002-.002.003-.003.002a.06.06 0 0 1-.005.005l-.002.003-.003.002-.002.003-.003.002-.002.003-.003.002-.002.003-.003.002-.002.003-.003.002-.002.003-.003.002-.002.003-.003.002-.002.003-.003.002-.002.003-.002.002-.003.002-.002.003-.003.002a.058.058 0 0 1-.005.005l-.002.003-.003.002-.002.003-.002.002-.003.002a764285917.25 764285917.25 0 0 1-.005.005l-.002.003-.002.002-.003.003-.002.002-.003.002-.002.003-.002.002-.003.002-.002.003-.003.002a764285917.25 764285917.25 0 0 1-.007.007l-.002.003-.002.002-.003.002-.002.003-.002.002-.003.002-.002.003-.002.002-.003.002-.002.003-.002.002-.003.002-.002.003-.002.002 2.828 2.828.002-.002.003-.002.002-.003.002-.002.003-.002.002-.003.002-.002.003-.002.002-.003.002-.002.003-.002.002-.003.002-.002.003-.002.002-.003.002-.002.003-.002.002-.003.003-.002.002-.003.002-.002.003-.002.002-.003.002-.002.003-.003.002-.002.003-.002.002-.003.003-.002.002-.003.002-.002.003-.002.002-.003.003-.002.002-.003.003-.002.002-.003.002-.002.003-.003.002-.002.003-.002.002-.003.003-.002.002-.003.003-.002.002-.003.003-.002.002-.003.003-.002.002-.003.003-.002.002-.003.003-.002.002-.003.003-.002.002-.003a.06.06 0 0 1 .005-.005l.003-.002.002-.003.003-.002.002-.003.003-.002.002-.003.003-.002.002-.003.003-.003.003-.002.002-.003.003-.002.002-.003.003-.002.002-.003.003-.002.002-.003.003-.003.002-.002.003-.003.003-.002.002-.003.003-.002.002-.003.003-.003.002-.002.003-.003.003-.002.002-.003.003-.002.002-.003a.063.063 0 0 1 .006-.005l.002-.003.003-.002.002-.003.003-.002.002-.003.003-.003.003-.002.002-.003.003-.003.002-.002a.065.065 0 0 1 .006-.005l.002-.003.003-.002.003-.003.002-.003.003-.002.002-.003.003-.003a.065.065 0 0 1 .005-.005l.003-.003.003-.002.002-.003.003-.002.002-.003.003-.003.003-.002.002-.003.003-.002.002-.003.003-.003.003-.002.002-.003.003-.003.003-.002.002-.003.003-.002.002-.003.003-.003.003-.002.002-.003.003-.003.003-.002.002-.003.003-.002.002-.003.003-.003.003-.002.002-.003.003-.003.003-.002.002-.003.003-.002.002-.003.003-.003.003-.002.002-.003.003-.003.003-.002.002-.003.003-.003.002-.002.003-.003.003-.002.002-.003.003-.003.003-.002.002-.003.003-.002.002-.003a.065.065 0 0 1 .006-.005l.002-.003.003-.002.002-.003.003-.003.003-.002.002-.003.003-.003.002-.002.003-.003.003-.002.002-.003.003-.002.003-.003.002-.003.003-.002.002-.003.003-.003.002-.002a.063.063 0 0 1 .006-.005l.002-.003.003-.002.002-.003.003-.003.002-.002.003-.003.003-.002.002-.003.003-.002.002-.003.003-.002.003-.003.002-.003.003-.002.002-.003.003-.002.002-.003.003-.002.002-.003.003-.003.002-.002.003-.003.002-.002.003-.003.003-.002.002-.003.003-.002.002-.003.003-.002.002-.003.003-.002.002-.003.003-.002.002-.003.003-.002.002-.003.003-.002.002-.003.003-.002.002-.003.003-.002.002-.003.003-.002.002-.003.002-.002.003-.003.002-.002.003-.002.002-.003.003-.002.002-.003.003-.002.002-.003.003-.002.002-.003.002-.002.003-.002a.058.058 0 0 1 .005-.005l.002-.003.003-.002.002-.003.002-.002.003-.002a.051.051 0 0 0 .005-.005l.002-.002.002-.003.003-.002.002-.002.002-.003.003-.002.002-.003.002-.002.003-.002.002-.003.002-.002.003-.002.002-.003.002-.002.003-.002.002-.003.002-.002.003-.002.002-.002.002-.003.002-.002.003-.002.002-.003.002-.002.003-.002.002-.003.002-.002.002-.002.003-.002.002-.003.002-.002.002-.002.003-.002.002-.002.002-.003.002-.002.002-.002.003-.002.002-.002.002-.003.002-.002.002-.002.002-.002.003-.002.002-.002.002-.003.002-.002.002-.002.002-.002.003-.002.002-.002a585159173.504 585159173.504 0 0 1 .004-.005l.002-.002.002-.002.002-.002.002-.002.002-.002.002-.002.003-.002.002-.002s0-.002.002-.002l.002-.002.002-.002.002-.002.002-.002.002-.002.002-.002.002-.002.002-.002.002-.002.002-.002.002-.002.002-.002.002-.002.002-.002s0-.002.002-.002c0 0 0-.002.002-.002l.002-.002.001-.002.002-.002.002-.002.002-.002.002-.002.002-.002.002-.001.002-.002s0-.002.002-.002l.001-.002.002-.002.002-.002.002-.002.002-.001.002-.002.001-.002.002-.002.002-.002.002-.001.002-.002a859831147.627 859831147.627 0 0 1 .005-.006l.002-.001.001-.002.002-.002.002-.002.002-.001.001-.002.002-.002.002-.001.001-.002.002-.002.002-.001s0-.002.002-.002l.001-.002.002-.001.001-.002.002-.002.002-.001.001-.002.002-.001.001-.002.002-.002.002-.001.001-.002.002-.001.001-.002.002-.001.001-.002.002-.002.001-.001.002-.002.001-.001.002-.002h.001l.002-.002.001-.002.002-.001.001-.002.002-.001.001-.002.001-.001.002-.001.001-.002.002-.001.001-.002h.001l.002-.002.001-.002.001-.001.002-.001.001-.002h.001l.002-.002v-.002h.002l.001-.002.002-.001.001-.002h.001l.001-.002.002-.001v-.001l.002-.002h.001l.001-.002.002-.001v-.001l.002-.001.001-.002h.001l.001-.002h.001l.001-.002.002-.001v-.001l.002-.001v-.001l.002-.001v-.001l.002-.001v-.001l.002-.001v-.001l.002-.001v-.001l.002-.001v-.001l.001-.001h.001l.001-.002h.001l.001-.002.002-.001v-.001l.001-.001h.001l.001-.002.002-.001v-.001h.001l.001-.002.001-.001h.001v-.001l.002-.001v-.002h.002v-.001l.001-.001h.001v-.001h.001v-.001h.001v-.002h.002v-.001h.001v-.001l.001-.001h.001v-.001h.001v-.001h.001v-.001h.001v-.001h.001v-.001h.001v-.001h.001v-.001h.001L39 16ZM9.39 33.439l24-23.172-2.78-2.877-24 23.171 2.78 2.878Zm21.179-23.213 7 7.171 2.862-2.794-7-7.171-2.862 2.794Z" fill="#fff"/><path d="m26 18 4 4" stroke="#fff" stroke-width="4" stroke-linecap="square" stroke-linejoin="round"/></svg>