<svg width="58" height="59" viewBox="0 0 58 59" fill="none" xmlns="http://www.w3.org/2000/svg"><g filter="url(#a)"><circle cx="29" cy="26" r="24" fill="#7B7B7B"/></g><path d="M18.333 36.5h21.334" stroke="#fff" stroke-width="3.342" stroke-linecap="square" stroke-linejoin="round"/><path d="M23.667 36.5v1.671h.729l.496-.535-1.225-1.136Zm-5.334 0h-1.67v1.671h1.67v-1.67Zm0-5.5-1.179-1.184-.492.49V31h1.671Zm20-10.312-1.2-1.163-.012.013-.013.013 1.225 1.137Zm-4-5.618 1.214-1.149-1.178-1.244-1.215 1.209 1.18 1.184ZM39 20l1.2 1.163 1.114-1.149-1.1-1.162L39 20ZM23.667 34.83h-5.334v3.341h5.334V34.83Zm-3.663 1.67V31h-3.342v5.5h3.342Zm17.104-16.949L22.442 35.364l2.45 2.273 14.666-15.813-2.45-2.273Zm1.892.45-1.2-1.164v.001l-.002.002c-.004.003.003-.003-.001 0-.005.006.004-.004-.001.002l-.014.014c-.062.064.022-.023-.05.05l-.016.018-.018.018-.04.042-.093.096-.106.109-.111.115-.028.029-.014.014-.007.007-.007.007-.055.057-.013.014-.007.007-.007.006c-.027.029.002 0-.026.027l-.025.027-.013.013-.006.006c-.044.046.038-.039-.006.006l2.399 2.327.43-.445.013-.012.013-.013.012-.013.011-.012a2.67 2.67 0 0 1 .029-.03c.046-.047-.044.046.003-.002l.002-.003.003-.003.003-.002.005-.006.02-.021.02-.02.018-.019.017-.017v-.001l.002-.001.002-.002.004-.004.007-.008.003-.003.002-.002.002-.002.001-.001.002-.002.003-.003a.173.173 0 0 0 .006-.006l.006-.006.005-.005c.01-.01-.005.005.004-.005l.014-.014v-.001l.002-.001v-.001c.003-.002 0 .002.001 0v-.001h.001L39 20ZM19.512 32.183l16-15.93-2.358-2.368-16 15.93 2.358 2.368ZM33.12 16.218l4.666 4.93 2.427-2.296-4.666-4.93-2.427 2.296Z" fill="#fff"/><path d="M30.333 21.375 33 24.125" stroke="#fff" stroke-width="3.342" stroke-linecap="square" stroke-linejoin="round"/><defs><filter id="a" x="0" y=".75" width="58" height="58" filterUnits="userSpaceOnUse" color-interpolation-filters="sRGB"><feFlood flood-opacity="0" result="BackgroundImageFix"/><feColorMatrix in="SourceAlpha" values="0 0 0 0 0 0 0 0 0 0 0 0 0 0 0 0 0 0 127 0" result="hardAlpha"/><feOffset dy="3.75"/><feGaussianBlur stdDeviation="2.5"/><feComposite in2="hardAlpha" operator="out"/><feColorMatrix values="0 0 0 0 0 0 0 0 0 0 0 0 0 0 0 0 0 0 0.2 0"/><feBlend in2="BackgroundImageFix" result="effect1_dropShadow_3099_6302"/><feBlend in="SourceGraphic" in2="effect1_dropShadow_3099_6302" result="shape"/></filter></defs></svg>