<svg width="48" height="48" viewBox="0 0 48 48" fill="none" xmlns="http://www.w3.org/2000/svg">
<path d="M8 40H40" stroke="white" stroke-width="4" stroke-linecap="square" stroke-linejoin="round"/>
<path d="M16 40.0002V42.0002H16.8546L17.4453 41.3826L16 40.0002ZM8 40.0002H6V42.0002H8V40.0002ZM8 32.0002L6.61084 30.5614L6 31.1511V32.0002H8ZM38 17L36.5858 15.5858L36.5701 15.6015L36.5547 15.6176L38 17ZM32 8.82861L33.4312 7.43161L32.0418 6.0082L30.6108 7.38979L32 8.82861ZM39 16L40.4142 17.4142L41.8114 16.017L40.4312 14.603L39 16ZM16 38.0002H8V42.0002H16V38.0002ZM10 40.0002V32.0002H6V40.0002H10ZM36.5547 15.6176L14.5547 38.6177L17.4453 41.3826L39.4453 18.3824L36.5547 15.6176ZM39 16C37.5858 14.5858 37.5858 14.5858 37.5858 14.5858C37.5858 14.5858 37.5858 14.5858 37.5858 14.5858C37.5857 14.5858 37.5857 14.5858 37.5857 14.5858C37.5857 14.5859 37.5857 14.5859 37.5857 14.5859C37.5857 14.5859 37.5856 14.5859 37.5856 14.586C37.5856 14.586 37.5856 14.586 37.5855 14.586C37.5855 14.5861 37.5855 14.5861 37.5854 14.5861C37.5854 14.5862 37.5854 14.5862 37.5853 14.5862C37.5853 14.5863 37.5853 14.5863 37.5852 14.5863C37.5852 14.5864 37.5851 14.5864 37.5851 14.5865C37.585 14.5865 37.585 14.5866 37.585 14.5866C37.5849 14.5867 37.5848 14.5867 37.5848 14.5868C37.5847 14.5868 37.5847 14.5869 37.5846 14.587C37.5846 14.587 37.5845 14.5871 37.5844 14.5871C37.5844 14.5872 37.5843 14.5873 37.5842 14.5873C37.5842 14.5874 37.5841 14.5875 37.584 14.5875C37.584 14.5876 37.5839 14.5877 37.5838 14.5878C37.5837 14.5878 37.5836 14.5879 37.5836 14.588C37.5835 14.5881 37.5834 14.5882 37.5833 14.5883C37.5832 14.5883 37.5831 14.5884 37.583 14.5885C37.583 14.5886 37.5829 14.5887 37.5828 14.5888C37.5827 14.5889 37.5826 14.589 37.5825 14.5891C37.5824 14.5892 37.5823 14.5893 37.5822 14.5894C37.5821 14.5895 37.582 14.5896 37.5819 14.5897C37.5817 14.5898 37.5816 14.5899 37.5815 14.59C37.5814 14.5902 37.5813 14.5903 37.5812 14.5904C37.5811 14.5905 37.5809 14.5906 37.5808 14.5907C37.5807 14.5909 37.5806 14.591 37.5805 14.5911C37.5803 14.5912 37.5802 14.5914 37.5801 14.5915C37.5799 14.5916 37.5798 14.5918 37.5797 14.5919C37.5795 14.592 37.5794 14.5922 37.5793 14.5923C37.5791 14.5924 37.579 14.5926 37.5788 14.5927C37.5787 14.5929 37.5786 14.593 37.5784 14.5932C37.5783 14.5933 37.5781 14.5935 37.578 14.5936C37.5778 14.5938 37.5777 14.5939 37.5775 14.5941C37.5774 14.5942 37.5772 14.5944 37.577 14.5945C37.5769 14.5947 37.5767 14.5949 37.5766 14.595C37.5764 14.5952 37.5762 14.5954 37.5761 14.5955C37.5759 14.5957 37.5757 14.5959 37.5755 14.596C37.5754 14.5962 37.5752 14.5964 37.575 14.5966C37.5748 14.5967 37.5747 14.5969 37.5745 14.5971C37.5743 14.5973 37.5741 14.5974 37.5739 14.5976C37.5738 14.5978 37.5736 14.598 37.5734 14.5982C37.5732 14.5984 37.573 14.5986 37.5728 14.5988C37.5726 14.599 37.5724 14.5992 37.5722 14.5993C37.572 14.5995 37.5718 14.5997 37.5716 14.5999C37.5714 14.6001 37.5712 14.6003 37.571 14.6006C37.5708 14.6008 37.5706 14.601 37.5704 14.6012C37.5702 14.6014 37.57 14.6016 37.5698 14.6018C37.5696 14.602 37.5693 14.6022 37.5691 14.6025C37.5689 14.6027 37.5687 14.6029 37.5685 14.6031C37.5682 14.6033 37.568 14.6036 37.5678 14.6038C37.5676 14.604 37.5673 14.6042 37.5671 14.6045C37.5669 14.6047 37.5667 14.6049 37.5664 14.6052C37.5662 14.6054 37.566 14.6056 37.5657 14.6059C37.5655 14.6061 37.5652 14.6063 37.565 14.6066C37.5648 14.6068 37.5645 14.6071 37.5643 14.6073C37.564 14.6075 37.5638 14.6078 37.5635 14.608C37.5633 14.6083 37.563 14.6085 37.5628 14.6088C37.5625 14.609 37.5623 14.6093 37.562 14.6096C37.5618 14.6098 37.5615 14.6101 37.5612 14.6103C37.561 14.6106 37.5607 14.6109 37.5604 14.6111C37.5602 14.6114 37.5599 14.6117 37.5596 14.6119C37.5594 14.6122 37.5591 14.6125 37.5588 14.6127C37.5586 14.613 37.5583 14.6133 37.558 14.6136C37.5577 14.6138 37.5575 14.6141 37.5572 14.6144C37.5569 14.6147 37.5566 14.615 37.5563 14.6152C37.5561 14.6155 37.5558 14.6158 37.5555 14.6161C37.5552 14.6164 37.5549 14.6167 37.5546 14.617C37.5543 14.6173 37.554 14.6175 37.5537 14.6178C37.5534 14.6181 37.5531 14.6184 37.5528 14.6187C37.5525 14.619 37.5522 14.6193 37.5519 14.6196C37.5516 14.6199 37.5513 14.6202 37.551 14.6206C37.5507 14.6209 37.5504 14.6212 37.5501 14.6215C37.5498 14.6218 37.5495 14.6221 37.5492 14.6224C37.5488 14.6227 37.5485 14.623 37.5482 14.6234C37.5479 14.6237 37.5476 14.624 37.5473 14.6243C37.5469 14.6246 37.5466 14.625 37.5463 14.6253C37.546 14.6256 37.5456 14.6259 37.5453 14.6263C37.545 14.6266 37.5446 14.6269 37.5443 14.6273C37.544 14.6276 37.5436 14.6279 37.5433 14.6283C37.543 14.6286 37.5426 14.6289 37.5423 14.6293C37.542 14.6296 37.5416 14.63 37.5413 14.6303C37.5409 14.6306 37.5406 14.631 37.5402 14.6313C37.5399 14.6317 37.5395 14.632 37.5392 14.6324C37.5388 14.6327 37.5385 14.6331 37.5381 14.6334C37.5378 14.6338 37.5374 14.6342 37.5371 14.6345C37.5367 14.6349 37.5363 14.6352 37.536 14.6356C37.5356 14.636 37.5353 14.6363 37.5349 14.6367C37.5345 14.637 37.5342 14.6374 37.5338 14.6378C37.5334 14.6381 37.5331 14.6385 37.5327 14.6389C37.5323 14.6393 37.5319 14.6396 37.5316 14.64C37.5312 14.6404 37.5308 14.6408 37.5304 14.6411C37.5301 14.6415 37.5297 14.6419 37.5293 14.6423C37.5289 14.6427 37.5285 14.6431 37.5281 14.6434C37.5277 14.6438 37.5274 14.6442 37.527 14.6446C37.5266 14.645 37.5262 14.6454 37.5258 14.6458C37.5254 14.6462 37.525 14.6466 37.5246 14.647C37.5242 14.6474 37.5238 14.6478 37.5234 14.6482C37.523 14.6486 37.5226 14.649 37.5222 14.6494C37.5218 14.6498 37.5214 14.6502 37.521 14.6506C37.5206 14.651 37.5202 14.6514 37.5198 14.6518C37.5194 14.6522 37.519 14.6526 37.5185 14.653C37.5181 14.6534 37.5177 14.6539 37.5173 14.6543C37.5169 14.6547 37.5165 14.6551 37.516 14.6555C37.5156 14.656 37.5152 14.6564 37.5148 14.6568C37.5143 14.6572 37.5139 14.6576 37.5135 14.6581C37.5131 14.6585 37.5126 14.6589 37.5122 14.6594C37.5118 14.6598 37.5113 14.6602 37.5109 14.6607C37.5105 14.6611 37.51 14.6615 37.5096 14.662C37.5092 14.6624 37.5087 14.6628 37.5083 14.6633C37.5079 14.6637 37.5074 14.6642 37.507 14.6646C37.5065 14.665 37.5061 14.6655 37.5056 14.6659C37.5052 14.6664 37.5047 14.6668 37.5043 14.6673C37.5038 14.6677 37.5034 14.6682 37.5029 14.6686C37.5025 14.6691 37.502 14.6695 37.5016 14.67C37.5011 14.6705 37.5007 14.6709 37.5002 14.6714C37.4997 14.6718 37.4993 14.6723 37.4988 14.6728C37.4984 14.6732 37.4979 14.6737 37.4974 14.6742C37.497 14.6746 37.4965 14.6751 37.496 14.6756C37.4956 14.676 37.4951 14.6765 37.4946 14.677C37.4941 14.6774 37.4937 14.6779 37.4932 14.6784C37.4927 14.6789 37.4922 14.6793 37.4918 14.6798C37.4913 14.6803 37.4908 14.6808 37.4903 14.6813C37.4898 14.6817 37.4894 14.6822 37.4889 14.6827C37.4884 14.6832 37.4879 14.6837 37.4874 14.6842C37.4869 14.6847 37.4864 14.6851 37.4859 14.6856C37.4854 14.6861 37.485 14.6866 37.4845 14.6871C37.484 14.6876 37.4835 14.6881 37.483 14.6886C37.4825 14.6891 37.482 14.6896 37.4815 14.6901C37.481 14.6906 37.4805 14.6911 37.48 14.6916C37.4795 14.6921 37.479 14.6926 37.4785 14.6931C37.478 14.6936 37.4774 14.6941 37.4769 14.6946C37.4764 14.6951 37.4759 14.6957 37.4754 14.6962C37.4749 14.6967 37.4744 14.6972 37.4739 14.6977C37.4733 14.6982 37.4728 14.6987 37.4723 14.6993C37.4718 14.6998 37.4713 14.7003 37.4708 14.7008C37.4702 14.7013 37.4697 14.7019 37.4692 14.7024C37.4687 14.7029 37.4681 14.7034 37.4676 14.704C37.4671 14.7045 37.4666 14.705 37.466 14.7056C37.4655 14.7061 37.465 14.7066 37.4644 14.7071C37.4639 14.7077 37.4634 14.7082 37.4628 14.7087C37.4623 14.7093 37.4618 14.7098 37.4612 14.7104C37.4607 14.7109 37.4601 14.7114 37.4596 14.712C37.4591 14.7125 37.4585 14.7131 37.458 14.7136C37.4574 14.7142 37.4569 14.7147 37.4563 14.7152C37.4558 14.7158 37.4552 14.7163 37.4547 14.7169C37.4541 14.7174 37.4536 14.718 37.453 14.7185C37.4525 14.7191 37.4519 14.7197 37.4514 14.7202C37.4508 14.7208 37.4502 14.7213 37.4497 14.7219C37.4491 14.7224 37.4486 14.723 37.448 14.7236C37.4474 14.7241 37.4469 14.7247 37.4463 14.7252C37.4458 14.7258 37.4452 14.7264 37.4446 14.7269C37.4441 14.7275 37.4435 14.7281 37.4429 14.7287C37.4424 14.7292 37.4418 14.7298 37.4412 14.7304C37.4406 14.7309 37.4401 14.7315 37.4395 14.7321C37.4389 14.7327 37.4383 14.7332 37.4378 14.7338C37.4372 14.7344 37.4366 14.735 37.436 14.7356C37.4354 14.7361 37.4349 14.7367 37.4343 14.7373C37.4337 14.7379 37.4331 14.7385 37.4325 14.7391C37.4319 14.7396 37.4313 14.7402 37.4308 14.7408C37.4302 14.7414 37.4296 14.742 37.429 14.7426C37.4284 14.7432 37.4278 14.7438 37.4272 14.7444C37.4266 14.745 37.426 14.7456 37.4254 14.7461C37.4248 14.7467 37.4242 14.7473 37.4236 14.7479C37.423 14.7485 37.4224 14.7491 37.4218 14.7497C37.4212 14.7503 37.4206 14.7509 37.42 14.7516C37.4194 14.7522 37.4188 14.7528 37.4182 14.7534C37.4176 14.754 37.417 14.7546 37.4164 14.7552C37.4158 14.7558 37.4152 14.7564 37.4145 14.757C37.4139 14.7576 37.4133 14.7583 37.4127 14.7589C37.4121 14.7595 37.4115 14.7601 37.4109 14.7607C37.4102 14.7613 37.4096 14.7619 37.409 14.7626C37.4084 14.7632 37.4078 14.7638 37.4071 14.7644C37.4065 14.7651 37.4059 14.7657 37.4053 14.7663C37.4046 14.7669 37.404 14.7676 37.4034 14.7682C37.4028 14.7688 37.4021 14.7694 37.4015 14.7701C37.4009 14.7707 37.4002 14.7713 37.3996 14.772C37.399 14.7726 37.3983 14.7732 37.3977 14.7739C37.3971 14.7745 37.3964 14.7751 37.3958 14.7758C37.3952 14.7764 37.3945 14.777 37.3939 14.7777C37.3933 14.7783 37.3926 14.779 37.392 14.7796C37.3913 14.7802 37.3907 14.7809 37.39 14.7815C37.3894 14.7822 37.3888 14.7828 37.3881 14.7835C37.3875 14.7841 37.3868 14.7848 37.3862 14.7854C37.3855 14.7861 37.3849 14.7867 37.3842 14.7874C37.3836 14.788 37.3829 14.7887 37.3823 14.7893C37.3816 14.79 37.3809 14.7906 37.3803 14.7913C37.3796 14.7919 37.379 14.7926 37.3783 14.7933C37.3777 14.7939 37.377 14.7946 37.3763 14.7952C37.3757 14.7959 37.375 14.7966 37.3744 14.7972C37.3737 14.7979 37.373 14.7985 37.3724 14.7992C37.3717 14.7999 37.371 14.8005 37.3704 14.8012C37.3697 14.8019 37.369 14.8025 37.3684 14.8032C37.3677 14.8039 37.367 14.8046 37.3663 14.8052C37.3657 14.8059 37.365 14.8066 37.3643 14.8072C37.3637 14.8079 37.363 14.8086 37.3623 14.8093C37.3616 14.8099 37.3609 14.8106 37.3603 14.8113C37.3596 14.812 37.3589 14.8127 37.3582 14.8133C37.3575 14.814 37.3569 14.8147 37.3562 14.8154C37.3555 14.8161 37.3548 14.8168 37.3541 14.8174C37.3534 14.8181 37.3528 14.8188 37.3521 14.8195C37.3514 14.8202 37.3507 14.8209 37.35 14.8216C37.3493 14.8223 37.3486 14.8229 37.3479 14.8236C37.3472 14.8243 37.3465 14.825 37.3459 14.8257C37.3452 14.8264 37.3445 14.8271 37.3438 14.8278C37.3431 14.8285 37.3424 14.8292 37.3417 14.8299C37.341 14.8306 37.3403 14.8313 37.3396 14.832C37.3389 14.8327 37.3382 14.8334 37.3375 14.8341C37.3368 14.8348 37.3361 14.8355 37.3354 14.8362C37.3347 14.8369 37.334 14.8376 37.3333 14.8383C37.3325 14.839 37.3318 14.8397 37.3311 14.8404C37.3304 14.8412 37.3297 14.8419 37.329 14.8426C37.3283 14.8433 37.3276 14.844 37.3269 14.8447C37.3262 14.8454 37.3254 14.8461 37.3247 14.8468C37.324 14.8476 37.3233 14.8483 37.3226 14.849C37.3219 14.8497 37.3211 14.8504 37.3204 14.8511C37.3197 14.8519 37.319 14.8526 37.3183 14.8533C37.3176 14.854 37.3168 14.8547 37.3161 14.8555C37.3154 14.8562 37.3147 14.8569 37.3139 14.8576C37.3132 14.8584 37.3125 14.8591 37.3118 14.8598C37.311 14.8605 37.3103 14.8613 37.3096 14.862C37.3089 14.8627 37.3081 14.8634 37.3074 14.8642C37.3067 14.8649 37.3059 14.8656 37.3052 14.8664C37.3045 14.8671 37.3037 14.8678 37.303 14.8686C37.3023 14.8693 37.3015 14.87 37.3008 14.8708C37.3001 14.8715 37.2993 14.8722 37.2986 14.873C37.2979 14.8737 37.2971 14.8745 37.2964 14.8752C37.2956 14.8759 37.2949 14.8767 37.2942 14.8774C37.2934 14.8782 37.2927 14.8789 37.2919 14.8796C37.2912 14.8804 37.2904 14.8811 37.2897 14.8819C37.289 14.8826 37.2882 14.8834 37.2875 14.8841C37.2867 14.8849 37.286 14.8856 37.2852 14.8864C37.2845 14.8871 37.2837 14.8879 37.283 14.8886C37.2822 14.8894 37.2815 14.8901 37.2807 14.8909C37.28 14.8916 37.2792 14.8924 37.2785 14.8931C37.2777 14.8939 37.277 14.8946 37.2762 14.8954C37.2754 14.8961 37.2747 14.8969 37.2739 14.8976C37.2732 14.8984 37.2724 14.8992 37.2717 14.8999C37.2709 14.9007 37.2701 14.9014 37.2694 14.9022C37.2686 14.903 37.2679 14.9037 37.2671 14.9045C37.2663 14.9052 37.2656 14.906 37.2648 14.9068C37.264 14.9075 37.2633 14.9083 37.2625 14.9091C37.2617 14.9098 37.261 14.9106 37.2602 14.9114C37.2594 14.9121 37.2587 14.9129 37.2579 14.9137C37.2571 14.9144 37.2564 14.9152 37.2556 14.916C37.2548 14.9167 37.2541 14.9175 37.2533 14.9183C37.2525 14.9191 37.2517 14.9198 37.251 14.9206C37.2502 14.9214 37.2494 14.9222 37.2486 14.9229C37.2479 14.9237 37.2471 14.9245 37.2463 14.9253C37.2455 14.926 37.2448 14.9268 37.244 14.9276C37.2432 14.9284 37.2424 14.9291 37.2416 14.9299C37.2409 14.9307 37.2401 14.9315 37.2393 14.9323C37.2385 14.9331 37.2377 14.9338 37.237 14.9346C37.2362 14.9354 37.2354 14.9362 37.2346 14.937C37.2338 14.9378 37.233 14.9385 37.2323 14.9393C37.2315 14.9401 37.2307 14.9409 37.2299 14.9417C37.2291 14.9425 37.2283 14.9433 37.2275 14.944C37.2267 14.9448 37.2259 14.9456 37.2252 14.9464C37.2244 14.9472 37.2236 14.948 37.2228 14.9488C37.222 14.9496 37.2212 14.9504 37.2204 14.9512C37.2196 14.952 37.2188 14.9528 37.218 14.9535C37.2172 14.9543 37.2164 14.9551 37.2156 14.9559C37.2148 14.9567 37.214 14.9575 37.2133 14.9583C37.2125 14.9591 37.2117 14.9599 37.2109 14.9607C37.2101 14.9615 37.2093 14.9623 37.2085 14.9631C37.2077 14.9639 37.2069 14.9647 37.2061 14.9655C37.2053 14.9663 37.2045 14.9671 37.2036 14.9679C37.2028 14.9687 37.202 14.9695 37.2012 14.9703C37.2004 14.9711 37.1996 14.9719 37.1988 14.9727C37.198 14.9736 37.1972 14.9744 37.1964 14.9752C37.1956 14.976 37.1948 14.9768 37.194 14.9776C37.1932 14.9784 37.1924 14.9792 37.1916 14.98C37.1907 14.9808 37.1899 14.9816 37.1891 14.9824C37.1883 14.9833 37.1875 14.9841 37.1867 14.9849C37.1859 14.9857 37.1851 14.9865 37.1843 14.9873C37.1834 14.9881 37.1826 14.9889 37.1818 14.9898C37.181 14.9906 37.1802 14.9914 37.1794 14.9922C37.1786 14.993 37.1777 14.9938 37.1769 14.9947C37.1761 14.9955 37.1753 14.9963 37.1745 14.9971C37.1736 14.9979 37.1728 14.9987 37.172 14.9996C37.1712 15.0004 37.1704 15.0012 37.1696 15.002C37.1687 15.0028 37.1679 15.0037 37.1671 15.0045C37.1663 15.0053 37.1654 15.0061 37.1646 15.007C37.1638 15.0078 37.163 15.0086 37.1622 15.0094C37.1613 15.0102 37.1605 15.0111 37.1597 15.0119C37.1589 15.0127 37.158 15.0135 37.1572 15.0144C37.1564 15.0152 37.1555 15.016 37.1547 15.0169C37.1539 15.0177 37.1531 15.0185 37.1522 15.0193C37.1514 15.0202 37.1506 15.021 37.1498 15.0218C37.1489 15.0226 37.1481 15.0235 37.1473 15.0243C37.1464 15.0251 37.1456 15.026 37.1448 15.0268C37.1439 15.0276 37.1431 15.0285 37.1423 15.0293C37.1414 15.0301 37.1406 15.031 37.1398 15.0318C37.1389 15.0326 37.1381 15.0335 37.1373 15.0343C37.1364 15.0351 37.1356 15.036 37.1348 15.0368C37.1339 15.0376 37.1331 15.0385 37.1323 15.0393C37.1314 15.0402 37.1306 15.041 37.1297 15.0418C37.1289 15.0427 37.1281 15.0435 37.1272 15.0443C37.1264 15.0452 37.1256 15.046 37.1247 15.0469C37.1239 15.0477 37.123 15.0485 37.1222 15.0494C37.1214 15.0502 37.1205 15.0511 37.1197 15.0519C37.1188 15.0527 37.118 15.0536 37.1171 15.0544C37.1163 15.0553 37.1155 15.0561 37.1146 15.057C37.1138 15.0578 37.1129 15.0586 37.1121 15.0595C37.1112 15.0603 37.1104 15.0612 37.1096 15.062C37.1087 15.0629 37.1079 15.0637 37.107 15.0646C37.1062 15.0654 37.1053 15.0662 37.1045 15.0671C37.1036 15.0679 37.1028 15.0688 37.1019 15.0696C37.1011 15.0705 37.1002 15.0713 37.0994 15.0722C37.0985 15.073 37.0977 15.0739 37.0969 15.0747C37.096 15.0756 37.0952 15.0764 37.0943 15.0773C37.0935 15.0781 37.0926 15.079 37.0918 15.0798C37.0909 15.0807 37.09 15.0815 37.0892 15.0824C37.0883 15.0832 37.0875 15.0841 37.0866 15.0849C37.0858 15.0858 37.0849 15.0866 37.0841 15.0875C37.0832 15.0883 37.0824 15.0892 37.0815 15.09C37.0807 15.0909 37.0798 15.0918 37.079 15.0926C37.0781 15.0935 37.0773 15.0943 37.0764 15.0952C37.0755 15.096 37.0747 15.0969 37.0738 15.0977C37.073 15.0986 37.0721 15.0995 37.0713 15.1003C37.0704 15.1012 37.0695 15.102 37.0687 15.1029C37.0678 15.1037 37.067 15.1046 37.0661 15.1055C37.0653 15.1063 37.0644 15.1072 37.0635 15.108C37.0627 15.1089 37.0618 15.1097 37.061 15.1106C37.0601 15.1115 37.0592 15.1123 37.0584 15.1132C37.0575 15.114 37.0567 15.1149 37.0558 15.1158C37.0549 15.1166 37.0541 15.1175 37.0532 15.1183C37.0524 15.1192 37.0515 15.1201 37.0506 15.1209C37.0498 15.1218 37.0489 15.1227 37.0481 15.1235C37.0472 15.1244 37.0463 15.1252 37.0455 15.1261C37.0446 15.127 37.0437 15.1278 37.0429 15.1287C37.042 15.1296 37.0411 15.1304 37.0403 15.1313C37.0394 15.1322 37.0386 15.133 37.0377 15.1339C37.0368 15.1347 37.036 15.1356 37.0351 15.1365C37.0342 15.1373 37.0334 15.1382 37.0325 15.1391C37.0316 15.1399 37.0308 15.1408 37.0299 15.1417C37.029 15.1425 37.0282 15.1434 37.0273 15.1443C37.0264 15.1451 37.0256 15.146 37.0247 15.1469C37.0238 15.1477 37.023 15.1486 37.0221 15.1495C37.0212 15.1503 37.0204 15.1512 37.0195 15.1521C37.0186 15.1529 37.0178 15.1538 37.0169 15.1547C37.016 15.1555 37.0152 15.1564 37.0143 15.1573C37.0134 15.1582 37.0126 15.159 37.0117 15.1599C37.0108 15.1608 37.0099 15.1616 37.0091 15.1625C37.0082 15.1634 37.0073 15.1642 37.0065 15.1651C37.0056 15.166 37.0047 15.1668 37.0039 15.1677C37.003 15.1686 37.0021 15.1695 37.0012 15.1703C37.0004 15.1712 36.9995 15.1721 36.9986 15.1729C36.9978 15.1738 36.9969 15.1747 36.996 15.1756C36.9951 15.1764 36.9943 15.1773 36.9934 15.1782C36.9925 15.179 36.9917 15.1799 36.9908 15.1808C36.9899 15.1817 36.989 15.1825 36.9882 15.1834C36.9873 15.1843 36.9864 15.1851 36.9856 15.186C36.9847 15.1869 36.9838 15.1878 36.9829 15.1886C36.9821 15.1895 36.9812 15.1904 36.9803 15.1913C36.9794 15.1921 36.9786 15.193 36.9777 15.1939C36.9768 15.1947 36.976 15.1956 36.9751 15.1965C36.9742 15.1974 36.9733 15.1982 36.9725 15.1991C36.9716 15.2 36.9707 15.2009 36.9698 15.2017C36.969 15.2026 36.9681 15.2035 36.9672 15.2044C36.9663 15.2052 36.9655 15.2061 36.9646 15.207C36.9637 15.2079 36.9628 15.2087 36.962 15.2096C36.9611 15.2105 36.9602 15.2114 36.9593 15.2122C36.9585 15.2131 36.9576 15.214 36.9567 15.2149C36.9558 15.2157 36.955 15.2166 36.9541 15.2175C36.9532 15.2184 36.9523 15.2192 36.9515 15.2201C36.9506 15.221 36.9497 15.2219 36.9488 15.2227C36.948 15.2236 36.9471 15.2245 36.9462 15.2254C36.9453 15.2262 36.9445 15.2271 36.9436 15.228C36.9427 15.2289 36.9418 15.2297 36.941 15.2306C36.9401 15.2315 36.9392 15.2324 36.9383 15.2332C36.9375 15.2341 36.9366 15.235 36.9357 15.2359C36.9348 15.2367 36.934 15.2376 36.9331 15.2385C36.9322 15.2394 36.9313 15.2402 36.9305 15.2411C36.9296 15.242 36.9287 15.2429 36.9278 15.2437C36.9269 15.2446 36.9261 15.2455 36.9252 15.2464C36.9243 15.2473 36.9234 15.2481 36.9226 15.249C36.9217 15.2499 36.9208 15.2508 36.9199 15.2516C36.9191 15.2525 36.9182 15.2534 36.9173 15.2543C36.9164 15.2551 36.9156 15.256 36.9147 15.2569C36.9138 15.2578 36.9129 15.2586 36.9121 15.2595C36.9112 15.2604 36.9103 15.2613 36.9094 15.2621C36.9086 15.263 36.9077 15.2639 36.9068 15.2648C36.9059 15.2656 36.9051 15.2665 36.9042 15.2674C36.9033 15.2683 36.9024 15.2691 36.9016 15.27C36.9007 15.2709 36.8998 15.2718 36.8989 15.2726C36.8981 15.2735 36.8972 15.2744 36.8963 15.2753C36.8954 15.2761 36.8946 15.277 36.8937 15.2779C36.8928 15.2788 36.8919 15.2796 36.8911 15.2805C36.8902 15.2814 36.8893 15.2823 36.8884 15.2831C36.8876 15.284 36.8867 15.2849 36.8858 15.2858C36.8849 15.2866 36.8841 15.2875 36.8832 15.2884C36.8823 15.2893 36.8814 15.2901 36.8806 15.291C36.8797 15.2919 36.8788 15.2928 36.8779 15.2936C36.8771 15.2945 36.8762 15.2954 36.8753 15.2963C36.8744 15.2971 36.8736 15.298 36.8727 15.2989C36.8718 15.2997 36.871 15.3006 36.8701 15.3015C36.8692 15.3024 36.8683 15.3032 36.8675 15.3041C36.8666 15.305 36.8657 15.3059 36.8648 15.3067C36.864 15.3076 36.8631 15.3085 36.8622 15.3093C36.8614 15.3102 36.8605 15.3111 36.8596 15.312C36.8587 15.3128 36.8579 15.3137 36.857 15.3146C36.8561 15.3154 36.8553 15.3163 36.8544 15.3172C36.8535 15.3181 36.8526 15.3189 36.8518 15.3198C36.8509 15.3207 36.85 15.3215 36.8492 15.3224C36.8483 15.3233 36.8474 15.3242 36.8465 15.325C36.8457 15.3259 36.8448 15.3268 36.8439 15.3276C36.8431 15.3285 36.8422 15.3294 36.8413 15.3302C36.8405 15.3311 36.8396 15.332 36.8387 15.3328C36.8379 15.3337 36.837 15.3346 36.8361 15.3355C36.8352 15.3363 36.8344 15.3372 36.8335 15.3381C36.8326 15.3389 36.8318 15.3398 36.8309 15.3407C36.83 15.3415 36.8292 15.3424 36.8283 15.3433C36.8274 15.3441 36.8266 15.345 36.8257 15.3459C36.8248 15.3467 36.824 15.3476 36.8231 15.3485C36.8222 15.3493 36.8214 15.3502 36.8205 15.3511C36.8196 15.3519 36.8188 15.3528 36.8179 15.3537C36.817 15.3545 36.8162 15.3554 36.8153 15.3563C36.8145 15.3571 36.8136 15.358 36.8127 15.3589C36.8119 15.3597 36.811 15.3606 36.8101 15.3614C36.8093 15.3623 36.8084 15.3632 36.8075 15.364C36.8067 15.3649 36.8058 15.3658 36.805 15.3666C36.8041 15.3675 36.8032 15.3683 36.8024 15.3692C36.8015 15.3701 36.8006 15.3709 36.7998 15.3718C36.7989 15.3727 36.7981 15.3735 36.7972 15.3744C36.7963 15.3752 36.7955 15.3761 36.7946 15.377C36.7938 15.3778 36.7929 15.3787 36.792 15.3795C36.7912 15.3804 36.7903 15.3813 36.7895 15.3821C36.7886 15.383 36.7877 15.3838 36.7869 15.3847C36.786 15.3855 36.7852 15.3864 36.7843 15.3873C36.7835 15.3881 36.7826 15.389 36.7817 15.3898C36.7809 15.3907 36.78 15.3915 36.7792 15.3924C36.7783 15.3933 36.7775 15.3941 36.7766 15.395C36.7757 15.3958 36.7749 15.3967 36.774 15.3975C36.7732 15.3984 36.7723 15.3992 36.7715 15.4001C36.7706 15.401 36.7698 15.4018 36.7689 15.4027C36.7681 15.4035 36.7672 15.4044 36.7664 15.4052C36.7655 15.4061 36.7646 15.4069 36.7638 15.4078C36.7629 15.4086 36.7621 15.4095 36.7612 15.4103C36.7604 15.4112 36.7595 15.412 36.7587 15.4129C36.7578 15.4137 36.757 15.4146 36.7561 15.4154C36.7553 15.4163 36.7544 15.4171 36.7536 15.418C36.7527 15.4188 36.7519 15.4197 36.751 15.4205C36.7502 15.4214 36.7494 15.4222 36.7485 15.4231C36.7477 15.4239 36.7468 15.4248 36.746 15.4256C36.7451 15.4265 36.7443 15.4273 36.7434 15.4281C36.7426 15.429 36.7417 15.4298 36.7409 15.4307C36.74 15.4315 36.7392 15.4324 36.7384 15.4332C36.7375 15.4341 36.7367 15.4349 36.7358 15.4357C36.735 15.4366 36.7341 15.4374 36.7333 15.4383C36.7325 15.4391 36.7316 15.44 36.7308 15.4408C36.7299 15.4416 36.7291 15.4425 36.7283 15.4433C36.7274 15.4442 36.7266 15.445 36.7257 15.4458C36.7249 15.4467 36.7241 15.4475 36.7232 15.4483C36.7224 15.4492 36.7216 15.45 36.7207 15.4509C36.7199 15.4517 36.719 15.4525 36.7182 15.4534C36.7174 15.4542 36.7165 15.455 36.7157 15.4559C36.7149 15.4567 36.714 15.4575 36.7132 15.4584C36.7124 15.4592 36.7115 15.46 36.7107 15.4609C36.7099 15.4617 36.709 15.4625 36.7082 15.4634C36.7074 15.4642 36.7065 15.465 36.7057 15.4659C36.7049 15.4667 36.704 15.4675 36.7032 15.4684C36.7024 15.4692 36.7016 15.47 36.7007 15.4709C36.6999 15.4717 36.6991 15.4725 36.6982 15.4733C36.6974 15.4742 36.6966 15.475 36.6958 15.4758C36.6949 15.4766 36.6941 15.4775 36.6933 15.4783C36.6925 15.4791 36.6916 15.4799 36.6908 15.4808C36.69 15.4816 36.6892 15.4824 36.6883 15.4832C36.6875 15.4841 36.6867 15.4849 36.6859 15.4857C36.685 15.4865 36.6842 15.4874 36.6834 15.4882C36.6826 15.489 36.6818 15.4898 36.6809 15.4906C36.6801 15.4915 36.6793 15.4923 36.6785 15.4931C36.6777 15.4939 36.6768 15.4947 36.676 15.4955C36.6752 15.4964 36.6744 15.4972 36.6736 15.498C36.6728 15.4988 36.6719 15.4996 36.6711 15.5004C36.6703 15.5013 36.6695 15.5021 36.6687 15.5029C36.6679 15.5037 36.6671 15.5045 36.6662 15.5053C36.6654 15.5061 36.6646 15.5069 36.6638 15.5078C36.663 15.5086 36.6622 15.5094 36.6614 15.5102C36.6606 15.511 36.6598 15.5118 36.659 15.5126C36.6581 15.5134 36.6573 15.5142 36.6565 15.515C36.6557 15.5159 36.6549 15.5167 36.6541 15.5175C36.6533 15.5183 36.6525 15.5191 36.6517 15.5199C36.6509 15.5207 36.6501 15.5215 36.6493 15.5223C36.6485 15.5231 36.6477 15.5239 36.6469 15.5247C36.6461 15.5255 36.6453 15.5263 36.6445 15.5271C36.6437 15.5279 36.6429 15.5287 36.6421 15.5295C36.6413 15.5303 36.6405 15.5311 36.6397 15.5319C36.6389 15.5327 36.6381 15.5335 36.6373 15.5343C36.6365 15.5351 36.6357 15.5359 36.6349 15.5367C36.6341 15.5375 36.6333 15.5383 36.6325 15.5391C36.6317 15.5399 36.6309 15.5407 36.6301 15.5414C36.6293 15.5422 36.6285 15.543 36.6278 15.5438C36.627 15.5446 36.6262 15.5454 36.6254 15.5462C36.6246 15.547 36.6238 15.5478 36.623 15.5486C36.6222 15.5493 36.6214 15.5501 36.6207 15.5509C36.6199 15.5517 36.6191 15.5525 36.6183 15.5533C36.6175 15.5541 36.6167 15.5548 36.6159 15.5556C36.6152 15.5564 36.6144 15.5572 36.6136 15.558C36.6128 15.5588 36.612 15.5595 36.6113 15.5603C36.6105 15.5611 36.6097 15.5619 36.6089 15.5627C36.6081 15.5634 36.6074 15.5642 36.6066 15.565C36.6058 15.5658 36.605 15.5665 36.6043 15.5673C36.6035 15.5681 36.6027 15.5689 36.6019 15.5696C36.6012 15.5704 36.6004 15.5712 36.5996 15.572C36.5988 15.5727 36.5981 15.5735 36.5973 15.5743C36.5965 15.5751 36.5957 15.5758 36.595 15.5766C36.5942 15.5774 36.5934 15.5781 36.5927 15.5789C36.5919 15.5797 36.5911 15.5804 36.5904 15.5812C36.5896 15.582 36.5888 15.5827 36.5881 15.5835C36.5873 15.5843 36.5865 15.585 36.5858 15.5858L39.4142 18.4142C39.415 18.4135 39.4157 18.4127 39.4165 18.4119C39.4173 18.4112 39.418 18.4104 39.4188 18.4096C39.4196 18.4089 39.4203 18.4081 39.4211 18.4073C39.4219 18.4066 39.4226 18.4058 39.4234 18.405C39.4242 18.4043 39.4249 18.4035 39.4257 18.4027C39.4265 18.4019 39.4273 18.4012 39.428 18.4004C39.4288 18.3996 39.4296 18.3988 39.4304 18.3981C39.4311 18.3973 39.4319 18.3965 39.4327 18.3957C39.4335 18.395 39.4342 18.3942 39.435 18.3934C39.4358 18.3926 39.4366 18.3919 39.4373 18.3911C39.4381 18.3903 39.4389 18.3895 39.4397 18.3887C39.4405 18.388 39.4412 18.3872 39.442 18.3864C39.4428 18.3856 39.4436 18.3848 39.4444 18.3841C39.4452 18.3833 39.4459 18.3825 39.4467 18.3817C39.4475 18.3809 39.4483 18.3801 39.4491 18.3793C39.4499 18.3786 39.4507 18.3778 39.4514 18.377C39.4522 18.3762 39.453 18.3754 39.4538 18.3746C39.4546 18.3738 39.4554 18.373 39.4562 18.3722C39.457 18.3715 39.4578 18.3707 39.4586 18.3699C39.4593 18.3691 39.4601 18.3683 39.4609 18.3675C39.4617 18.3667 39.4625 18.3659 39.4633 18.3651C39.4641 18.3643 39.4649 18.3635 39.4657 18.3627C39.4665 18.3619 39.4673 18.3611 39.4681 18.3603C39.4689 18.3595 39.4697 18.3587 39.4705 18.3579C39.4713 18.3571 39.4721 18.3563 39.4729 18.3555C39.4737 18.3547 39.4745 18.3539 39.4753 18.3531C39.4761 18.3523 39.4769 18.3515 39.4777 18.3507C39.4785 18.3499 39.4793 18.3491 39.4801 18.3483C39.4809 18.3475 39.4817 18.3467 39.4825 18.3459C39.4833 18.3451 39.4841 18.3443 39.485 18.3435C39.4858 18.3427 39.4866 18.3419 39.4874 18.341C39.4882 18.3402 39.489 18.3394 39.4898 18.3386C39.4906 18.3378 39.4914 18.337 39.4922 18.3362C39.4931 18.3354 39.4939 18.3346 39.4947 18.3338C39.4955 18.3329 39.4963 18.3321 39.4971 18.3313C39.4979 18.3305 39.4987 18.3297 39.4996 18.3289C39.5004 18.3281 39.5012 18.3272 39.502 18.3264C39.5028 18.3256 39.5036 18.3248 39.5045 18.324C39.5053 18.3232 39.5061 18.3223 39.5069 18.3215C39.5077 18.3207 39.5085 18.3199 39.5094 18.3191C39.5102 18.3182 39.511 18.3174 39.5118 18.3166C39.5126 18.3158 39.5135 18.315 39.5143 18.3141C39.5151 18.3133 39.5159 18.3125 39.5168 18.3117C39.5176 18.3108 39.5184 18.31 39.5192 18.3092C39.5201 18.3084 39.5209 18.3075 39.5217 18.3067C39.5225 18.3059 39.5234 18.3051 39.5242 18.3042C39.525 18.3034 39.5258 18.3026 39.5267 18.3018C39.5275 18.3009 39.5283 18.3001 39.5291 18.2993C39.53 18.2984 39.5308 18.2976 39.5316 18.2968C39.5325 18.296 39.5333 18.2951 39.5341 18.2943C39.535 18.2935 39.5358 18.2926 39.5366 18.2918C39.5375 18.291 39.5383 18.2901 39.5391 18.2893C39.54 18.2885 39.5408 18.2876 39.5416 18.2868C39.5425 18.286 39.5433 18.2851 39.5441 18.2843C39.545 18.2835 39.5458 18.2826 39.5466 18.2818C39.5475 18.281 39.5483 18.2801 39.5491 18.2793C39.55 18.2784 39.5508 18.2776 39.5517 18.2768C39.5525 18.2759 39.5533 18.2751 39.5542 18.2743C39.555 18.2734 39.5558 18.2726 39.5567 18.2717C39.5575 18.2709 39.5584 18.2701 39.5592 18.2692C39.56 18.2684 39.5609 18.2675 39.5617 18.2667C39.5626 18.2659 39.5634 18.265 39.5643 18.2642C39.5651 18.2633 39.5659 18.2625 39.5668 18.2616C39.5676 18.2608 39.5685 18.26 39.5693 18.2591C39.5702 18.2583 39.571 18.2574 39.5719 18.2566C39.5727 18.2557 39.5735 18.2549 39.5744 18.254C39.5752 18.2532 39.5761 18.2523 39.5769 18.2515C39.5778 18.2506 39.5786 18.2498 39.5795 18.249C39.5803 18.2481 39.5812 18.2473 39.582 18.2464C39.5829 18.2456 39.5837 18.2447 39.5846 18.2439C39.5854 18.243 39.5863 18.2422 39.5871 18.2413C39.588 18.2405 39.5888 18.2396 39.5897 18.2388C39.5905 18.2379 39.5914 18.2371 39.5922 18.2362C39.5931 18.2354 39.5939 18.2345 39.5948 18.2336C39.5956 18.2328 39.5965 18.2319 39.5973 18.2311C39.5982 18.2302 39.599 18.2294 39.5999 18.2285C39.6008 18.2277 39.6016 18.2268 39.6025 18.226C39.6033 18.2251 39.6042 18.2243 39.605 18.2234C39.6059 18.2225 39.6067 18.2217 39.6076 18.2208C39.6085 18.22 39.6093 18.2191 39.6102 18.2183C39.611 18.2174 39.6119 18.2165 39.6127 18.2157C39.6136 18.2148 39.6145 18.214 39.6153 18.2131C39.6162 18.2123 39.617 18.2114 39.6179 18.2105C39.6187 18.2097 39.6196 18.2088 39.6205 18.208C39.6213 18.2071 39.6222 18.2062 39.623 18.2054C39.6239 18.2045 39.6248 18.2037 39.6256 18.2028C39.6265 18.2019 39.6273 18.2011 39.6282 18.2002C39.6291 18.1994 39.6299 18.1985 39.6308 18.1976C39.6317 18.1968 39.6325 18.1959 39.6334 18.195C39.6342 18.1942 39.6351 18.1933 39.636 18.1925C39.6368 18.1916 39.6377 18.1907 39.6386 18.1899C39.6394 18.189 39.6403 18.1881 39.6411 18.1873C39.642 18.1864 39.6429 18.1855 39.6437 18.1847C39.6446 18.1838 39.6455 18.183 39.6463 18.1821C39.6472 18.1812 39.6481 18.1804 39.6489 18.1795C39.6498 18.1786 39.6507 18.1778 39.6515 18.1769C39.6524 18.176 39.6533 18.1752 39.6541 18.1743C39.655 18.1734 39.6559 18.1726 39.6567 18.1717C39.6576 18.1708 39.6585 18.17 39.6593 18.1691C39.6602 18.1682 39.6611 18.1674 39.6619 18.1665C39.6628 18.1656 39.6637 18.1648 39.6645 18.1639C39.6654 18.163 39.6663 18.1621 39.6672 18.1613C39.668 18.1604 39.6689 18.1595 39.6698 18.1587C39.6706 18.1578 39.6715 18.1569 39.6724 18.1561C39.6732 18.1552 39.6741 18.1543 39.675 18.1535C39.6758 18.1526 39.6767 18.1517 39.6776 18.1508C39.6785 18.15 39.6793 18.1491 39.6802 18.1482C39.6811 18.1474 39.6819 18.1465 39.6828 18.1456C39.6837 18.1447 39.6846 18.1439 39.6854 18.143C39.6863 18.1421 39.6872 18.1413 39.688 18.1404C39.6889 18.1395 39.6898 18.1386 39.6907 18.1378C39.6915 18.1369 39.6924 18.136 39.6933 18.1352C39.6941 18.1343 39.695 18.1334 39.6959 18.1325C39.6968 18.1317 39.6976 18.1308 39.6985 18.1299C39.6994 18.129 39.7003 18.1282 39.7011 18.1273C39.702 18.1264 39.7029 18.1256 39.7037 18.1247C39.7046 18.1238 39.7055 18.1229 39.7064 18.1221C39.7072 18.1212 39.7081 18.1203 39.709 18.1194C39.7099 18.1186 39.7107 18.1177 39.7116 18.1168C39.7125 18.1159 39.7134 18.1151 39.7142 18.1142C39.7151 18.1133 39.716 18.1124 39.7169 18.1116C39.7177 18.1107 39.7186 18.1098 39.7195 18.1089C39.7204 18.1081 39.7212 18.1072 39.7221 18.1063C39.723 18.1054 39.7239 18.1046 39.7247 18.1037C39.7256 18.1028 39.7265 18.1019 39.7274 18.1011C39.7282 18.1002 39.7291 18.0993 39.73 18.0984C39.7309 18.0976 39.7317 18.0967 39.7326 18.0958C39.7335 18.0949 39.7344 18.0941 39.7352 18.0932C39.7361 18.0923 39.737 18.0914 39.7379 18.0906C39.7387 18.0897 39.7396 18.0888 39.7405 18.0879C39.7414 18.0871 39.7422 18.0862 39.7431 18.0853C39.744 18.0844 39.7449 18.0836 39.7457 18.0827C39.7466 18.0818 39.7475 18.0809 39.7484 18.0801C39.7492 18.0792 39.7501 18.0783 39.751 18.0774C39.7519 18.0766 39.7527 18.0757 39.7536 18.0748C39.7545 18.0739 39.7554 18.0731 39.7563 18.0722C39.7571 18.0713 39.758 18.0704 39.7589 18.0695C39.7598 18.0687 39.7606 18.0678 39.7615 18.0669C39.7624 18.066 39.7633 18.0652 39.7641 18.0643C39.765 18.0634 39.7659 18.0625 39.7668 18.0617C39.7676 18.0608 39.7685 18.0599 39.7694 18.059C39.7703 18.0582 39.7711 18.0573 39.772 18.0564C39.7729 18.0555 39.7738 18.0547 39.7746 18.0538C39.7755 18.0529 39.7764 18.052 39.7773 18.0512C39.7781 18.0503 39.779 18.0494 39.7799 18.0485C39.7808 18.0477 39.7816 18.0468 39.7825 18.0459C39.7834 18.045 39.7843 18.0442 39.7851 18.0433C39.786 18.0424 39.7869 18.0415 39.7878 18.0407C39.7886 18.0398 39.7895 18.0389 39.7904 18.038C39.7913 18.0372 39.7921 18.0363 39.793 18.0354C39.7939 18.0345 39.7948 18.0337 39.7956 18.0328C39.7965 18.0319 39.7974 18.031 39.7983 18.0302C39.7991 18.0293 39.8 18.0284 39.8009 18.0275C39.8018 18.0267 39.8026 18.0258 39.8035 18.0249C39.8044 18.024 39.8053 18.0232 39.8061 18.0223C39.807 18.0214 39.8079 18.0206 39.8087 18.0197C39.8096 18.0188 39.8105 18.0179 39.8114 18.0171C39.8122 18.0162 39.8131 18.0153 39.814 18.0144C39.8149 18.0136 39.8157 18.0127 39.8166 18.0118C39.8175 18.011 39.8183 18.0101 39.8192 18.0092C39.8201 18.0083 39.821 18.0075 39.8218 18.0066C39.8227 18.0057 39.8236 18.0049 39.8244 18.004C39.8253 18.0031 39.8262 18.0022 39.8271 18.0014C39.8279 18.0005 39.8288 17.9996 39.8297 17.9988C39.8305 17.9979 39.8314 17.997 39.8323 17.9961C39.8332 17.9953 39.834 17.9944 39.8349 17.9935C39.8358 17.9927 39.8366 17.9918 39.8375 17.9909C39.8384 17.9901 39.8392 17.9892 39.8401 17.9883C39.841 17.9874 39.8418 17.9866 39.8427 17.9857C39.8436 17.9848 39.8445 17.984 39.8453 17.9831C39.8462 17.9822 39.8471 17.9814 39.8479 17.9805C39.8488 17.9796 39.8497 17.9788 39.8505 17.9779C39.8514 17.977 39.8523 17.9762 39.8531 17.9753C39.854 17.9744 39.8549 17.9736 39.8557 17.9727C39.8566 17.9718 39.8575 17.971 39.8583 17.9701C39.8592 17.9692 39.8601 17.9684 39.8609 17.9675C39.8618 17.9666 39.8627 17.9658 39.8635 17.9649C39.8644 17.964 39.8653 17.9632 39.8661 17.9623C39.867 17.9614 39.8678 17.9606 39.8687 17.9597C39.8696 17.9589 39.8704 17.958 39.8713 17.9571C39.8722 17.9563 39.873 17.9554 39.8739 17.9545C39.8748 17.9537 39.8756 17.9528 39.8765 17.9519C39.8773 17.9511 39.8782 17.9502 39.8791 17.9494C39.8799 17.9485 39.8808 17.9476 39.8817 17.9468C39.8825 17.9459 39.8834 17.9451 39.8842 17.9442C39.8851 17.9433 39.886 17.9425 39.8868 17.9416C39.8877 17.9408 39.8885 17.9399 39.8894 17.939C39.8903 17.9382 39.8911 17.9373 39.892 17.9365C39.8928 17.9356 39.8937 17.9347 39.8945 17.9339C39.8954 17.933 39.8963 17.9322 39.8971 17.9313C39.898 17.9305 39.8988 17.9296 39.8997 17.9287C39.9005 17.9279 39.9014 17.927 39.9023 17.9262C39.9031 17.9253 39.904 17.9245 39.9048 17.9236C39.9057 17.9227 39.9065 17.9219 39.9074 17.921C39.9082 17.9202 39.9091 17.9193 39.91 17.9185C39.9108 17.9176 39.9117 17.9168 39.9125 17.9159C39.9134 17.9151 39.9142 17.9142 39.9151 17.9134C39.9159 17.9125 39.9168 17.9117 39.9176 17.9108C39.9185 17.91 39.9193 17.9091 39.9202 17.9082C39.921 17.9074 39.9219 17.9065 39.9227 17.9057C39.9236 17.9048 39.9244 17.904 39.9253 17.9031C39.9261 17.9023 39.927 17.9015 39.9278 17.9006C39.9287 17.8998 39.9295 17.8989 39.9304 17.8981C39.9312 17.8972 39.9321 17.8964 39.9329 17.8955C39.9338 17.8947 39.9346 17.8938 39.9354 17.893C39.9363 17.8921 39.9371 17.8913 39.938 17.8904C39.9388 17.8896 39.9397 17.8888 39.9405 17.8879C39.9414 17.8871 39.9422 17.8862 39.943 17.8854C39.9439 17.8845 39.9447 17.8837 39.9456 17.8829C39.9464 17.882 39.9473 17.8812 39.9481 17.8803C39.9489 17.8795 39.9498 17.8786 39.9506 17.8778C39.9515 17.877 39.9523 17.8761 39.9531 17.8753C39.954 17.8744 39.9548 17.8736 39.9557 17.8728C39.9565 17.8719 39.9573 17.8711 39.9582 17.8703C39.959 17.8694 39.9598 17.8686 39.9607 17.8677C39.9615 17.8669 39.9624 17.8661 39.9632 17.8652C39.964 17.8644 39.9649 17.8636 39.9657 17.8627C39.9665 17.8619 39.9674 17.8611 39.9682 17.8602C39.969 17.8594 39.9699 17.8586 39.9707 17.8577C39.9715 17.8569 39.9724 17.8561 39.9732 17.8552C39.974 17.8544 39.9749 17.8536 39.9757 17.8527C39.9765 17.8519 39.9774 17.8511 39.9782 17.8502C39.979 17.8494 39.9798 17.8486 39.9807 17.8478C39.9815 17.8469 39.9823 17.8461 39.9831 17.8453C39.984 17.8445 39.9848 17.8436 39.9856 17.8428C39.9865 17.842 39.9873 17.8411 39.9881 17.8403C39.9889 17.8395 39.9898 17.8387 39.9906 17.8378C39.9914 17.837 39.9922 17.8362 39.993 17.8354C39.9939 17.8346 39.9947 17.8337 39.9955 17.8329C39.9963 17.8321 39.9972 17.8313 39.998 17.8304C39.9988 17.8296 39.9996 17.8288 40.0004 17.828C40.0013 17.8272 40.0021 17.8264 40.0029 17.8255C40.0037 17.8247 40.0045 17.8239 40.0053 17.8231C40.0062 17.8223 40.007 17.8214 40.0078 17.8206C40.0086 17.8198 40.0094 17.819 40.0102 17.8182C40.0111 17.8174 40.0119 17.8166 40.0127 17.8157C40.0135 17.8149 40.0143 17.8141 40.0151 17.8133C40.0159 17.8125 40.0167 17.8117 40.0176 17.8109C40.0184 17.8101 40.0192 17.8093 40.02 17.8084C40.0208 17.8076 40.0216 17.8068 40.0224 17.806C40.0232 17.8052 40.024 17.8044 40.0248 17.8036C40.0256 17.8028 40.0264 17.802 40.0273 17.8012C40.0281 17.8004 40.0289 17.7996 40.0297 17.7988C40.0305 17.798 40.0313 17.7972 40.0321 17.7964C40.0329 17.7955 40.0337 17.7947 40.0345 17.7939C40.0353 17.7931 40.0361 17.7923 40.0369 17.7915C40.0377 17.7907 40.0385 17.7899 40.0393 17.7891C40.0401 17.7883 40.0409 17.7875 40.0417 17.7867C40.0425 17.786 40.0433 17.7852 40.0441 17.7844C40.0449 17.7836 40.0457 17.7828 40.0465 17.782C40.0472 17.7812 40.048 17.7804 40.0488 17.7796C40.0496 17.7788 40.0504 17.778 40.0512 17.7772C40.052 17.7764 40.0528 17.7756 40.0536 17.7748C40.0544 17.7741 40.0552 17.7733 40.056 17.7725C40.0567 17.7717 40.0575 17.7709 40.0583 17.7701C40.0591 17.7693 40.0599 17.7685 40.0607 17.7677C40.0615 17.767 40.0622 17.7662 40.063 17.7654C40.0638 17.7646 40.0646 17.7638 40.0654 17.763C40.0662 17.7623 40.0669 17.7615 40.0677 17.7607C40.0685 17.7599 40.0693 17.7591 40.0701 17.7584C40.0709 17.7576 40.0716 17.7568 40.0724 17.756C40.0732 17.7552 40.074 17.7545 40.0747 17.7537C40.0755 17.7529 40.0763 17.7521 40.0771 17.7514C40.0778 17.7506 40.0786 17.7498 40.0794 17.749C40.0802 17.7483 40.0809 17.7475 40.0817 17.7467C40.0825 17.7459 40.0833 17.7452 40.084 17.7444C40.0848 17.7436 40.0856 17.7429 40.0863 17.7421C40.0871 17.7413 40.0879 17.7406 40.0886 17.7398C40.0894 17.739 40.0902 17.7383 40.0909 17.7375C40.0917 17.7367 40.0925 17.736 40.0932 17.7352C40.094 17.7344 40.0948 17.7337 40.0955 17.7329C40.0963 17.7321 40.097 17.7314 40.0978 17.7306C40.0986 17.7299 40.0993 17.7291 40.1001 17.7283C40.1008 17.7276 40.1016 17.7268 40.1024 17.7261C40.1031 17.7253 40.1039 17.7246 40.1046 17.7238C40.1054 17.723 40.1061 17.7223 40.1069 17.7215C40.1076 17.7208 40.1084 17.72 40.1091 17.7193C40.1099 17.7185 40.1106 17.7178 40.1114 17.717C40.1121 17.7163 40.1129 17.7155 40.1136 17.7148C40.1144 17.714 40.1151 17.7133 40.1159 17.7125C40.1166 17.7118 40.1174 17.711 40.1181 17.7103C40.1189 17.7096 40.1196 17.7088 40.1204 17.7081C40.1211 17.7073 40.1218 17.7066 40.1226 17.7058C40.1233 17.7051 40.1241 17.7044 40.1248 17.7036C40.1255 17.7029 40.1263 17.7021 40.127 17.7014C40.1278 17.7007 40.1285 17.6999 40.1292 17.6992C40.13 17.6985 40.1307 17.6977 40.1314 17.697C40.1322 17.6963 40.1329 17.6955 40.1336 17.6948C40.1344 17.6941 40.1351 17.6933 40.1358 17.6926C40.1366 17.6919 40.1373 17.6911 40.138 17.6904C40.1387 17.6897 40.1395 17.689 40.1402 17.6882C40.1409 17.6875 40.1416 17.6868 40.1424 17.6861C40.1431 17.6853 40.1438 17.6846 40.1445 17.6839C40.1453 17.6832 40.146 17.6824 40.1467 17.6817C40.1474 17.681 40.1481 17.6803 40.1489 17.6796C40.1496 17.6789 40.1503 17.6781 40.151 17.6774C40.1517 17.6767 40.1524 17.676 40.1532 17.6753C40.1539 17.6746 40.1546 17.6738 40.1553 17.6731C40.156 17.6724 40.1567 17.6717 40.1574 17.671C40.1581 17.6703 40.1588 17.6696 40.1596 17.6689C40.1603 17.6682 40.161 17.6675 40.1617 17.6667C40.1624 17.666 40.1631 17.6653 40.1638 17.6646C40.1645 17.6639 40.1652 17.6632 40.1659 17.6625C40.1666 17.6618 40.1673 17.6611 40.168 17.6604C40.1687 17.6597 40.1694 17.659 40.1701 17.6583C40.1708 17.6576 40.1715 17.6569 40.1722 17.6562C40.1729 17.6555 40.1736 17.6548 40.1743 17.6541C40.175 17.6535 40.1757 17.6528 40.1764 17.6521C40.1771 17.6514 40.1777 17.6507 40.1784 17.65C40.1791 17.6493 40.1798 17.6486 40.1805 17.6479C40.1812 17.6472 40.1819 17.6466 40.1826 17.6459C40.1832 17.6452 40.1839 17.6445 40.1846 17.6438C40.1853 17.6431 40.186 17.6425 40.1867 17.6418C40.1873 17.6411 40.188 17.6404 40.1887 17.6397C40.1894 17.6391 40.1901 17.6384 40.1907 17.6377C40.1914 17.637 40.1921 17.6363 40.1928 17.6357C40.1934 17.635 40.1941 17.6343 40.1948 17.6337C40.1954 17.633 40.1961 17.6323 40.1968 17.6316C40.1975 17.631 40.1981 17.6303 40.1988 17.6296C40.1995 17.629 40.2001 17.6283 40.2008 17.6276C40.2015 17.627 40.2021 17.6263 40.2028 17.6256C40.2034 17.625 40.2041 17.6243 40.2048 17.6237C40.2054 17.623 40.2061 17.6223 40.2067 17.6217C40.2074 17.621 40.2081 17.6204 40.2087 17.6197C40.2094 17.6191 40.21 17.6184 40.2107 17.6177C40.2113 17.6171 40.212 17.6164 40.2126 17.6158C40.2133 17.6151 40.2139 17.6145 40.2146 17.6138C40.2152 17.6132 40.2159 17.6125 40.2165 17.6119C40.2172 17.6112 40.2178 17.6106 40.2185 17.61C40.2191 17.6093 40.2198 17.6087 40.2204 17.608C40.221 17.6074 40.2217 17.6067 40.2223 17.6061C40.223 17.6055 40.2236 17.6048 40.2242 17.6042C40.2249 17.6036 40.2255 17.6029 40.2261 17.6023C40.2268 17.6017 40.2274 17.601 40.228 17.6004C40.2287 17.5998 40.2293 17.5991 40.2299 17.5985C40.2306 17.5979 40.2312 17.5972 40.2318 17.5966C40.2324 17.596 40.2331 17.5954 40.2337 17.5947C40.2343 17.5941 40.2349 17.5935 40.2356 17.5929C40.2362 17.5922 40.2368 17.5916 40.2374 17.591C40.2381 17.5904 40.2387 17.5898 40.2393 17.5891C40.2399 17.5885 40.2405 17.5879 40.2411 17.5873C40.2417 17.5867 40.2424 17.5861 40.243 17.5855C40.2436 17.5848 40.2442 17.5842 40.2448 17.5836C40.2454 17.583 40.246 17.5824 40.2466 17.5818C40.2472 17.5812 40.2478 17.5806 40.2484 17.58C40.2491 17.5794 40.2497 17.5788 40.2503 17.5782C40.2509 17.5776 40.2515 17.577 40.2521 17.5764C40.2527 17.5758 40.2533 17.5752 40.2539 17.5746C40.2544 17.574 40.255 17.5734 40.2556 17.5728C40.2562 17.5722 40.2568 17.5716 40.2574 17.571C40.258 17.5704 40.2586 17.5698 40.2592 17.5692C40.2598 17.5687 40.2604 17.5681 40.2609 17.5675C40.2615 17.5669 40.2621 17.5663 40.2627 17.5657C40.2633 17.5651 40.2639 17.5646 40.2644 17.564C40.265 17.5634 40.2656 17.5628 40.2662 17.5622C40.2668 17.5617 40.2673 17.5611 40.2679 17.5605C40.2685 17.5599 40.2691 17.5594 40.2696 17.5588C40.2702 17.5582 40.2708 17.5576 40.2713 17.5571C40.2719 17.5565 40.2725 17.5559 40.2731 17.5554C40.2736 17.5548 40.2742 17.5542 40.2748 17.5537C40.2753 17.5531 40.2759 17.5526 40.2764 17.552C40.277 17.5514 40.2776 17.5509 40.2781 17.5503C40.2787 17.5498 40.2792 17.5492 40.2798 17.5486C40.2803 17.5481 40.2809 17.5475 40.2815 17.547C40.282 17.5464 40.2826 17.5459 40.2831 17.5453C40.2837 17.5448 40.2842 17.5442 40.2848 17.5437C40.2853 17.5431 40.2858 17.5426 40.2864 17.542C40.2869 17.5415 40.2875 17.5409 40.288 17.5404C40.2886 17.5399 40.2891 17.5393 40.2896 17.5388C40.2902 17.5382 40.2907 17.5377 40.2913 17.5372C40.2918 17.5366 40.2923 17.5361 40.2929 17.5356C40.2934 17.535 40.2939 17.5345 40.2944 17.534C40.295 17.5334 40.2955 17.5329 40.296 17.5324C40.2966 17.5319 40.2971 17.5313 40.2976 17.5308C40.2981 17.5303 40.2987 17.5298 40.2992 17.5292C40.2997 17.5287 40.3002 17.5282 40.3007 17.5277C40.3013 17.5272 40.3018 17.5267 40.3023 17.5261C40.3028 17.5256 40.3033 17.5251 40.3038 17.5246C40.3043 17.5241 40.3049 17.5236 40.3054 17.5231C40.3059 17.5226 40.3064 17.522 40.3069 17.5215C40.3074 17.521 40.3079 17.5205 40.3084 17.52C40.3089 17.5195 40.3094 17.519 40.3099 17.5185C40.3104 17.518 40.3109 17.5175 40.3114 17.517C40.3119 17.5165 40.3124 17.516 40.3129 17.5155C40.3134 17.515 40.3139 17.5146 40.3144 17.5141C40.3149 17.5136 40.3153 17.5131 40.3158 17.5126C40.3163 17.5121 40.3168 17.5116 40.3173 17.5111C40.3178 17.5106 40.3183 17.5102 40.3187 17.5097C40.3192 17.5092 40.3197 17.5087 40.3202 17.5082C40.3207 17.5078 40.3211 17.5073 40.3216 17.5068C40.3221 17.5063 40.3226 17.5059 40.323 17.5054C40.3235 17.5049 40.324 17.5044 40.3244 17.504C40.3249 17.5035 40.3254 17.503 40.3258 17.5026C40.3263 17.5021 40.3268 17.5016 40.3272 17.5012C40.3277 17.5007 40.3282 17.5003 40.3286 17.4998C40.3291 17.4993 40.3295 17.4989 40.33 17.4984C40.3305 17.498 40.3309 17.4975 40.3314 17.4971C40.3318 17.4966 40.3323 17.4962 40.3327 17.4957C40.3332 17.4953 40.3336 17.4948 40.3341 17.4944C40.3345 17.4939 40.335 17.4935 40.3354 17.493C40.3358 17.4926 40.3363 17.4921 40.3367 17.4917C40.3372 17.4913 40.3376 17.4908 40.338 17.4904C40.3385 17.49 40.3389 17.4895 40.3393 17.4891C40.3398 17.4887 40.3402 17.4882 40.3406 17.4878C40.3411 17.4874 40.3415 17.4869 40.3419 17.4865C40.3424 17.4861 40.3428 17.4857 40.3432 17.4852C40.3436 17.4848 40.344 17.4844 40.3445 17.484C40.3449 17.4835 40.3453 17.4831 40.3457 17.4827C40.3461 17.4823 40.3466 17.4819 40.347 17.4815C40.3474 17.481 40.3478 17.4806 40.3482 17.4802C40.3486 17.4798 40.349 17.4794 40.3494 17.479C40.3498 17.4786 40.3502 17.4782 40.3506 17.4778C40.351 17.4774 40.3514 17.477 40.3518 17.4766C40.3522 17.4762 40.3526 17.4758 40.353 17.4754C40.3534 17.475 40.3538 17.4746 40.3542 17.4742C40.3546 17.4738 40.355 17.4734 40.3554 17.473C40.3558 17.4726 40.3562 17.4723 40.3566 17.4719C40.3569 17.4715 40.3573 17.4711 40.3577 17.4707C40.3581 17.4703 40.3585 17.4699 40.3589 17.4696C40.3592 17.4692 40.3596 17.4688 40.36 17.4684C40.3604 17.4681 40.3607 17.4677 40.3611 17.4673C40.3615 17.4669 40.3619 17.4666 40.3622 17.4662C40.3626 17.4658 40.363 17.4655 40.3633 17.4651C40.3637 17.4647 40.364 17.4644 40.3644 17.464C40.3648 17.4637 40.3651 17.4633 40.3655 17.4629C40.3658 17.4626 40.3662 17.4622 40.3666 17.4619C40.3669 17.4615 40.3673 17.4612 40.3676 17.4608C40.368 17.4605 40.3683 17.4601 40.3687 17.4598C40.369 17.4594 40.3694 17.4591 40.3697 17.4587C40.37 17.4584 40.3704 17.458 40.3707 17.4577C40.3711 17.4574 40.3714 17.457 40.3717 17.4567C40.3721 17.4564 40.3724 17.456 40.3727 17.4557C40.3731 17.4554 40.3734 17.455 40.3737 17.4547C40.3741 17.4544 40.3744 17.454 40.3747 17.4537C40.375 17.4534 40.3754 17.4531 40.3757 17.4527C40.376 17.4524 40.3763 17.4521 40.3766 17.4518C40.377 17.4515 40.3773 17.4512 40.3776 17.4508C40.3779 17.4505 40.3782 17.4502 40.3785 17.4499C40.3788 17.4496 40.3791 17.4493 40.3794 17.449C40.3798 17.4487 40.3801 17.4484 40.3804 17.4481C40.3807 17.4478 40.381 17.4475 40.3813 17.4472C40.3816 17.4469 40.3819 17.4466 40.3822 17.4463C40.3825 17.446 40.3827 17.4457 40.383 17.4454C40.3833 17.4451 40.3836 17.4448 40.3839 17.4445C40.3842 17.4442 40.3845 17.4439 40.3848 17.4437C40.385 17.4434 40.3853 17.4431 40.3856 17.4428C40.3859 17.4425 40.3862 17.4423 40.3864 17.442C40.3867 17.4417 40.387 17.4414 40.3873 17.4412C40.3875 17.4409 40.3878 17.4406 40.3881 17.4404C40.3883 17.4401 40.3886 17.4398 40.3889 17.4396C40.3891 17.4393 40.3894 17.439 40.3897 17.4388C40.3899 17.4385 40.3902 17.4382 40.3904 17.438C40.3907 17.4377 40.391 17.4375 40.3912 17.4372C40.3915 17.437 40.3917 17.4367 40.392 17.4365C40.3922 17.4362 40.3925 17.436 40.3927 17.4357C40.3929 17.4355 40.3932 17.4352 40.3934 17.435C40.3937 17.4348 40.3939 17.4345 40.3941 17.4343C40.3944 17.434 40.3946 17.4338 40.3948 17.4336C40.3951 17.4333 40.3953 17.4331 40.3955 17.4329C40.3958 17.4327 40.396 17.4324 40.3962 17.4322C40.3964 17.432 40.3967 17.4318 40.3969 17.4315C40.3971 17.4313 40.3973 17.4311 40.3975 17.4309C40.3978 17.4307 40.398 17.4304 40.3982 17.4302C40.3984 17.43 40.3986 17.4298 40.3988 17.4296C40.399 17.4294 40.3992 17.4292 40.3994 17.429C40.3997 17.4288 40.3999 17.4286 40.4001 17.4284C40.4003 17.4282 40.4005 17.428 40.4007 17.4278C40.4008 17.4276 40.401 17.4274 40.4012 17.4272C40.4014 17.427 40.4016 17.4268 40.4018 17.4266C40.402 17.4264 40.4022 17.4262 40.4024 17.4261C40.4026 17.4259 40.4027 17.4257 40.4029 17.4255C40.4031 17.4253 40.4033 17.4252 40.4034 17.425C40.4036 17.4248 40.4038 17.4246 40.404 17.4245C40.4041 17.4243 40.4043 17.4241 40.4045 17.4239C40.4046 17.4238 40.4048 17.4236 40.405 17.4234C40.4051 17.4233 40.4053 17.4231 40.4055 17.423C40.4056 17.4228 40.4058 17.4226 40.4059 17.4225C40.4061 17.4223 40.4062 17.4222 40.4064 17.422C40.4065 17.4219 40.4067 17.4217 40.4068 17.4216C40.407 17.4214 40.4071 17.4213 40.4073 17.4212C40.4074 17.421 40.4076 17.4209 40.4077 17.4207C40.4078 17.4206 40.408 17.4205 40.4081 17.4203C40.4082 17.4202 40.4084 17.4201 40.4085 17.4199C40.4086 17.4198 40.4088 17.4197 40.4089 17.4195C40.409 17.4194 40.4091 17.4193 40.4093 17.4192C40.4094 17.4191 40.4095 17.4189 40.4096 17.4188C40.4097 17.4187 40.4098 17.4186 40.41 17.4185C40.4101 17.4184 40.4102 17.4183 40.4103 17.4181C40.4104 17.418 40.4105 17.4179 40.4106 17.4178C40.4107 17.4177 40.4108 17.4176 40.4109 17.4175C40.411 17.4174 40.4111 17.4173 40.4112 17.4172C40.4113 17.4171 40.4114 17.417 40.4115 17.417C40.4116 17.4169 40.4117 17.4168 40.4117 17.4167C40.4118 17.4166 40.4119 17.4165 40.412 17.4164C40.4121 17.4164 40.4122 17.4163 40.4122 17.4162C40.4123 17.4161 40.4124 17.416 40.4125 17.416C40.4125 17.4159 40.4126 17.4158 40.4127 17.4158C40.4127 17.4157 40.4128 17.4156 40.4129 17.4156C40.4129 17.4155 40.413 17.4154 40.413 17.4154C40.4131 17.4153 40.4132 17.4153 40.4132 17.4152C40.4133 17.4152 40.4133 17.4151 40.4134 17.415C40.4134 17.415 40.4135 17.415 40.4135 17.4149C40.4136 17.4149 40.4136 17.4148 40.4137 17.4148C40.4137 17.4147 40.4137 17.4147 40.4138 17.4147C40.4138 17.4146 40.4138 17.4146 40.4139 17.4146C40.4139 17.4145 40.4139 17.4145 40.414 17.4145C40.414 17.4144 40.414 17.4144 40.414 17.4144C40.4141 17.4144 40.4141 17.4143 40.4141 17.4143C40.4141 17.4143 40.4141 17.4143 40.4142 17.4143C40.4142 17.4143 40.4142 17.4143 40.4142 17.4142C40.4142 17.4142 40.4142 17.4142 40.4142 17.4142C40.4142 17.4142 40.4142 17.4142 39 16ZM9.38916 33.439L33.3892 10.2674L30.6108 7.38979L6.61084 30.5614L9.38916 33.439ZM30.5688 10.2256L37.5688 17.397L40.4312 14.603L33.4312 7.43161L30.5688 10.2256Z" fill="white"/>
<path d="M26 18L30 22" stroke="white" stroke-width="4" stroke-linecap="square" stroke-linejoin="round"/>
</svg>
