<svg width="48" height="48" fill="none" xmlns="http://www.w3.org/2000/svg"><path fill-rule="evenodd" clip-rule="evenodd" d="M31.648 27.246a12 12 0 1 0-15.298 0C9.972 29.492 6 34.994 6 40.5h4C10 35.96 14.71 30 24 30s14 5.96 14 10.5h4c0-5.506-3.968-11.008-10.352-13.254ZM18.343 12.343a8 8 0 1 0 11.314 11.314 8 8 0 0 0-11.314-11.314Z" fill="#EBEBEB"/><path d="M42 40.5H6v4h36v-4Z" fill="#EBEBEB"/><path d="M38 40.5C38 35.96 33.29 30 24 30s-14 5.96-14 10.5h28ZM16 18a8 8 0 1 1 16 0 8 8 0 0 1-16 0Z" fill="#7B7B7B"/></svg>