<svg width="48" height="49" viewBox="0 0 48 49" fill="none" xmlns="http://www.w3.org/2000/svg">
<circle cx="24" cy="18" r="10" fill="#7B7B7B" stroke="#EBEBEB" stroke-width="4"/>
<path d="M24 30C33.2191 30 37.9278 35.5898 37.9992 39.9007C38.0001 39.956 37.9552 40 37.9 40H10.1C10.0448 40 9.99991 39.956 10.0008 39.9007C10.0723 35.5898 14.7811 30 24 30Z" fill="#7B7B7B"/>
<path d="M40 41C40 37.5522 38.3143 34.2456 35.3137 31.8076C32.3131 29.3696 28.2435 28 24 28C19.7565 28 15.6869 29.3696 12.6863 31.8076C9.68571 34.2456 8 37.5522 8 41" stroke="#EBEBEB" stroke-width="4"/>
<path d="M6 42H42" stroke="#EBEBEB" stroke-width="4"/>
</svg>
