<svg width="48" height="48" viewBox="0 0 48 48" fill="none" xmlns="http://www.w3.org/2000/svg">
<path d="M24 6L25.4591 4.63212L24 3.07577L22.5409 4.63212L24 6ZM22 18V20H26V18H22ZM31.4591 11.0321L25.4591 4.63212L22.5409 7.36788L28.5409 13.7679L31.4591 11.0321ZM22.5409 4.63212L16.5409 11.0321L19.4591 13.7679L25.4591 7.36788L22.5409 4.63212ZM22 6V18H26V6H22Z" fill="#EBEBEB"/>
<path d="M42 24L43.3679 25.4591L44.9242 24L43.3679 22.5409L42 24ZM30 22L28 22L28 26L30 26L30 22ZM36.9679 31.4591L43.3679 25.4591L40.6321 22.5409L34.2321 28.5409L36.9679 31.4591ZM43.3679 22.5409L36.9679 16.5409L34.2321 19.4591L40.6321 25.4591L43.3679 22.5409ZM42 22L30 22L30 26L42 26L42 22Z" fill="#EBEBEB"/>
<path d="M24 42L25.4591 43.3679L24 44.9242L22.5409 43.3679L24 42ZM22 30V28H26V30H22ZM31.4591 36.9679L25.4591 43.3679L22.5409 40.6321L28.5409 34.2321L31.4591 36.9679ZM22.5409 43.3679L16.5409 36.9679L19.4591 34.2321L25.4591 40.6321L22.5409 43.3679ZM22 42V30H26V42H22Z" fill="#EBEBEB"/>
<path d="M6 24L4.63212 25.4591L3.07577 24L4.63212 22.5409L6 24ZM18 22L20 22L20 26L18 26L18 22ZM11.0321 31.4591L4.63212 25.4591L7.36788 22.5409L13.7679 28.5409L11.0321 31.4591ZM4.63212 22.5409L11.0321 16.5409L13.7679 19.4591L7.36788 25.4591L4.63212 22.5409ZM6 22L18 22L18 26L6 26L6 22Z" fill="#EBEBEB"/>
</svg>
