<svg width="48" height="48" viewBox="0 0 48 48" fill="none" xmlns="http://www.w3.org/2000/svg"><path d="m24 6 1.46-1.368L24 3.076l-1.46 1.556L24 6Zm-2 12v2h4v-2h-4Zm9.46-6.968-6-6.4-2.92 2.736 6 6.4 2.92-2.736Zm-8.92-6.4-6 6.4 2.92 2.736 6-6.4-2.92-2.736ZM22 6v12h4V6h-4ZM42 24l1.368 1.46L44.924 24l-1.556-1.46L42 24Zm-12-2h-2v4h2v-4Zm6.968 9.46 6.4-6-2.736-2.92-6.4 6 2.736 2.92Zm6.4-8.92-6.4-6-2.736 2.92 6.4 6 2.736-2.92ZM42 22H30v4h12v-4ZM24 42l1.46 1.368L24 44.924l-1.46-1.556L24 42Zm-2-12v-2h4v2h-4Zm9.46 6.968-6 6.4-2.92-2.736 6-6.4 2.92 2.736Zm-8.92 6.4-6-6.4 2.92-2.736 6 6.4-2.92 2.736ZM22 42V30h4v12h-4ZM6 24l-1.368 1.46L3.076 24l1.556-1.46L6 24Zm12-2h2v4h-2v-4Zm-6.968 9.46-6.4-6 2.736-2.92 6.4 6-2.736 2.92Zm-6.4-8.92 6.4-6 2.736 2.92-6.4 6-2.736-2.92ZM6 22h12v4H6v-4Z" fill="#EBEBEB"/></svg>