<svg width="48" height="48" viewBox="0 0 48 48" fill="none" xmlns="http://www.w3.org/2000/svg"><path fill-rule="evenodd" clip-rule="evenodd" d="M33.226 6c1.742 0 3.434.371 5.017 1.105 5.872 2.71 8.404 9.589 5.633 15.346-2.395 4.988-16.87 17.624-18.514 19.048-.355.311-.902.975-1.362 1.001l-1.363-1.01C20.992 40.076 6.52 27.43 4.122 22.443 1.354 16.694 3.883 9.815 9.756 7.105A11.866 11.866 0 0 1 14.773 6c3.619 0 7.016 1.649 9.226 4.359C26.202 7.649 29.6 6 33.226 6Zm-9.227 31.322c6.176-5.446 14.73-13.577 16.171-16.572 1.805-3.763.16-8.26-3.688-10.02a7.78 7.78 0 0 0-3.264-.717c-2.966 0-6.954 4.316-6.954 4.316l-2.272 2.382-2.275-2.382s-3.988-4.316-6.952-4.316c-1.133 0-2.23.242-3.266.717-3.83 1.77-5.475 6.266-3.67 10.02 1.441 2.995 9.994 11.126 16.17 16.572Z" fill="#EBEBEB"/><path d="M24 37.322c6.175-5.446 14.729-13.577 16.17-16.572 1.805-3.763.16-8.26-3.688-10.02a7.78 7.78 0 0 0-3.264-.717c-2.966 0-6.954 4.316-6.954 4.316l-2.272 2.382-2.275-2.382s-3.988-4.316-6.952-4.316c-1.133 0-2.23.242-3.266.717-3.83 1.77-5.475 6.266-3.67 10.02 1.441 2.995 9.994 11.126 16.17 16.572Z" fill="#7B7B7B"/></svg>