<svg width="48" height="48" viewBox="0 0 48 48" fill="none" xmlns="http://www.w3.org/2000/svg">
<path d="M37.5646 8.0291C36.0568 7.34571 34.4462 7 32.7867 7C29.333 7 26.0977 10.0645 24 12.589C21.895 10.0645 18.6586 7 15.2123 7C13.5527 7 11.9446 7.34571 10.4344 8.0291C4.84137 10.5536 2.43284 16.9614 5.06901 22.3159C7.35271 26.963 21.1357 38.7414 22.7022 40.0599L24 41C24 41 24.959 40.3574 25.2967 40.0679C26.8633 38.7414 40.6487 26.971 42.9299 22.324C45.5685 16.9614 43.1576 10.5536 37.5646 8.0291Z" fill="#A0A0A0" stroke="#EBEBEB" stroke-width="4"/>
</svg>
