<svg width="48" height="48" viewBox="0 0 48 48" fill="none" xmlns="http://www.w3.org/2000/svg">
<path d="M27.4018 7.01801H25.7018V7.1028L25.7102 7.18717L27.4018 7.01801ZM27.4018 7.018H29.1018V6.9331L29.0933 6.84863L27.4018 7.018ZM28.0418 13.418L29.7334 13.249L29.7334 13.2489L28.0418 13.418ZM28.0744 13.4315L29.1508 14.7473L29.1509 14.7473L28.0744 13.4315ZM33.2297 9.21354L34.3062 10.5293L34.3063 10.5292L33.2297 9.21354ZM33.2435 9.20556L33.1588 10.9034L33.1589 10.9035L33.2435 9.20556ZM33.2565 9.21488L32.0544 10.417L33.2565 9.21488ZM38.0392 13.9976L39.2413 12.7955L38.0392 13.9976ZM38.0486 14.0106L39.7464 13.9256V13.9256L38.0486 14.0106ZM38.0406 14.0244L36.7249 12.9479L36.7248 12.9479L38.0406 14.0244ZM33.3149 19.8003L34.517 21.0024L34.5769 20.9424L34.6306 20.8768L33.3149 19.8003ZM33.3149 19.8003L32.1128 18.5982L32.0528 18.6582L31.999 18.7239L33.3149 19.8003ZM33.3016 19.8249L34.8721 19.1741L34.872 19.1739L33.3016 19.8249ZM33.3284 19.8328L33.1592 21.5244L33.1592 21.5244L33.3284 19.8328ZM40.982 20.5982L40.8128 22.2898L40.8129 22.2898L40.982 20.5982ZM40.9974 20.6023L42.2577 19.4615L42.2576 19.4613L40.9974 20.6023ZM40.9997 27.3921L39.3151 27.1634L39.3149 27.1646L40.9997 27.3921ZM40.9974 27.3977L42.2577 28.5385L42.2581 28.5381L40.9974 27.3977ZM40.982 27.4018L41.1511 29.0934L41.1512 29.0934L40.982 27.4018ZM33.9557 28.1044L34.1248 29.796L34.1249 29.796L33.9557 28.1044ZM33.9289 28.1124L35.4993 28.7634L35.4994 28.7632L33.9289 28.1124ZM33.9422 28.137L32.6264 29.2133L32.6801 29.279L32.7402 29.3391L33.9422 28.137ZM33.9423 28.137L35.258 27.0605L35.2043 26.9949L35.1443 26.9349L33.9423 28.137ZM38.4135 33.6019L37.0978 34.6784L37.0979 34.6785L38.4135 33.6019ZM38.4122 33.6287L39.6143 34.8308L38.4122 33.6287ZM33.6295 38.4114L32.4274 37.2093L33.6295 38.4114ZM33.6027 38.4128L34.6793 37.0971L34.6792 37.097L33.6027 38.4128ZM28.1371 33.941L26.935 35.143L26.995 35.203L27.0606 35.2567L28.1371 33.941ZM28.1371 33.9409L29.3392 32.7389L29.2792 32.6788L29.2134 32.6251L28.1371 33.9409ZM28.1125 33.9277L28.7634 35.4981L28.7636 35.4981L28.1125 33.9277ZM28.1046 33.9544L29.7961 34.1236L29.7961 34.1235L28.1046 33.9544ZM27.4018 40.982L29.0934 41.1512L29.0934 41.1511L27.4018 40.982ZM20.6023 40.9974L19.4613 42.2576L19.4615 42.2577L20.6023 40.9974ZM20.5982 40.982L22.2898 40.8129L22.2898 40.8128L20.5982 40.982ZM19.8328 33.3284L21.5244 33.1592L21.5244 33.1592L19.8328 33.3284ZM19.8249 33.3016L19.1739 34.872L19.1741 34.8721L19.8249 33.3016ZM19.8003 33.3149L18.7239 31.999L18.6582 32.0528L18.5982 32.1128L19.8003 33.3149ZM19.8003 33.3149L20.8768 34.6306L20.9424 34.5769L21.0024 34.517L19.8003 33.3149ZM14.0244 38.0406L12.9479 36.7248L12.9479 36.7249L14.0244 38.0406ZM14.0106 38.0486L13.9256 39.7464H13.9256L14.0106 38.0486ZM13.9976 38.0392L12.7955 39.2413L13.9976 38.0392ZM9.21488 33.2565L10.417 32.0544L9.21488 33.2565ZM9.20556 33.2435L10.9035 33.1589L10.9034 33.1588L9.20556 33.2435ZM9.21354 33.2297L10.5292 34.3063L10.5293 34.3062L9.21354 33.2297ZM13.4315 28.0744L14.7473 29.1509L14.7473 29.1508L13.4315 28.0744ZM13.4181 28.0418L13.2489 29.7334L13.249 29.7334L13.4181 28.0418ZM7.01801 27.4018L7.18717 25.7102L7.1028 25.7018H7.01801V27.4018ZM7.018 27.4018L6.84863 29.0933L6.93311 29.1018H7.018V27.4018ZM7.00259 27.3977L5.74206 28.5383L5.74223 28.5385L7.00259 27.3977ZM7.00259 20.6023L5.74225 19.4615L5.74206 19.4617L7.00259 20.6023ZM7.01801 20.5982L7.18707 22.2898L7.18717 22.2898L7.01801 20.5982ZM14.0454 19.8955L14.2146 21.587L14.2146 21.587L14.0454 19.8955ZM14.0589 19.8629L15.3747 18.7864L15.3746 18.7864L14.0589 19.8629ZM9.58649 14.3966L8.27075 15.4731L8.27077 15.4731L9.58649 14.3966ZM9.57852 14.3828L7.88063 14.2981L7.88063 14.2981L9.57852 14.3828ZM14.3835 9.57774L14.4682 11.2756L14.4683 11.2756L14.3835 9.57774ZM14.3974 9.58572L13.3209 10.9014L13.3209 10.9015L14.3974 9.58572ZM19.863 14.0576L18.7865 15.3734L18.7865 15.3734L19.863 14.0576ZM19.8956 14.0441L21.5872 14.2133L21.5872 14.2133L19.8956 14.0441ZM20.5982 7.01801L22.2898 7.18717L22.2898 7.18707L20.5982 7.01801ZM20.6023 7.00259L19.4617 5.74206L19.4615 5.74225L20.6023 7.00259ZM27.3977 7.00259L28.5385 5.74223L28.5383 5.74206L27.3977 7.00259ZM29.1018 7.01801V7.018H25.7018V7.01801H29.1018ZM29.7334 13.2489L29.0934 6.84885L25.7102 7.18717L26.3502 13.5872L29.7334 13.2489ZM28.7004 11.8743C29.4631 12.1902 29.6554 12.8727 29.693 13.0219C29.7299 13.1688 29.7399 13.3145 29.7334 13.249L26.3502 13.5871C26.3503 13.5881 26.351 13.595 26.3518 13.6026C26.3526 13.6104 26.3542 13.6248 26.3565 13.6425C26.3598 13.6693 26.3704 13.7508 26.3957 13.8515C26.4355 14.0095 26.631 14.6972 27.3992 15.0154L28.7004 11.8743ZM26.9979 12.1158C26.9469 12.1575 27.057 12.0616 27.1869 11.9839C27.3189 11.905 27.9376 11.5583 28.7004 11.8743L27.3992 15.0154C28.1675 15.3337 28.7922 14.9855 28.9319 14.902C29.021 14.8487 29.086 14.7985 29.1073 14.782C29.1214 14.7711 29.1327 14.762 29.1388 14.7571C29.1447 14.7523 29.1501 14.7479 29.1508 14.7473L26.9979 12.1158ZM32.1532 7.89782L26.9979 12.1158L29.1509 14.7473L34.3062 10.5293L32.1532 7.89782ZM33.3283 7.50768C32.8464 7.48362 32.4961 7.66646 32.3381 7.76492C32.2646 7.81078 32.2105 7.85244 32.1899 7.86846C32.1775 7.87812 32.1677 7.88606 32.1625 7.89023C32.1576 7.89421 32.1532 7.89785 32.1531 7.89787L34.3063 10.5292C34.3127 10.524 34.2967 10.5372 34.2783 10.5515C34.2604 10.5655 34.2086 10.6054 34.1372 10.65C33.9836 10.7457 33.6368 10.9273 33.1588 10.9034L33.3283 7.50768ZM34.4586 8.0128C34.4586 8.01279 34.4545 8.00873 34.45 8.00428C34.4453 7.99963 34.4363 7.99075 34.4249 7.97991C34.4061 7.96194 34.3564 7.91511 34.2878 7.86218C34.1405 7.7485 33.8101 7.5317 33.3282 7.50767L33.1589 10.9035C32.6808 10.8796 32.3539 10.6644 32.2106 10.5539C32.144 10.5025 32.0965 10.4575 32.08 10.4419C32.0631 10.4258 32.0486 10.4111 32.0544 10.417L34.4586 8.0128ZM39.2413 12.7955L34.4586 8.0128L32.0544 10.417L36.8372 15.1997L39.2413 12.7955ZM39.7464 13.9256C39.7223 13.4439 39.5056 13.1137 39.392 12.9664C39.3391 12.8978 39.2923 12.8482 39.2743 12.8293C39.2634 12.8179 39.2546 12.8089 39.2499 12.8041C39.2454 12.7996 39.2414 12.7956 39.2413 12.7955L36.8372 15.1997C36.843 15.2055 36.8283 15.191 36.8122 15.1741C36.7965 15.1576 36.7516 15.11 36.7002 15.0434C36.5897 14.9002 36.3746 14.5734 36.3507 14.0956L39.7464 13.9256ZM39.3563 15.101C39.3563 15.1009 39.3599 15.0965 39.3639 15.0916C39.3681 15.0864 39.376 15.0766 39.3857 15.0641C39.4017 15.0436 39.4434 14.9895 39.4892 14.9159C39.5877 14.758 39.7706 14.4076 39.7464 13.9256L36.3507 14.0956C36.3267 13.6174 36.5084 13.2706 36.6041 13.117C36.6486 13.0456 36.6886 12.9938 36.7026 12.9758C36.7169 12.9574 36.7301 12.9415 36.7249 12.9479L39.3563 15.101ZM34.6306 20.8768L39.3563 15.1009L36.7248 12.9479L31.9991 18.7238L34.6306 20.8768ZM34.5169 21.0024L34.517 21.0024L32.1128 18.5982L32.1128 18.5982L34.5169 21.0024ZM34.872 19.1739C35.1881 19.9366 34.8416 20.5554 34.7626 20.6876C34.6849 20.8175 34.5889 20.9278 34.6307 20.8767L31.999 18.7239C31.9985 18.7246 31.994 18.73 31.9893 18.7359C31.9843 18.742 31.9752 18.7533 31.9643 18.7674C31.9478 18.7887 31.8976 18.8538 31.8443 18.943C31.7607 19.0829 31.4127 19.7076 31.7311 20.4758L34.872 19.1739ZM33.4975 18.1413C33.4319 18.1347 33.5777 18.1447 33.7244 18.1817C33.8737 18.2192 34.5561 18.4116 34.8721 19.1741L31.7311 20.4756C32.0493 21.2437 32.737 21.4392 32.895 21.4789C32.9957 21.5043 33.0772 21.5148 33.1039 21.5182C33.1216 21.5204 33.136 21.522 33.1438 21.5228C33.1513 21.5236 33.1583 21.5243 33.1592 21.5244L33.4975 18.1413ZM41.1511 18.9066L33.4975 18.1413L33.1592 21.5244L40.8128 22.2898L41.1511 18.9066ZM42.2576 19.4613C41.934 19.104 41.5574 18.9855 41.376 18.9435C41.2915 18.9239 41.2238 18.9151 41.1979 18.9119C41.1823 18.9099 41.1697 18.9086 41.1631 18.9079C41.1568 18.9072 41.1511 18.9066 41.151 18.9066L40.8129 22.2898C40.8211 22.2906 40.8005 22.2886 40.7774 22.2857C40.7547 22.2829 40.6899 22.2746 40.6079 22.2556C40.4314 22.2147 40.0582 22.0979 39.7373 21.7434L42.2576 19.4613ZM42.7 20.6181C42.7 20.6181 42.7 20.6123 42.7 20.606C42.6999 20.5994 42.6998 20.5867 42.6995 20.571C42.6988 20.5449 42.6968 20.4767 42.6857 20.3907C42.6619 20.2061 42.5816 19.8192 42.2577 19.4615L39.7371 21.7432C39.4159 21.3883 39.3368 21.005 39.3136 20.8254C39.3029 20.742 39.301 20.6766 39.3005 20.6538C39.2999 20.6305 39.3 20.6099 39.3 20.6181H42.7ZM42.7 27.3819V20.6181H39.3V27.3819H42.7ZM42.6842 27.6208C42.6965 27.5302 42.6987 27.4583 42.6994 27.4311C42.6998 27.4146 42.6999 27.4014 42.7 27.3945C42.7 27.3879 42.7 27.3819 42.7 27.3819H39.3C39.3 27.3905 39.2999 27.3688 39.3005 27.3443C39.3011 27.3205 39.3032 27.2514 39.3151 27.1634L42.6842 27.6208ZM42.2581 28.5381C42.5743 28.1886 42.6585 27.8109 42.6844 27.6195L39.3149 27.1646C39.3401 26.9781 39.4231 26.6039 39.7367 26.2572L42.2581 28.5381ZM41.1512 29.0934C41.1512 29.0934 41.1569 29.0928 41.1632 29.0921C41.1698 29.0914 41.1824 29.0901 41.198 29.0881C41.2239 29.0849 41.2916 29.0761 41.376 29.0565C41.5574 29.0145 41.9341 28.896 42.2577 28.5385L39.7371 26.2568C40.0581 25.9022 40.4314 25.7854 40.6079 25.7444C40.6899 25.7254 40.7547 25.7171 40.7773 25.7143C40.8004 25.7114 40.821 25.7094 40.8128 25.7102L41.1512 29.0934ZM34.1249 29.796L41.1511 29.0934L40.8128 25.7102L33.7866 26.4129L34.1249 29.796ZM35.4994 28.7632C35.1835 29.5257 34.5012 29.718 34.3519 29.7556C34.205 29.7925 34.0593 29.8025 34.1248 29.796L33.7867 26.4129C33.7857 26.4129 33.7787 26.4136 33.7712 26.4144C33.7634 26.4153 33.749 26.4168 33.7313 26.4191C33.7045 26.4225 33.623 26.433 33.5223 26.4583C33.3642 26.4981 32.6767 26.6936 32.3585 27.4616L35.4994 28.7632ZM35.2581 27.0606C35.2163 27.0096 35.3123 27.1198 35.39 27.2497C35.469 27.3818 35.8156 28.0007 35.4993 28.7634L32.3586 27.4614C32.04 28.2297 32.3881 28.8544 32.4717 28.9943C32.525 29.0834 32.5751 29.1485 32.5917 29.1698C32.6026 29.1839 32.6117 29.1952 32.6166 29.2013C32.6214 29.2072 32.6258 29.2126 32.6264 29.2133L35.2581 27.0606ZM35.1443 26.9349L35.1443 26.9349L32.7402 29.3391L32.7402 29.3391L35.1443 26.9349ZM39.7293 32.5254L35.258 27.0605L32.6265 29.2135L37.0978 34.6784L39.7293 32.5254ZM40.1194 33.7007C40.1435 33.2187 39.9606 32.8683 39.8621 32.7103C39.8163 32.6368 39.7746 32.5827 39.7586 32.5621C39.7489 32.5497 39.741 32.5398 39.7368 32.5346C39.7328 32.5297 39.7292 32.5253 39.7292 32.5253L37.0979 34.6785C37.1031 34.6849 37.0899 34.669 37.0756 34.6505C37.0616 34.6326 37.0216 34.5808 36.9771 34.5094C36.8813 34.3557 36.6997 34.0089 36.7236 33.5307L40.1194 33.7007ZM39.6143 34.8308C39.6143 34.8307 39.6184 34.8267 39.6228 34.8222C39.6275 34.8175 39.6364 34.8085 39.6472 34.7971C39.6652 34.7782 39.712 34.7285 39.7649 34.6599C39.8786 34.5126 40.0953 34.1823 40.1194 33.7007L36.7236 33.5307C36.7475 33.0529 36.9626 32.7261 37.0732 32.5828C37.1246 32.5162 37.1695 32.4687 37.1852 32.4522C37.2012 32.4353 37.2159 32.4208 37.2101 32.4266L39.6143 34.8308ZM34.8315 39.6135L39.6143 34.8308L37.2101 32.4266L32.4274 37.2093L34.8315 39.6135ZM33.7015 40.1186C34.1831 40.0945 34.5134 39.8779 34.6607 39.7642C34.7293 39.7112 34.779 39.6644 34.7978 39.6464C34.8092 39.6356 34.8182 39.6267 34.823 39.622C34.8275 39.6176 34.8315 39.6135 34.8315 39.6135L32.4274 37.2093C32.4216 37.2152 32.4361 37.2005 32.453 37.1844C32.4695 37.1687 32.517 37.1238 32.5836 37.0724C32.7269 36.9618 33.0537 36.7468 33.5315 36.7229L33.7015 40.1186ZM32.526 39.7284C32.5261 39.7284 32.5305 39.732 32.5354 39.736C32.5406 39.7402 32.5504 39.7481 32.5628 39.7578C32.5834 39.7738 32.6375 39.8155 32.7111 39.8614C32.8691 39.9599 33.2195 40.1427 33.7015 40.1186L33.5315 36.7229C34.0097 36.6989 34.3565 36.8805 34.5102 36.9763C34.5816 37.0209 34.6333 37.0609 34.6513 37.0748C34.6697 37.0892 34.6857 37.1023 34.6793 37.0971L32.526 39.7284ZM27.0606 35.2567L32.5262 39.7285L34.6792 37.097L29.2136 32.6252L27.0606 35.2567ZM26.935 35.143L26.935 35.143L29.3392 32.7389L29.3392 32.7389L26.935 35.143ZM28.7636 35.4981C28.0008 35.8143 27.382 35.4677 27.2499 35.3887C27.1199 35.311 27.0097 35.215 27.0608 35.2568L29.2134 32.6251C29.2127 32.6245 29.2073 32.6201 29.2014 32.6153C29.1953 32.6104 29.184 32.6013 29.1699 32.5904C29.1486 32.5739 29.0836 32.5237 28.9944 32.4704C28.8546 32.3868 28.2298 32.0387 27.4615 32.3573L28.7636 35.4981ZM29.7961 34.1235C29.8027 34.058 29.7927 34.2038 29.7557 34.3506C29.7181 34.4999 29.5258 35.1822 28.7634 35.4981L27.4617 32.3572C26.6937 32.6754 26.4982 33.3629 26.4585 33.521C26.4331 33.6217 26.4226 33.7032 26.4192 33.73C26.417 33.7477 26.4154 33.7621 26.4146 33.7699C26.4138 33.7775 26.4131 33.7844 26.413 33.7854L29.7961 34.1235ZM29.0934 41.1511L29.7961 34.1236L26.413 33.7853L25.7102 40.8128L29.0934 41.1511ZM28.5385 42.2577C28.896 41.9341 29.0145 41.5574 29.0565 41.376C29.0761 41.2916 29.0849 41.2239 29.0881 41.198C29.0901 41.1824 29.0914 41.1698 29.0921 41.1632C29.0928 41.1569 29.0934 41.1512 29.0934 41.1512L25.7103 40.8128C25.7094 40.821 25.7114 40.8004 25.7143 40.7773C25.7171 40.7547 25.7254 40.6899 25.7444 40.6079C25.7854 40.4314 25.9022 40.0581 26.2568 39.7371L28.5385 42.2577ZM27.3819 42.7C27.3819 42.7 27.3877 42.7 27.394 42.7C27.4007 42.6999 27.4133 42.6998 27.429 42.6995C27.4551 42.6988 27.5234 42.6968 27.6093 42.6857C27.7939 42.6619 28.1808 42.5816 28.5385 42.2577L26.2568 39.7371C26.6117 39.4159 26.995 39.3368 27.1746 39.3136C27.258 39.3029 27.3234 39.301 27.3462 39.3005C27.3695 39.2999 27.3901 39.3 27.3819 39.3V42.7ZM20.6181 42.7H27.3819V39.3H20.6181V42.7ZM19.4615 42.2577C19.8192 42.5816 20.2061 42.6619 20.3907 42.6857C20.4767 42.6968 20.5449 42.6988 20.571 42.6995C20.5867 42.6998 20.5994 42.6999 20.606 42.7C20.6123 42.7 20.6181 42.7 20.6181 42.7V39.3C20.6099 39.3 20.6305 39.2999 20.6539 39.3005C20.6766 39.301 20.742 39.3029 20.8254 39.3136C21.005 39.3368 21.3883 39.4159 21.7432 39.7371L19.4615 42.2577ZM18.9066 41.151C18.9066 41.1511 18.9072 41.1568 18.9079 41.1631C18.9086 41.1697 18.9099 41.1823 18.9119 41.1979C18.9151 41.2238 18.9239 41.2915 18.9435 41.376C18.9855 41.5574 19.104 41.934 19.4613 42.2576L21.7434 39.7373C22.0979 40.0582 22.2147 40.4314 22.2556 40.6079C22.2746 40.6899 22.2829 40.7547 22.2858 40.7774C22.2886 40.8005 22.2906 40.8211 22.2898 40.8129L18.9066 41.151ZM18.1413 33.4975L18.9066 41.1511L22.2898 40.8128L21.5244 33.1592L18.1413 33.4975ZM19.1741 34.8721C18.4116 34.5561 18.2192 33.8737 18.1817 33.7244C18.1448 33.5777 18.1347 33.4319 18.1413 33.4975L21.5244 33.1592C21.5243 33.1583 21.5236 33.1513 21.5228 33.1438C21.522 33.136 21.5204 33.1216 21.5182 33.1039C21.5148 33.0772 21.5043 32.9957 21.4789 32.895C21.4392 32.7369 21.2437 32.0493 20.4756 31.731L19.1741 34.8721ZM20.8767 34.6307C20.9278 34.5889 20.8175 34.6849 20.6876 34.7626C20.5554 34.8416 19.9366 35.1881 19.1739 34.872L20.4758 31.7311C19.7076 31.4127 19.0829 31.7607 18.943 31.8443C18.8538 31.8976 18.7887 31.9478 18.7674 31.9643C18.7533 31.9752 18.742 31.9843 18.7359 31.9893C18.73 31.994 18.7246 31.9984 18.7239 31.999L20.8767 34.6307ZM21.0024 34.517L21.0024 34.5169L18.5982 32.1128L18.5982 32.1128L21.0024 34.517ZM15.1009 39.3563L20.8768 34.6306L18.7238 31.9991L12.9479 36.7248L15.1009 39.3563ZM13.9256 39.7464C14.4076 39.7706 14.758 39.5877 14.9159 39.4892C14.9895 39.4434 15.0436 39.4017 15.0641 39.3857C15.0765 39.376 15.0864 39.3681 15.0916 39.3639C15.0965 39.3599 15.1009 39.3563 15.101 39.3563L12.9479 36.7249C12.9415 36.7301 12.9574 36.7169 12.9758 36.7026C12.9938 36.6886 13.0456 36.6486 13.117 36.6041C13.2706 36.5084 13.6174 36.3267 14.0956 36.3507L13.9256 39.7464ZM12.7955 39.2413C12.7956 39.2414 12.7996 39.2454 12.8041 39.2499C12.8088 39.2546 12.8179 39.2634 12.8293 39.2743C12.8482 39.2923 12.8978 39.3391 12.9664 39.392C13.1137 39.5056 13.4439 39.7223 13.9256 39.7464L14.0956 36.3507C14.5734 36.3746 14.9002 36.5897 15.0434 36.7002C15.11 36.7516 15.1576 36.7965 15.1741 36.8122C15.191 36.8283 15.2055 36.843 15.1997 36.8372L12.7955 39.2413ZM8.0128 34.4586L12.7955 39.2413L15.1997 36.8372L10.417 32.0544L8.0128 34.4586ZM7.50767 33.3282C7.5317 33.8101 7.74847 34.1405 7.86216 34.2878C7.91509 34.3564 7.96192 34.406 7.9799 34.4249C7.99074 34.4363 7.99962 34.4453 8.00428 34.45C8.00872 34.4545 8.01278 34.4586 8.0128 34.4586L10.417 32.0544C10.4111 32.0486 10.4258 32.0631 10.4419 32.08C10.4576 32.0965 10.5025 32.144 10.5539 32.2106C10.6645 32.3539 10.8796 32.6809 10.9035 33.1589L7.50767 33.3282ZM7.89789 32.1531C7.89787 32.1531 7.89424 32.1576 7.89025 32.1625C7.88608 32.1676 7.87814 32.1775 7.86848 32.1899C7.85245 32.2105 7.81079 32.2646 7.76493 32.3381C7.66646 32.496 7.48362 32.8464 7.50768 33.3283L10.9034 33.1588C10.9273 33.6368 10.7457 33.9836 10.6499 34.1372C10.6054 34.2086 10.5655 34.2604 10.5515 34.2784C10.5371 34.2968 10.524 34.3127 10.5292 34.3063L7.89789 32.1531ZM12.1158 26.9979L7.89782 32.1532L10.5293 34.3062L14.7473 29.1509L12.1158 26.9979ZM11.8743 28.7004C11.5583 27.9376 11.905 27.3189 11.9839 27.1869C12.0616 27.057 12.1575 26.9469 12.1158 26.9979L14.7473 29.1508C14.7479 29.1501 14.7523 29.1447 14.7571 29.1388C14.762 29.1327 14.7711 29.1214 14.782 29.1073C14.7985 29.086 14.8487 29.021 14.902 28.9318C14.9855 28.7922 15.3337 28.1675 15.0154 27.3992L11.8743 28.7004ZM13.249 29.7334C13.3145 29.7399 13.1688 29.7299 13.0219 29.6929C12.8727 29.6554 12.1902 29.463 11.8743 28.7004L15.0154 27.3992C14.6972 26.631 14.0095 26.4355 13.8515 26.3957C13.7508 26.3704 13.6693 26.3598 13.6425 26.3564C13.6248 26.3542 13.6104 26.3526 13.6026 26.3518C13.595 26.351 13.5881 26.3503 13.5871 26.3502L13.249 29.7334ZM6.84885 29.0934L13.2489 29.7334L13.5872 26.3502L7.18717 25.7102L6.84885 29.0934ZM7.018 29.1018H7.01801V25.7018H7.018V29.1018ZM5.74223 28.5385C6.06584 28.896 6.44259 29.0144 6.62376 29.0565C6.70815 29.0761 6.77583 29.0849 6.80174 29.0881C6.81735 29.09 6.82994 29.0914 6.83656 29.0921C6.84287 29.0928 6.84858 29.0933 6.84863 29.0933L7.18737 25.7103C7.17922 25.7094 7.19979 25.7114 7.22296 25.7143C7.24557 25.7171 7.31042 25.7255 7.39235 25.7445C7.56859 25.7854 7.94192 25.9022 8.26294 26.2568L5.74223 28.5385ZM5.3 27.3819C5.3 27.3819 5.3 27.3877 5.30003 27.394C5.30006 27.4006 5.30016 27.4133 5.30055 27.429C5.30118 27.4551 5.30319 27.5233 5.31427 27.6092C5.33805 27.7937 5.41836 28.1806 5.74206 28.5383L8.26311 26.257C8.58423 26.6119 8.66325 26.9952 8.68638 27.1746C8.69713 27.258 8.69898 27.3234 8.69954 27.3462C8.7001 27.3695 8.7 27.3901 8.7 27.3819H5.3ZM5.3 20.6181V27.3819H8.7V20.6181H5.3ZM5.74206 19.4617C5.41835 19.8194 5.33804 20.2063 5.31427 20.3908C5.30319 20.4767 5.30118 20.5449 5.30054 20.571C5.30016 20.5867 5.30006 20.5994 5.30003 20.606C5.3 20.6123 5.3 20.6181 5.3 20.6181H8.7C8.7 20.6099 8.7001 20.6305 8.69954 20.6538C8.69898 20.6766 8.69713 20.7419 8.68638 20.8254C8.66325 21.0048 8.58424 21.3881 8.26311 21.743L5.74206 19.4617ZM6.84895 18.9066C6.84891 18.9066 6.84319 18.9072 6.83689 18.9079C6.83028 18.9086 6.8177 18.9099 6.80209 18.9119C6.7762 18.9151 6.70852 18.9239 6.62412 18.9434C6.44297 18.9854 6.06601 19.1038 5.74225 19.4615L8.26292 21.7432C7.94175 22.098 7.56822 22.2147 7.39199 22.2556C7.31006 22.2746 7.24521 22.2829 7.22262 22.2858C7.19947 22.2886 7.17891 22.2906 7.18707 22.2898L6.84895 18.9066ZM13.8763 18.2039L6.84885 18.9066L7.18717 22.2898L14.2146 21.587L13.8763 18.2039ZM12.5016 19.237C12.8175 18.4742 13.5001 18.2818 13.6494 18.2443C13.7961 18.2074 13.9419 18.1973 13.8763 18.2039L14.2146 21.587C14.2155 21.5869 14.2225 21.5862 14.23 21.5854C14.2378 21.5846 14.2522 21.5831 14.2699 21.5808C14.2966 21.5774 14.3781 21.5669 14.4788 21.5416C14.6368 21.5018 15.3246 21.3063 15.6428 20.538L12.5016 19.237ZM12.7432 20.9394C12.785 20.9905 12.689 20.8803 12.6113 20.7504C12.5323 20.6183 12.1857 19.9997 12.5016 19.237L15.6428 20.538C15.961 19.7697 15.6129 19.1452 15.5293 19.0054C15.476 18.9162 15.4259 18.8512 15.4094 18.8299C15.3984 18.8158 15.3894 18.8045 15.3844 18.7984C15.3797 18.7925 15.3752 18.7871 15.3747 18.7864L12.7432 20.9394ZM8.27077 15.4731L12.7432 20.9394L15.3746 18.7864L10.9022 13.3201L8.27077 15.4731ZM7.88063 14.2981C7.8566 14.78 8.03942 15.1302 8.13783 15.2881C8.18367 15.3616 8.22532 15.4157 8.24134 15.4363C8.251 15.4487 8.25893 15.4585 8.26311 15.4637C8.26709 15.4686 8.27073 15.473 8.27075 15.4731L10.9022 13.3201C10.897 13.3137 10.9102 13.3297 10.9245 13.3481C10.9385 13.366 10.9784 13.4178 11.0229 13.4892C11.1187 13.6427 11.3002 13.9894 11.2764 14.4674L7.88063 14.2981ZM8.38575 13.1677C8.38573 13.1677 8.38167 13.1718 8.37722 13.1763C8.37255 13.181 8.36367 13.19 8.35283 13.2014C8.33484 13.2203 8.28803 13.2699 8.2351 13.3385C8.12148 13.4858 7.90466 13.8162 7.88063 14.2981L11.2764 14.4674C11.2526 14.9455 11.0374 15.2725 10.9268 15.4157C10.8754 15.4823 10.8305 15.5298 10.8148 15.5463C10.7988 15.5632 10.7841 15.5777 10.7899 15.5719L8.38575 13.1677ZM13.1685 8.38498L8.38575 13.1677L10.7899 15.5719L15.5726 10.7891L13.1685 8.38498ZM14.2988 7.87985C13.817 7.90389 13.4866 8.12068 13.3393 8.23431C13.2707 8.28724 13.2211 8.33405 13.2022 8.35204C13.1908 8.36289 13.1818 8.37177 13.1771 8.37644C13.1726 8.38089 13.1685 8.38495 13.1685 8.38498L15.5726 10.7891C15.5785 10.7833 15.5639 10.798 15.547 10.8141C15.5306 10.8298 15.483 10.8747 15.4164 10.9261C15.2732 11.0366 14.9463 11.2518 14.4682 11.2756L14.2988 7.87985ZM15.4739 8.27C15.4739 8.26998 15.4694 8.26634 15.4645 8.26236C15.4593 8.25819 15.4495 8.25025 15.4371 8.24059C15.4165 8.22457 15.3624 8.18293 15.2889 8.13708C15.131 8.03866 14.7807 7.8558 14.2988 7.87986L14.4683 11.2756C13.9902 11.2995 13.6435 11.1179 13.4899 11.0222C13.4185 10.9777 13.3668 10.9377 13.3488 10.9237C13.3304 10.9094 13.3145 10.8962 13.3209 10.9014L15.4739 8.27ZM20.9395 12.7419L15.4739 8.27L13.3209 10.9015L18.7865 15.3734L20.9395 12.7419ZM19.2371 12.5003C19.9998 12.1844 20.6184 12.531 20.7505 12.61C20.8804 12.6877 20.9906 12.7837 20.9395 12.7419L18.7865 15.3734C18.7872 15.3739 18.7927 15.3784 18.7985 15.3831C18.8046 15.3881 18.8159 15.3972 18.83 15.4081C18.8513 15.4246 18.9164 15.4747 19.0055 15.5281C19.1453 15.6117 19.7699 15.9597 20.5381 15.6415L19.2371 12.5003ZM18.204 13.875C18.1975 13.9406 18.2075 13.7949 18.2444 13.6481C18.282 13.4989 18.4743 12.8162 19.2371 12.5003L20.5381 15.6415C21.3064 15.3233 21.502 14.6355 21.5417 14.4775C21.567 14.3768 21.5776 14.2953 21.5809 14.2686C21.5832 14.2509 21.5848 14.2365 21.5856 14.2287C21.5864 14.2212 21.5871 14.2142 21.5872 14.2133L18.204 13.875ZM18.9066 6.84885L18.204 13.875L21.5872 14.2133L22.2898 7.18717L18.9066 6.84885ZM19.4615 5.74225C19.1038 6.06601 18.9854 6.44297 18.9434 6.62412C18.9239 6.70852 18.9151 6.7762 18.9119 6.80209C18.9099 6.8177 18.9086 6.83028 18.9079 6.83689C18.9072 6.84319 18.9066 6.84891 18.9066 6.84895L22.2898 7.18707C22.2906 7.17891 22.2886 7.19947 22.2858 7.22262C22.2829 7.24521 22.2746 7.31006 22.2556 7.39199C22.2147 7.56822 22.098 7.94175 21.7432 8.26292L19.4615 5.74225ZM20.6181 5.3C20.6181 5.3 20.6123 5.3 20.606 5.30003C20.5994 5.30006 20.5867 5.30016 20.571 5.30054C20.5449 5.30118 20.4767 5.30319 20.3908 5.31427C20.2063 5.33804 19.8194 5.41835 19.4617 5.74206L21.743 8.26311C21.3881 8.58424 21.0048 8.66325 20.8254 8.68638C20.7419 8.69713 20.6766 8.69898 20.6538 8.69954C20.6305 8.7001 20.6099 8.7 20.6181 8.7V5.3ZM27.3819 5.3H20.6181V8.7H27.3819V5.3ZM28.5383 5.74206C28.1806 5.41836 27.7937 5.33805 27.6093 5.31427C27.5233 5.30319 27.4551 5.30118 27.429 5.30055C27.4133 5.30016 27.4006 5.30006 27.394 5.30003C27.3877 5.3 27.3819 5.3 27.3819 5.3V8.7C27.3901 8.7 27.3695 8.7001 27.3462 8.69954C27.3234 8.69898 27.2581 8.69713 27.1746 8.68638C26.9952 8.66325 26.6119 8.58423 26.257 8.26311L28.5383 5.74206ZM29.0933 6.84863C29.0933 6.84858 29.0928 6.84286 29.0921 6.83655C29.0914 6.82994 29.0901 6.81735 29.0881 6.80173C29.0849 6.77583 29.0761 6.70815 29.0565 6.62375C29.0144 6.44258 28.896 6.06583 28.5385 5.74223L26.2568 8.26294C25.9022 7.94192 25.7854 7.5686 25.7445 7.39236C25.7255 7.31043 25.7171 7.24558 25.7143 7.22296C25.7114 7.19979 25.7094 7.17922 25.7103 7.18737L29.0933 6.84863ZM27.3 24C27.3 25.8225 25.8225 27.3 24 27.3V30.7C27.7003 30.7 30.7 27.7003 30.7 24H27.3ZM24 20.7C25.8225 20.7 27.3 22.1775 27.3 24H30.7C30.7 20.2997 27.7003 17.3 24 17.3V20.7ZM20.7 24C20.7 22.1775 22.1775 20.7 24 20.7V17.3C20.2997 17.3 17.3 20.2997 17.3 24H20.7ZM24 27.3C22.1775 27.3 20.7 25.8225 20.7 24H17.3C17.3 27.7003 20.2997 30.7 24 30.7V27.3Z" fill="#EBEBEB"/>
</svg>
