<svg width="62" height="62" viewBox="0 0 62 62" fill="none" xmlns="http://www.w3.org/2000/svg"><g filter="url(#a)"><circle cx="31" cy="25" r="22.4" fill="#7B7B7B"/></g><path d="m32.527 34.87 1.47 1.356 2.712-2.939-1.47-1.357-2.712 2.94ZM25 25.2l-1.357-1.47a2 2 0 0 0 0 2.94L25 25.2Zm10.24-6.73 1.47-1.357-2.714-2.94-1.47 1.357 2.714 2.94Zm0 13.46-8.883-8.2-2.714 2.94 8.884 8.2 2.713-2.94Zm-8.883-5.26 8.883-8.2-2.713-2.94-8.884 8.2 2.714 2.94Z" fill="#EBEBEB"/><defs><filter id="a" x=".6" y=".6" width="60.8" height="60.8" filterUnits="userSpaceOnUse" color-interpolation-filters="sRGB"><feFlood flood-opacity="0" result="BackgroundImageFix"/><feColorMatrix in="SourceAlpha" values="0 0 0 0 0 0 0 0 0 0 0 0 0 0 0 0 0 0 127 0" result="hardAlpha"/><feOffset dy="6"/><feGaussianBlur stdDeviation="4"/><feComposite in2="hardAlpha" operator="out"/><feColorMatrix values="0 0 0 0 0 0 0 0 0 0 0 0 0 0 0 0 0 0 0.2 0"/><feBlend in2="BackgroundImageFix" result="effect1_dropShadow_3072_7263"/><feBlend in="SourceGraphic" in2="effect1_dropShadow_3072_7263" result="shape"/></filter></defs></svg>