<svg width="375" height="159" viewBox="0 0 375 159" fill="none" xmlns="http://www.w3.org/2000/svg">
<g filter="url(#filter0_f_2560_5396)">
<path d="M316.273 72.6364C316.273 80.0169 256.727 86 183.273 86C109.819 86 50.2727 80.0169 50.2727 72.6364C50.2727 65.2559 109.819 59.2728 183.273 59.2728C256.727 59.2728 316.273 65.2559 316.273 72.6364Z" fill="#2067F5" fill-opacity="0.5"/>
</g>
<rect width="84" height="11.4545" transform="matrix(1 0 0 -1 166.091 92.3636)" fill="#2067F5" fill-opacity="0.4"/>
<path d="M177.985 91.9946C176.572 91.9946 175.299 91.6955 174.166 91.0973C173.046 90.4991 172.162 89.6718 171.513 88.6155C170.876 87.5591 170.558 86.3691 170.558 85.0455C170.558 83.7218 170.876 82.5318 171.513 81.4755C172.162 80.4191 173.046 79.5918 174.166 78.9937C175.299 78.3955 176.572 78.0964 177.985 78.0964C179.397 78.0964 180.664 78.3955 181.784 78.9937C182.916 79.5918 183.801 80.4191 184.437 81.4755C185.086 82.5318 185.411 83.7218 185.411 85.0455C185.411 86.3691 185.086 87.5591 184.437 88.6155C183.801 89.6718 182.916 90.4991 181.784 91.0973C180.664 91.6955 179.397 91.9946 177.985 91.9946ZM177.985 88.8637C178.659 88.8637 179.27 88.7046 179.817 88.3864C180.365 88.0682 180.797 87.6227 181.115 87.05C181.434 86.4646 181.593 85.7964 181.593 85.0455C181.593 84.2946 181.434 83.6327 181.115 83.06C180.797 82.4746 180.365 82.0227 179.817 81.7046C179.27 81.3864 178.659 81.2273 177.985 81.2273C177.31 81.2273 176.699 81.3864 176.152 81.7046C175.605 82.0227 175.172 82.4746 174.854 83.06C174.535 83.6327 174.376 84.2946 174.376 85.0455C174.376 85.7964 174.535 86.4646 174.854 87.05C175.172 87.6227 175.605 88.0682 176.152 88.3864C176.699 88.7046 177.31 88.8637 177.985 88.8637ZM195.332 88.1764H193.271V91.7273H189.491V78.3637H195.6C196.809 78.3637 197.859 78.5673 198.75 78.9746C199.641 79.3691 200.328 79.9418 200.812 80.6927C201.295 81.4309 201.537 82.3027 201.537 83.3082C201.537 84.2755 201.308 85.1218 200.85 85.8473C200.404 86.56 199.762 87.12 198.922 87.5273L201.804 91.7273H197.757L195.332 88.1764ZM197.719 83.3082C197.719 82.6846 197.522 82.2009 197.127 81.8573C196.732 81.5137 196.147 81.3418 195.371 81.3418H193.271V85.2555H195.371C196.147 85.2555 196.732 85.09 197.127 84.7591C197.522 84.4155 197.719 83.9318 197.719 83.3082ZM218.437 78.3637V91.7273H215.325L209.426 84.6064V91.7273H205.722V78.3637H208.834L214.733 85.4846V78.3637L218.437 78.3637ZM233.932 88.8064V91.7273L223.203 91.7273V78.3637H233.684V81.2846H226.945V83.5373H232.882V86.3627H226.945V88.8064H233.932ZM243.972 88.1764H241.91V91.7273H238.13V78.3637H244.239C245.448 78.3637 246.498 78.5673 247.389 78.9746C248.28 79.3691 248.967 79.9418 249.451 80.6927C249.935 81.4309 250.176 82.3027 250.176 83.3082C250.176 84.2755 249.947 85.1218 249.489 85.8473C249.044 86.56 248.401 87.12 247.561 87.5273L250.444 91.7273H246.396L243.972 88.1764ZM246.358 83.3082C246.358 82.6846 246.161 82.2009 245.766 81.8573C245.372 81.5137 244.786 81.3418 244.01 81.3418H241.91V85.2555H244.01C244.786 85.2555 245.372 85.09 245.766 84.7591C246.161 84.4155 246.358 83.9318 246.358 83.3082Z" fill="#EBEBEB"/>
<rect width="48.3636" height="11.4545" transform="matrix(-1.0237e-08 1 1 1.0237e-08 124.091 44)" fill="#2067F5"/>
<path d="M150.971 72.9188L143 64H158.942L150.971 72.9188ZM150.971 72.9188V80.5323M150.971 80.5323H146.985M150.971 80.5323H154.956" stroke="#EBEBEB" stroke-width="2" stroke-linecap="square"/>
<path d="M151.018 72.0182L157.509 64.7636H151.166H144.527L151.018 72.0182Z" fill="#2067F5"/>
<rect width="42" height="11.4545" transform="matrix(1 0 0 -1 124.091 55.4543)" fill="#0A84FF"/>
<rect width="42" height="11.4545" transform="matrix(1 0 0 -1 124.091 92.3636)" fill="#2067F5"/>
<rect x="124.091" y="80.9091" width="11.4545" height="11.4545" fill="#0A84FF"/>
<defs>
<filter id="filter0_f_2560_5396" x="-22.2727" y="-13.2726" width="411.091" height="171.818" filterUnits="userSpaceOnUse" color-interpolation-filters="sRGB">
<feFlood flood-opacity="0" result="BackgroundImageFix"/>
<feBlend mode="normal" in="SourceGraphic" in2="BackgroundImageFix" result="shape"/>
<feGaussianBlur stdDeviation="36.2727" result="effect1_foregroundBlur_2560_5396"/>
</filter>
</defs>
</svg>
