<?xml version="1.0" standalone="no"?>
<!DOCTYPE svg PUBLIC "-//W3C//DTD SVG 20010904//EN"
 "http://www.w3.org/TR/2001/REC-SVG-20010904/DTD/svg10.dtd">
<svg version="1.0" xmlns="http://www.w3.org/2000/svg"
 width="560.000000pt" height="560.000000pt" viewBox="0 0 560.000000 560.000000"
 preserveAspectRatio="xMidYMid meet">
<metadata>
Created by potrace 1.14, written by Peter Selinger 2001-2017
</metadata>
<g transform="translate(0.000000,560.000000) scale(0.100000,-0.100000)"
fill="#000000" stroke="none">
<path d="M2759 5246 c-2 -2 -56 -7 -119 -10 -142 -9 -183 -12 -240 -21 -25 -4
-56 -8 -70 -10 -14 -2 -25 -4 -25 -5 0 -2 -19 -6 -65 -14 -19 -3 -69 -14 -109
-25 -41 -11 -79 -18 -83 -15 -4 3 -8 1 -8 -4 0 -8 -55 -25 -64 -19 -1 1 -10
-4 -19 -12 -10 -7 -17 -10 -17 -6 0 4 -6 3 -12 -2 -14 -11 -68 -27 -80 -25 -5
1 -8 -3 -8 -8 0 -6 -7 -10 -15 -10 -19 0 -198 -82 -207 -95 -4 -5 -8 -7 -8 -2
0 4 -17 -3 -37 -16 -21 -13 -48 -27 -60 -31 -13 -4 -23 -12 -23 -17 0 -5 -6
-9 -12 -9 -16 0 -182 -108 -258 -168 -125 -97 -155 -123 -270 -236 -52 -51
-74 -76 -150 -166 -30 -35 -63 -73 -72 -84 -10 -11 -18 -24 -18 -29 0 -4 -6
-14 -12 -21 -7 -8 -20 -24 -28 -36 -8 -12 -19 -28 -25 -34 -5 -6 -19 -27 -29
-46 -11 -19 -22 -37 -26 -40 -21 -17 -200 -372 -200 -398 0 -5 -7 -23 -15 -40
-9 -17 -18 -39 -20 -49 -2 -10 -8 -31 -15 -48 -21 -55 -57 -187 -75 -275 -29
-140 -37 -194 -51 -350 -4 -49 -3 -359 1 -395 2 -16 6 -57 10 -90 3 -33 8 -73
11 -90 3 -16 8 -41 10 -55 2 -14 6 -34 8 -45 2 -11 7 -35 10 -54 22 -115 99
-357 146 -458 11 -24 20 -46 20 -49 0 -7 89 -184 116 -231 42 -73 120 -191
151 -229 18 -23 33 -45 33 -49 0 -4 8 -15 18 -24 9 -9 37 -41 62 -71 67 -83
328 -340 346 -340 2 0 13 -8 24 -18 42 -37 57 -48 100 -77 25 -16 50 -34 55
-38 64 -50 279 -168 407 -223 122 -52 285 -110 338 -120 14 -3 34 -8 45 -11
11 -4 22 -7 25 -8 3 -1 19 -4 35 -8 44 -11 77 -18 100 -21 11 -2 36 -6 55 -10
52 -9 109 -17 165 -23 74 -9 440 -9 515 0 36 4 85 10 109 12 24 3 51 7 60 10
9 2 33 7 55 11 35 5 66 11 91 18 6 1 26 6 45 10 128 28 349 107 506 182 326
154 671 431 887 709 4 6 16 21 27 34 18 22 100 144 184 274 21 32 39 64 40 71
1 6 12 29 24 49 12 21 22 40 22 42 0 2 15 36 34 77 55 118 126 319 141 397 2
9 8 35 15 59 6 24 13 55 15 70 2 15 6 38 9 52 3 13 8 42 11 65 3 22 8 47 10
55 18 69 25 459 11 600 -7 78 -8 85 -25 185 -41 240 -115 471 -225 695 -64
132 -151 281 -168 288 -5 2 -8 8 -8 14 0 12 -141 199 -194 258 -105 114 -246
249 -326 310 -18 14 -44 35 -59 47 -14 13 -29 23 -32 23 -5 0 -22 13 -66 50
-7 5 -17 10 -23 10 -5 0 -10 5 -10 10 0 6 -4 10 -10 10 -5 0 -36 17 -68 38
-32 20 -89 53 -127 72 -39 19 -71 38 -73 43 -2 4 -12 7 -23 7 -10 0 -19 5 -19
12 0 6 -3 8 -7 5 -3 -4 -16 -1 -27 6 -12 7 -48 23 -81 36 -33 12 -69 26 -80
31 -30 12 -59 23 -70 25 -5 2 -39 12 -74 24 -35 11 -72 21 -82 21 -10 0 -21 4
-24 10 -3 5 -16 9 -28 9 -12 0 -48 6 -80 14 -32 8 -59 15 -60 15 -1 0 -18 3
-37 6 -101 16 -167 23 -294 31 -48 3 -92 7 -96 10 -5 3 -11 1 -15 -5 -4 -7
-12 -7 -24 0 -10 5 -20 8 -22 6z"/>
</g>
</svg>
