<svg width="48" height="48" viewBox="0 0 48 48" fill="none" xmlns="http://www.w3.org/2000/svg">
<path d="M26.24 34.0414L17.842 29.4622C16.7456 30.6341 15.322 31.4492 13.7562 31.8015C12.1904 32.1539 10.5547 32.0272 9.06189 31.4379C7.56903 30.8486 6.28797 29.824 5.38518 28.4972C4.4824 27.1704 3.99963 25.6028 3.99963 23.9981C3.99963 22.3933 4.4824 20.8257 5.38518 19.4989C6.28797 18.1721 7.56903 17.1475 9.06189 16.5582C10.5547 15.9689 12.1904 15.8423 13.7562 16.1946C15.322 16.5469 16.7456 17.3621 17.842 18.534L26.242 13.9547C25.7652 12.0672 25.9932 10.0706 26.8833 8.33909C27.7735 6.60761 29.2647 5.26016 31.0774 4.54932C32.8901 3.83848 34.8999 3.81305 36.73 4.4778C38.5601 5.14254 40.085 6.45183 41.0187 8.16024C41.9524 9.86864 42.2308 11.8589 41.8018 13.7579C41.3729 15.6569 40.2659 17.3343 38.6885 18.4756C37.1111 19.617 35.1715 20.1439 33.2332 19.9577C31.295 19.7715 29.4913 18.8849 28.16 17.4642L19.76 22.0434C20.0825 23.3259 20.0825 24.6682 19.76 25.9507L28.158 30.53C29.4893 29.1092 31.293 28.2226 33.2312 28.0364C35.1695 27.8502 37.1091 28.3772 38.6865 29.5185C40.2639 30.6599 41.3709 32.3373 41.7999 34.2363C42.2288 36.1353 41.9503 38.1255 41.0167 39.8339C40.083 41.5423 38.5581 42.8516 36.728 43.5163C34.8979 44.1811 32.8881 44.1557 31.0754 43.4448C29.2627 42.734 27.7715 41.3865 26.8813 39.6551C25.9912 37.9236 25.7632 35.9269 26.24 34.0394V34.0414ZM12 27.9964C13.0609 27.9964 14.0783 27.575 14.8285 26.825C15.5786 26.075 16 25.0578 16 23.9971C16 22.9364 15.5786 21.9191 14.8285 21.1691C14.0783 20.4191 13.0609 19.9977 12 19.9977C10.9392 19.9977 9.92176 20.4191 9.17162 21.1691C8.42147 21.9191 8.00005 22.9364 8.00005 23.9971C8.00005 25.0578 8.42147 26.075 9.17162 26.825C9.92176 27.575 10.9392 27.9964 12 27.9964ZM34 15.9984C35.0609 15.9984 36.0783 15.577 36.8285 14.827C37.5786 14.077 38 13.0598 38 11.9991C38 10.9384 37.5786 9.92114 36.8285 9.17112C36.0783 8.4211 35.0609 7.99974 34 7.99974C32.9392 7.99974 31.9218 8.4211 31.1716 9.17112C30.4215 9.92114 30 10.9384 30 11.9991C30 13.0598 30.4215 14.077 31.1716 14.827C31.9218 15.577 32.9392 15.9984 34 15.9984ZM34 39.9944C35.0609 39.9944 36.0783 39.573 36.8285 38.823C37.5786 38.073 38 37.0558 38 35.9951C38 34.9344 37.5786 33.9171 36.8285 33.1671C36.0783 32.4171 35.0609 31.9957 34 31.9957C32.9392 31.9957 31.9218 32.4171 31.1716 33.1671C30.4215 33.9171 30 34.9344 30 35.9951C30 37.0558 30.4215 38.073 31.1716 38.823C31.9218 39.573 32.9392 39.9944 34 39.9944Z" fill="#EBEBEB"/>
</svg>
