<svg width="48" height="48" viewBox="0 0 48 48" fill="none" xmlns="http://www.w3.org/2000/svg"><path d="m26.24 34.041-8.398-4.579a8 8 0 1 1-8.78-12.904 8.002 8.002 0 0 1 8.78 1.976l8.4-4.58A7.998 7.998 0 0 1 36.73 4.479a8 8 0 1 1-8.57 12.986l-8.4 4.58a8.01 8.01 0 0 1 0 3.907l8.398 4.579a8 8 0 0 1 12.859 9.304 8 8 0 0 1-14.777-5.795v.002ZM12 27.996a4 4 0 0 0 2.829-6.827 4 4 0 0 0-5.657 5.656A4 4 0 0 0 12 27.996Zm22-11.998a4 4 0 0 0 2.828-6.827A4 4 0 1 0 34 15.998Zm0 23.996a4 4 0 0 0 2.828-6.827 4 4 0 0 0-5.656 5.656A4 4 0 0 0 34 39.994Z" fill="#EBEBEB"/></svg>