<svg width="48" height="48" viewBox="0 0 48 48" fill="none" xmlns="http://www.w3.org/2000/svg"><path d="M24 32a6 6 0 1 0 0-12 6 6 0 0 0 0 12Z" stroke="#EBEBEB" stroke-width="4" stroke-linecap="round" stroke-linejoin="round"/><path d="M42 14H6v24h36V14Z" stroke="#EBEBEB" stroke-width="4" stroke-linejoin="round"/><path d="M28.558 8h-9.116a2 2 0 0 0-1.898 1.368l-.666 2A2 2 0 0 0 18.774 14h10.45a2 2 0 0 0 1.897-2.633l-.666-2A2 2 0 0 0 28.558 8Z" stroke="#EBEBEB" stroke-width="4" stroke-linecap="round" stroke-linejoin="round"/></svg>