<svg width="48" height="48" viewBox="0 0 48 48" fill="none" xmlns="http://www.w3.org/2000/svg"><path d="M8 20c0-3.771 0-5.657 1.172-6.828C10.343 12 12.229 12 16 12h16c3.771 0 5.657 0 6.828 1.172C40 14.343 40 16.229 40 20v7c0 3.771 0 5.657-1.172 6.828C37.657 35 35.771 35 32 35H16c-3.771 0-5.657 0-6.828-1.172C8 32.657 8 30.771 8 27v-7Z" fill="#2067F5"/><path d="m9.172 33.828-1.627 1.627 1.627-1.627Zm29.656 0 1.627 1.627-1.627-1.627Zm0-20.656-1.626 1.626 1.626-1.626ZM16 14.3h16V9.7H16v4.6ZM37.7 20v7h4.6v-7h-4.6ZM32 32.7H16v4.6h16v-4.6ZM10.3 27v-7H5.7v7h4.6Zm5.7 5.7c-1.95 0-3.182-.005-4.083-.126-.834-.112-1.032-.285-1.12-.372l-3.252 3.253c1.085 1.084 2.415 1.497 3.76 1.678 1.278.172 2.874.167 4.695.167v-4.6ZM5.7 27c0 1.82-.005 3.417.167 4.696.18 1.344.594 2.674 1.678 3.759l3.253-3.253c-.087-.087-.26-.285-.372-1.12-.121-.9-.126-2.131-.126-4.082H5.7Zm32 0c0 1.95-.005 3.182-.126 4.083-.112.834-.285 1.032-.372 1.12l3.253 3.252c1.084-1.085 1.497-2.415 1.678-3.76.172-1.278.167-2.874.167-4.695h-4.6ZM32 37.3c1.82 0 3.417.005 4.696-.167 1.344-.18 2.674-.594 3.759-1.678l-3.253-3.253c-.087.087-.285.26-1.12.372-.9.121-2.131.126-4.082.126v4.6Zm0-23c1.95 0 3.182.005 4.083.126.834.112 1.032.285 1.12.372l3.252-3.253c-1.085-1.084-2.415-1.497-3.76-1.678C35.418 9.695 33.822 9.7 32 9.7v4.6ZM42.3 20c0-1.82.005-3.417-.167-4.696-.18-1.344-.594-2.674-1.678-3.759l-3.253 3.253c.087.087.26.285.372 1.12.121.9.126 2.131.126 4.082h4.6ZM16 9.7c-1.82 0-3.417-.005-4.696.167-1.344.18-2.674.594-3.759 1.678l3.253 3.253c.087-.087.285-.26 1.12-.372.9-.121 2.131-.126 4.082-.126V9.7ZM10.3 20c0-1.95.005-3.182.126-4.083.112-.834.285-1.032.372-1.12l-3.253-3.252c-1.084 1.085-1.497 2.415-1.678 3.76C5.695 16.582 5.7 18.178 5.7 20h4.6Z" fill="#EBEBEB"/><rect x="24.1" y="17" width="11" height="13" rx="2" fill="#EBEBEB"/></svg>