<svg width="48" height="48" viewBox="0 0 48 48" fill="none" xmlns="http://www.w3.org/2000/svg"><path d="M5 24.5c0-5.143 0-7.714 1.138-9.613a7.999 7.999 0 0 1 2.75-2.749C10.785 11 13.357 11 18.5 11h11c5.143 0 7.714 0 9.613 1.138a7.998 7.998 0 0 1 2.749 2.75C43 16.785 43 19.357 43 24.5c0 5.143 0 7.714-1.138 9.613a7.998 7.998 0 0 1-2.75 2.749C37.215 38 34.643 38 29.5 38h-11c-5.143 0-7.714 0-9.613-1.138a7.999 7.999 0 0 1-2.749-2.75C5 32.215 5 29.643 5 24.5Z" fill="#2067F5"/><path d="M8.887 36.862 7.86 38.577l1.028-1.715Zm32.975-2.75 1.715 1.029-1.715-1.028Zm-2.75 2.75 1.029 1.715-1.028-1.715Zm0-24.724-1.027 1.716 1.028-1.716ZM18.5 13h11V9h-11v4Zm11 23h-11v4h11v-4Zm-11 0c-2.61 0-4.428-.002-5.837-.134-1.38-.129-2.16-.368-2.748-.72L7.86 38.577c1.312.787 2.766 1.116 4.432 1.272 1.638.153 3.676.151 6.209.151v-4ZM3 24.5c0 2.533-.002 4.571.15 6.209.157 1.666.486 3.12 1.273 4.432l3.43-2.056c-.351-.587-.59-1.369-.72-2.748C7.003 28.928 7 27.109 7 24.5H3Zm6.915 10.646a6 6 0 0 1-2.061-2.061L4.423 35.14a10 10 0 0 0 3.436 3.436l2.056-3.43ZM41 24.5c0 2.61-.002 4.428-.134 5.837-.129 1.38-.368 2.16-.72 2.748l3.431 2.056c.787-1.312 1.116-2.766 1.272-4.432.153-1.638.151-3.676.151-6.209h-4ZM29.5 40c2.533 0 4.571.002 6.209-.15 1.666-.157 3.12-.486 4.432-1.273l-2.056-3.43c-.587.351-1.369.59-2.748.72-1.409.131-3.228.133-5.837.133v4Zm10.646-6.915a6.001 6.001 0 0 1-2.061 2.061l2.056 3.431a10 10 0 0 0 3.436-3.436l-3.43-2.056ZM29.5 13c2.61 0 4.428.002 5.837.134 1.38.128 2.16.368 2.748.72l2.056-3.431c-1.312-.787-2.766-1.116-4.432-1.272C34.07 8.998 32.033 9 29.5 9v4ZM45 24.5c0-2.533.002-4.571-.15-6.209-.157-1.666-.486-3.12-1.273-4.432l-3.43 2.056c.351.587.59 1.369.72 2.748.131 1.409.133 3.228.133 5.837h4Zm-6.915-10.646a6.001 6.001 0 0 1 2.061 2.061l3.431-2.056a10 10 0 0 0-3.436-3.436l-2.056 3.43ZM18.5 9c-2.533 0-4.571-.002-6.209.15-1.666.157-3.12.486-4.432 1.273l2.056 3.43c.587-.351 1.369-.59 2.748-.72C14.072 13.003 15.891 13 18.5 13V9ZM7 24.5c0-2.61.002-4.428.134-5.837.128-1.38.368-2.16.72-2.748L4.423 13.86c-.787 1.312-1.116 2.766-1.272 4.432C2.998 19.93 3 21.967 3 24.5h4Zm.859-14.077a10 10 0 0 0-3.436 3.436l3.43 2.056a6 6 0 0 1 2.062-2.061L7.86 10.423Z" fill="#EBEBEB"/><rect x="27" y="18" width="11" height="13" rx="2" fill="#EBEBEB"/></svg>