<svg width="48" height="48" viewBox="0 0 48 48" fill="none" xmlns="http://www.w3.org/2000/svg">
<path d="M20 30L20 24" stroke="#EBEBEB" stroke-width="4" stroke-linecap="square"/>
<path d="M28 30L28 24" stroke="#EBEBEB" stroke-width="4" stroke-linecap="square"/>
<path d="M6 14H42V14C40.1362 14 39.2044 14 38.4693 14.3045C37.4892 14.7105 36.7105 15.4892 36.3045 16.4693C36 17.2044 36 18.1362 36 20V40H12V20C12 18.1362 12 17.2044 11.6955 16.4693C11.2895 15.4892 10.5108 14.7105 9.53073 14.3045C8.79565 14 7.86377 14 6 14V14Z" stroke="#EBEBEB" stroke-width="4" stroke-linecap="round"/>
<path d="M21.565 6.20665C22.2635 6.07264 23.1195 6 24 6C24.8805 6 25.7365 6.07264 26.435 6.20665" stroke="#EBEBEB" stroke-width="4" stroke-linecap="square"/>
</svg>
