<svg width="48" height="48" fill="none" xmlns="http://www.w3.org/2000/svg"><path d="M7 21.5V42h11.5V29.6a.1.1 0 0 1 .1-.1h10.3a.1.1 0 0 1 .1.1V42h12V21.5L24 7 7 21.5Z" fill="#7B7B7B"/><path d="M7 42H5v2h2v-2Zm0-20.5-1.298-1.522-.702.6v.922h2ZM24 7l1.298-1.522L24 4.371l-1.298 1.107L24 7Zm17 14.5h2v-.923l-.702-.599L41 21.5ZM41 42v2h2v-2h-2ZM9 42V21.5H5V42h4Zm-.702-18.978 17-14.5-2.596-3.044-17 14.5 2.596 3.044Zm14.404-14.5 17 14.5 2.596-3.044-17-14.5-2.596 3.044ZM39 21.5V42h4V21.5h-4ZM18.5 40H7v4h11.5v-4Zm2 2V29.6h-4V42h4Zm-1.9-10.5h10.3v-4H18.6v4ZM41 40H29v4h12v-4Zm-12 0H18.5v4H29v-4Zm-2-10.4V42h4V29.6h-4Zm1.9 1.9a1.9 1.9 0 0 1-1.9-1.9h4a2.1 2.1 0 0 0-2.1-2.1v4Zm-8.4-1.9a1.9 1.9 0 0 1-1.9 1.9v-4a2.1 2.1 0 0 0-2.1 2.1h4Z" fill="#EBEBEB"/></svg>