<svg xmlns="http://www.w3.org/2000/svg" width="111" height="16" fill="currentColor" viewBox="0 0 111 16">
  <path d="M8.779 16c-1.673 0-3.177-.337-4.515-1.011C2.94 14.3 1.9 13.348 1.14 12.132.38 10.916 0 9.538 0 8c0-1.538.38-2.916 1.14-4.132.76-1.216 1.801-2.161 3.124-2.835C5.602.344 7.106 0 8.779 0c1.459 0 2.774.25 3.944.747 1.17.498 2.144 1.216 2.919 2.154l-2.873 2.506c-1.034-1.202-2.288-1.803-3.762-1.803-.867 0-1.642.184-2.326.55a3.959 3.959 0 0 0-1.573 1.56C4.743 6.374 4.56 7.136 4.56 8c0 .864.183 1.634.548 2.308a4 4 0 0 0 1.573 1.538c.684.367 1.46.55 2.326.55 1.474 0 2.728-.601 3.762-1.803l2.873 2.506c-.775.938-1.748 1.656-2.919 2.154-1.17.498-2.485.747-3.944.747Zm18.415 0c-1.688 0-3.208-.344-4.56-1.033-1.338-.689-2.395-1.641-3.17-2.857-.76-1.216-1.14-2.586-1.14-4.11 0-1.524.38-2.894 1.14-4.11.775-1.216 1.832-2.168 3.17-2.857C23.986.344 25.506 0 27.194 0c1.687 0 3.2.344 4.537 1.033 1.353.689 2.41 1.641 3.17 2.857.775 1.216 1.162 2.586 1.162 4.11 0 1.524-.387 2.894-1.162 4.11-.76 1.216-1.817 2.168-3.17 2.857-1.337.689-2.85 1.033-4.537 1.033Zm0-3.604c.805 0 1.535-.184 2.189-.55a4.043 4.043 0 0 0 1.55-1.538c.38-.674.57-1.444.57-2.308 0-.864-.19-1.626-.57-2.286a4.001 4.001 0 0 0-1.55-1.56 4.407 4.407 0 0 0-2.19-.55 4.4 4.4 0 0 0-2.188.55 4.002 4.002 0 0 0-1.55 1.56c-.38.66-.57 1.422-.57 2.286 0 .864.19 1.634.57 2.308.38.659.896 1.172 1.55 1.538.654.367 1.383.55 2.189.55Zm20.036-.792h-2.463v4.088h-4.515V.308h7.297c1.444 0 2.698.234 3.762.703 1.064.454 1.885 1.114 2.462 1.978.578.85.867 1.853.867 3.011 0 1.114-.274 2.088-.82 2.923-.533.82-1.3 1.465-2.304 1.934l3.443 4.835h-4.834l-2.895-4.088ZM50.08 6c0-.718-.236-1.275-.707-1.67-.471-.396-1.17-.594-2.098-.594h-2.508v4.506h2.508c.927 0 1.627-.19 2.098-.572.471-.395.707-.952.707-1.67ZM74.14.308v15.384h-3.716l-7.046-8.197v8.197h-4.423V.308h3.716l7.046 8.197V.309h4.424ZM91.964 12.33v3.362H79.149V.308h12.518V3.67h-8.049v2.594h7.092v3.252h-7.092v2.814h8.346Zm11.306-.726h-2.462v4.088h-4.515V.308h7.297c1.444 0 2.698.234 3.762.703 1.064.454 1.885 1.114 2.462 1.978.578.85.867 1.853.867 3.011 0 1.114-.274 2.088-.821 2.923-.532.82-1.3 1.465-2.303 1.934L111 15.692h-4.834l-2.896-4.088ZM106.12 6c0-.718-.235-1.275-.706-1.67-.472-.396-1.171-.594-2.098-.594h-2.508v4.506h2.508c.927 0 1.626-.19 2.098-.572.471-.395.706-.952.706-1.67Z"/>
</svg>
