<svg xmlns="http://www.w3.org/2000/svg" width="48" height="48" fill="none" viewBox="0 0 48 48">
  <g clip-path="url(#donate__a)">
    <g filter="url(#donate__b)">
      <circle cx="24.551" cy="24.551" r="14.551" fill="#2067F5" fill-opacity=".5"/>
    </g>
    <path stroke="currentColor" stroke-width="4" d="M13 32.889c2.222 2.222 6.667 4.444 11.111 4.444m0 0c5.556 0 11.111-1.11 11.111-6.666S29.777 24 24.112 24C18.555 24 13 22.889 13 17.333c0-5.555 5.556-6.666 11.111-6.666m0 26.666V44m0-33.333c4.445 0 8.889 2.222 11.111 4.444m-11.11-4.444V4"/>
  </g>
  <defs>
    <clipPath id="donate__a">
      <path fill="#fff" d="M0 0h48v48H0z"/>
    </clipPath>
    <filter id="donate__b" width="52.384" height="52.384" x="-1.641" y="-1.641" color-interpolation-filters="sRGB" filterUnits="userSpaceOnUse">
      <feFlood flood-opacity="0" result="BackgroundImageFix"/>
      <feBlend in="SourceGraphic" in2="BackgroundImageFix" result="shape"/>
      <feGaussianBlur result="effect1_foregroundBlur_1020_865" stdDeviation="5.82"/>
    </filter>
  </defs>
</svg>
