<svg xmlns="http://www.w3.org/2000/svg" width="48" height="48" fill="none" viewBox="0 0 48 48">
  <path fill="#2067F5" d="M25.515 6H10v36h28V18.485c0-.409 0-.613-.076-.797-.076-.183-.22-.328-.51-.617L26.93 6.586c-.29-.29-.434-.434-.617-.51C26.128 6 25.923 6 25.515 6Z"/>
  <path stroke="currentColor" stroke-width="4" d="M25.515 6H10v36h28V18.485c0-.409 0-.613-.076-.797-.076-.183-.22-.328-.51-.617L26.93 6.586c-.29-.29-.434-.434-.617-.51C26.128 6 25.923 6 25.515 6Z"/>
  <path stroke="currentColor" stroke-linecap="square" stroke-width="4" d="M18 26h12m-12 8h8"/>
  <path stroke="currentColor" stroke-width="4" d="M26 6v12h12"/>
</svg>
