<svg xmlns="http://www.w3.org/2000/svg" width="48" height="48" fill="currentColor" viewBox="0 0 48 48">
  <path stroke="currentColor" stroke-linecap="square" stroke-linejoin="round" stroke-width="3.418" d="M9 39.136h30"/>
  <path d="M16.742 39.136v1.71h.73l.504-.528-1.234-1.182Zm-7.742 0H7.291v1.71H9v-1.71Zm0-7.734-1.186-1.23-.523.504v.726H9ZM38.032 16.9l-1.208-1.209-.013.013-.013.014 1.234 1.182ZM32.226 9l1.222-1.194-1.187-1.215-1.222 1.18L32.226 9ZM39 15.933l1.208 1.21 1.195-1.195-1.18-1.209L39 15.933ZM16.742 37.428H9v3.417h7.742v-3.417Zm-6.033 1.708v-7.734H7.29v7.734h3.418Zm26.089-23.418-21.29 22.237 2.468 2.363 21.29-22.236-2.468-2.364Zm2.202.215-1.208-1.209c-.002.002.002-.001 0 0v.001h-.001v.001h-.001v.001c-.005.004.003-.003-.002.001l-.003.003-.019.02-.014.013-.017.017-.04.041-.004.003-.003.003-.006.006-.012.012-.013.013c-.018.019.012-.012-.006.007l-.007.007-.058.058c-.042.04-.022.021-.065.065l-.018.017-.004.004-.002.002-.002.002-.01.01-.035.035-.002.002-.003.003-.004.004-.01.01-.009.009-.009.01-.019.018a1.72 1.72 0 0 0-.019.02l-.078.077-.003.003-.002.002-.003.003-.002.002-.01.01-.02.02-.04.04-.041.041-.01.01-.005.005-.006.005-.02.02-.081.082-.01.01-.01.01-.005.005-.005.005-.01.01-.04.04-.019.019-.01.01-.002.002-.003.002-.002.003-.002.002-.02.02-.018.018c-.094.094.056-.056-.038.037l-.004.005-.005.004-.004.005-.005.004-.018.018 2.416 2.418.31-.31.162-.162.02-.02.01-.01.01-.01.02-.019.009-.01.01-.01.074-.074.036-.036.018-.017.004-.005.002-.002.003-.002.008-.009.008-.008.005-.004.002-.002.002-.002c.05-.05-.034.033.016-.017l.008-.008.002-.002.002-.002.004-.004.016-.015.002-.002.002-.002.004-.004.004-.004.003-.004.008-.007c.062-.062-.059.058.003-.004.01-.01-.005.006.004-.003l.028-.029.007-.006.007-.007.013-.013.023-.024.022-.022.02-.019.016-.017c.01-.01-.006.007.004-.003l.001-.001.001-.001v-.001l.002-.001.007-.007.019-.02.003-.002c.002-.002 0 0 0-.001h.001v-.001h.001l.001-.001c0-.001 0 0 0 0L39 15.932ZM10.186 32.632 33.412 10.23l-2.373-2.46L7.814 30.172l2.372 2.46Zm20.817-22.438 6.775 6.934 2.444-2.389-6.774-6.933-2.445 2.388Z"/>
  <path stroke="currentColor" stroke-linecap="square" stroke-linejoin="round" stroke-width="3.418" d="m25.88 17.87 3.75 3.867"/>
</svg>
