<svg width="48" height="48" viewBox="0 0 48 48" fill="none" xmlns="http://www.w3.org/2000/svg">
<path d="M12 37.002H36.8889" stroke="white" stroke-width="4" stroke-linecap="square" stroke-linejoin="round"/>
<path d="M18.4229 37.0022V39.0022H19.2769L19.8676 38.3853L18.4229 37.0022ZM12 37.0022H10V39.0022H12V37.0022ZM12 30.5855L10.6115 29.146L10 29.7359V30.5855H12ZM36.086 18.5541L34.6725 17.1392L34.6568 17.1549L34.6414 17.171L36.086 18.5541ZM31.2688 12L32.6993 10.6023L31.3106 9.18095L29.8804 10.5605L31.2688 12ZM36.8889 17.7521L38.3024 19.167L39.7017 17.7691L38.3194 16.3543L36.8889 17.7521ZM18.4229 35.0022H12V39.0022H18.4229V35.0022ZM14 37.0022V30.5855H10V37.0022H14ZM34.6414 17.171L16.9783 35.6191L19.8676 38.3853L37.5306 19.9373L34.6414 17.171ZM36.8889 17.7521C35.4754 16.3371 35.4754 16.3371 35.4754 16.3372C35.4754 16.3372 35.4754 16.3372 35.4753 16.3372C35.4744 16.3381 35.4762 16.3363 35.4753 16.3372C35.4752 16.3373 35.4752 16.3374 35.475 16.3375C35.475 16.3375 35.4746 16.3379 35.4746 16.3379C35.474 16.3385 35.4749 16.3377 35.4743 16.3382C35.4742 16.3383 35.4742 16.3383 35.4741 16.3384C35.4741 16.3384 35.474 16.3385 35.474 16.3386C35.4705 16.342 35.4741 16.3384 35.4698 16.3427C35.4543 16.3582 35.4726 16.34 35.4537 16.3588C35.3577 16.4547 35.5014 16.3111 35.394 16.4184C35.3826 16.4298 35.386 16.4264 35.3741 16.4384C35.3691 16.4433 35.3579 16.4545 35.3523 16.4601C35.2652 16.5471 35.3932 16.4192 35.304 16.5083C35.2488 16.5635 35.307 16.5054 35.2501 16.5622C35.141 16.6712 35.302 16.5103 35.1915 16.6207C35.0721 16.74 35.0589 16.7533 34.9302 16.8817C34.886 16.926 34.8397 16.9722 34.797 17.0148C34.7892 17.0227 34.7886 17.0232 34.7808 17.031C34.7766 17.0352 34.7689 17.0429 34.7648 17.047C34.7323 17.0795 34.7654 17.0464 34.7332 17.0786C34.7225 17.0892 34.6819 17.1298 34.6725 17.1392L37.4995 19.969C37.5714 19.8972 37.942 19.527 38.0186 19.4505C38.0995 19.3696 38.1701 19.2991 38.2211 19.2482C38.2215 19.2478 38.2219 19.2474 38.2222 19.247C38.2226 19.2466 38.223 19.2463 38.2234 19.2459C38.225 19.2443 38.2242 19.2451 38.2258 19.2435C38.2405 19.2288 38.2156 19.2537 38.2303 19.239C38.2344 19.2349 38.2352 19.2341 38.2391 19.2302C38.2473 19.2221 38.2478 19.2216 38.2552 19.2141C38.2884 19.1809 38.2506 19.2187 38.2808 19.1886C38.2817 19.1876 38.285 19.1844 38.2857 19.1836C38.2877 19.1817 38.2861 19.1833 38.288 19.1814C38.289 19.1804 38.2891 19.1802 38.2901 19.1793C38.2926 19.1767 38.2914 19.1779 38.2938 19.1756C38.3032 19.1662 38.2876 19.1817 38.2968 19.1725C38.2981 19.1713 38.3007 19.1687 38.301 19.1684C38.3012 19.1681 38.3014 19.1679 38.3016 19.1678C38.3019 19.1675 38.3018 19.1675 38.3021 19.1673C38.3026 19.1667 38.3018 19.1675 38.3023 19.167C38.3026 19.1668 38.3021 19.1672 38.3024 19.167C38.3024 19.167 38.3024 19.167 38.3024 19.167C38.3024 19.167 38.3024 19.167 36.8889 17.7521ZM13.3885 32.025L32.6573 13.4395L29.8804 10.5605L10.6115 29.146L13.3885 32.025ZM29.8383 13.3977L35.4584 19.1498L38.3194 16.3543L32.6993 10.6023L29.8383 13.3977Z" fill="white"/>
<path d="M26.001 19.3564L29.1121 22.5648" stroke="white" stroke-width="4" stroke-linecap="square" stroke-linejoin="round"/>
</svg>
