<svg xmlns="http://www.w3.org/2000/svg" width="48" height="48" fill="currentColor" viewBox="0 0 48 48">
  <path stroke="currentColor" stroke-linecap="square" stroke-linejoin="round" stroke-width="1.709" d="M16.5 31.568h15"/>
  <path d="M20.37 31.568v.855h.366l.252-.264-.617-.59Zm-3.87 0h-.854v.855h.854v-.855Zm0-3.867-.593-.615-.261.252v.363h.854Zm14.516-7.251-.604-.604-.006.006-.007.007.617.591Zm-2.903-3.95.611-.597-.593-.607-.611.589.593.615Zm3.387 3.467.604.604.598-.597-.59-.605-.612.598ZM20.37 30.714H16.5v1.709h3.87v-1.71Zm-3.016.854v-3.867h-1.708v3.867h1.708ZM30.4 19.86 19.754 30.977l1.234 1.182 10.645-11.118-1.234-1.182Zm1.1.108-.603-.605c-.001.001 0 0 0 0v.001h-.001c-.002.003.001-.001 0 .001-.002 0-.001 0-.002.002l-.01.01-.007.006-.008.009-.021.02-.001.002c-.005.004.002-.003-.002.001l-.003.003-.006.006-.006.007c-.01.009.005-.006-.004.003l-.003.003-.03.03-.032.032-.008.008-.002.003h-.002v.002c-.018.017.012-.013-.005.004l-.018.018-.001.001-.001.001-.003.003-.004.004-.005.005-.005.005-.009.009-.01.01a14.58 14.58 0 0 1-.041.041l-.001.001-.002.002-.005.005-.01.01-.02.02-.02.02-.005.005-.003.003-.002.002-.01.01-.041.04c-.022.023.017-.017-.005.006l-.005.005-.002.002-.003.003-.005.005-.02.02-.01.01-.004.004-.002.001v.002h-.002l-.001.002-.01.01-.01.009c-.046.047.029-.028-.018.019l-.002.002-.002.002-.003.002c0 .001 0 .002-.002.003l-.009.009 1.208 1.209.155-.156.081-.08.01-.01.005-.005.005-.005.01-.01.004-.005.005-.005.038-.037.018-.018.008-.009c.002 0 .002 0 .003-.002l.002-.002.004-.004.004-.005.002-.002h.001l.001-.002c.026-.025-.016.017.009-.008l.004-.004.002-.002.002-.002.008-.008.001-.002c.001 0 .002 0 .002-.002 0 0 .002 0 .002-.002.003-.002 0 .002.002-.001l.004-.004.002-.002.002-.002.014-.014.003-.003.003-.003.007-.007a1.33 1.33 0 0 1 .012-.012l.01-.01.01-.01.009-.009.002-.002.001-.001.004-.004.01-.01v-.001h.001v-.001h.001c.001-.001 0 0 0 0 0-.001 0 0 0 0l-.603-.605Zm-14.406 8.349 11.613-11.201-1.186-1.23-11.613 11.201 1.186 1.23Zm10.409-11.219 3.387 3.467 1.222-1.195-3.387-3.466-1.222 1.194Z"/>
  <path stroke="currentColor" stroke-linecap="square" stroke-linejoin="round" stroke-width="1.709" d="m24 22 1.875 1.934"/>
</svg>
