<svg xmlns="http://www.w3.org/2000/svg" width="48" height="48" fill="currentColor" viewBox="0 0 48 48">
  <path stroke="currentColor" stroke-linecap="square" stroke-linejoin="round" stroke-width="3.342" d="M13.333 34.5h21.333"/>
  <path d="M18.838 34.5v1.671h.714l.493-.515-1.207-1.156Zm-5.505 0h-1.67v1.671h1.67v-1.67Zm0-5.5-1.16-1.202-.51.493V29h1.67Zm20.645-10.312-1.18-1.182-.014.013-.013.013 1.207 1.156ZM29.85 13.07l1.195-1.168-1.16-1.187-1.195 1.152 1.16 1.203ZM34.666 18l1.181 1.182 1.17-1.168-1.156-1.181L34.666 18ZM18.838 32.83h-5.505v3.341h5.505V32.83Zm-3.834 1.67V29h-3.342v5.5h3.342ZM32.77 17.532 17.63 33.345l2.414 2.31 15.14-15.812-2.414-2.31Zm1.895.468-1.18-1.182h-.001v.001l-.004.004-.014.014-.022.022-.014.013-.015.016h-.001l-.001.002-.002.002-.005.004-.008.009c-.053.053.034-.035-.019.018l-.041.042-.097.096-.224.224-.22.22 2.361 2.365.026-.026.026-.026.027-.027.007-.007.007-.007.014-.014.114-.114.007-.007c.021-.021-.014.014.007-.008l.015-.014.029-.029.002-.002.001-.001.004-.004.002-.002.002-.002.003-.003.004-.004.003-.003c.011-.011-.004.004.008-.007.032-.033-.02.018.014-.015l.014-.014.007-.007.007-.007.014-.014.014-.014.007-.007.007-.006c.027-.028-.022.02.006-.007l.007-.007.014-.013c.028-.029-.015.014.013-.014l.013-.013.05-.05.024-.023c.044-.045-.022.021.022-.023l.003-.003.003-.003h.001l.002-.002v-.002h.002l.006-.006.005-.005.02-.02.036-.036.007-.008.008-.008a1.712 1.712 0 0 0 .036-.035V19.2l.002-.002.002-.002.004-.003v-.001h.001l.002-.002v-.001h.001l.001-.002.002-.001v-.001l.002-.002h.001L34.667 18ZM14.493 30.203l16.516-15.93-2.32-2.406-16.516 15.93 2.32 2.406Zm14.161-15.965 4.817 4.93 2.39-2.335-4.817-4.93-2.39 2.335Z"/>
  <path stroke="currentColor" stroke-linecap="square" stroke-linejoin="round" stroke-width="3.342" d="M25.334 19.375 28 22.125"/>
</svg>
