<svg width="27" height="20" viewBox="0 0 27 20" fill="none" xmlns="http://www.w3.org/2000/svg">
<g clip-path="url(#clip0_8933_24243)">
<path d="M5.99174 19.9014V9.65179L2.83271 6.74366L0 5.12988V18.0927C0 19.0935 0.805888 19.9014 1.79752 19.9014H5.99174Z" fill="#053FB0"/>
<path d="M20.3719 19.9014H24.5661C25.5608 19.9014 26.3637 19.0905 26.3637 18.0927V5.12988L23.1552 6.9784L20.3719 9.65179V19.9014Z" fill="#0D85FF"/>
<path d="M5.99175 9.65144L5.56189 5.64656L5.99175 1.81348L13.1818 7.23976L20.3719 1.81348L20.8528 5.43959L20.3719 9.65144L13.1818 15.0777L5.99175 9.65144Z" fill="#2067F5"/>
<path d="M20.3719 1.81389V9.65186L26.3637 5.12995V2.71827C26.3637 0.481438 23.8262 -0.793738 22.0496 0.547759L20.3719 1.81389Z" fill="#053FB0"/>
<path d="M0 5.12995L2.7557 7.20965L5.99174 9.65186V1.81389L4.31405 0.547759C2.5345 -0.793738 0 0.481438 0 2.71827V5.12995Z" fill="#0D85FF"/>
</g>
<defs>
<clipPath id="clip0_8933_24243">
<rect width="26.3636" height="20" fill="white"/>
</clipPath>
</defs>
</svg>
