<svg width="48" height="48" viewBox="0 0 48 48" fill="none" xmlns="http://www.w3.org/2000/svg">
<path d="M18 6H26H33C36.7712 6 41 6 41 6C41 6 41 10.2288 41 14V34V42H33H18" stroke="#EBEBEB" stroke-width="4"/>
<path d="M12.2268 32.4696L13.6964 33.8262L16.4095 30.887L14.9399 29.5304L12.2268 32.4696ZM6 24L4.64344 22.5304C4.23328 22.909 4 23.4418 4 24C4 24.5582 4.23328 25.091 4.64344 25.4696L6 24ZM14.9399 18.4696L16.4095 17.113L13.6964 14.1738L12.2268 15.5304L14.9399 18.4696ZM24.5835 26H26.5835V22H24.5835V26ZM14.9399 29.5304L7.35656 22.5304L4.64344 25.4696L12.2268 32.4696L14.9399 29.5304ZM7.35656 25.4696L14.9399 18.4696L12.2268 15.5304L4.64344 22.5304L7.35656 25.4696ZM6 26H24.5835V22H6V26Z" fill="#EBEBEB"/>
</svg>
