<svg width="113" height="89" viewBox="0 0 113 89" fill="none" xmlns="http://www.w3.org/2000/svg">
<path fill-rule="evenodd" clip-rule="evenodd" d="M113 65.1797V24.1797H108L108 60.6726H0V65.236H112.944V65.1797H113Z" fill="#EBEBEB"/>
<path fill-rule="evenodd" clip-rule="evenodd" d="M99.2533 51.5458L99.2533 44.7007L103.817 44.7007L103.817 51.5458L103.817 56.1091H99.2533L92.4082 56.1091V51.5458H99.2533Z" fill="#EBEBEB"/>
<path d="M9.5599 88.119C7.88666 88.119 6.38074 87.7691 5.04215 87.0694C3.71877 86.3545 2.6768 85.3658 1.91624 84.1032C1.15567 82.8407 0.775391 81.4108 0.775391 79.8137C0.775391 78.2165 1.15567 76.7866 1.91624 75.5241C2.6768 74.2615 3.71877 73.2804 5.04215 72.5807C6.38074 71.8658 7.88666 71.5083 9.5599 71.5083C11.0202 71.5083 12.336 71.7669 13.5072 72.2841C14.6785 72.8013 15.652 73.5466 16.4278 74.5201L13.5529 77.1213C12.5185 75.8739 11.2636 75.2503 9.78807 75.2503C8.92103 75.2503 8.14525 75.4404 7.46074 75.8207C6.79145 76.201 6.26666 76.741 5.88638 77.4407C5.52131 78.1252 5.33877 78.9162 5.33877 79.8137C5.33877 80.7111 5.52131 81.5097 5.88638 82.2094C6.26666 82.8939 6.79145 83.4263 7.46074 83.8066C8.14525 84.1869 8.92103 84.377 9.78807 84.377C11.2636 84.377 12.5185 83.7534 13.5529 82.506L16.4278 85.1072C15.652 86.0807 14.6785 86.826 13.5072 87.3432C12.336 87.8604 11.0202 88.119 9.5599 88.119Z" fill="#EBEBEB"/>
<path d="M27.9876 88.119C26.2991 88.119 24.778 87.7615 23.4242 87.0466C22.0856 86.3317 21.0284 85.3429 20.2526 84.0804C19.4921 82.8179 19.1118 81.3956 19.1118 79.8137C19.1118 78.2317 19.4921 76.8094 20.2526 75.5469C21.0284 74.2844 22.0856 73.2956 23.4242 72.5807C24.778 71.8658 26.2991 71.5083 27.9876 71.5083C29.676 71.5083 31.1895 71.8658 32.5281 72.5807C33.8819 73.2956 34.9391 74.2844 35.6997 75.5469C36.4755 76.8094 36.8633 78.2317 36.8633 79.8137C36.8633 81.3956 36.4755 82.8179 35.6997 84.0804C34.9391 85.3429 33.8819 86.3317 32.5281 87.0466C31.1895 87.7615 29.676 88.119 27.9876 88.119ZM27.9876 84.377C28.7938 84.377 29.5239 84.1869 30.178 83.8066C30.8321 83.4263 31.3493 82.8939 31.7295 82.2094C32.1098 81.5097 32.3 80.7111 32.3 79.8137C32.3 78.9162 32.1098 78.1252 31.7295 77.4407C31.3493 76.741 30.8321 76.201 30.178 75.8207C29.5239 75.4404 28.7938 75.2503 27.9876 75.2503C27.1814 75.2503 26.4512 75.4404 25.7972 75.8207C25.1431 76.201 24.6259 76.741 24.2456 77.4407C23.8653 78.1252 23.6752 78.9162 23.6752 79.8137C23.6752 80.7111 23.8653 81.5097 24.2456 82.2094C24.6259 82.8939 25.1431 83.4263 25.7972 83.8066C26.4512 84.1869 27.1814 84.377 27.9876 84.377Z" fill="#EBEBEB"/>
<path d="M48.0369 83.5556H45.5726V87.7996H41.0549V71.8277H48.3563C49.8014 71.8277 51.0563 72.0711 52.1211 72.5579C53.1859 73.0294 54.0073 73.7139 54.5853 74.6114C55.1633 75.4937 55.4524 76.5356 55.4524 77.7373C55.4524 78.8934 55.1785 79.9049 54.6309 80.772C54.0985 81.6238 53.3304 82.2931 52.3264 82.7799L55.7718 87.7996H50.9346L48.0369 83.5556ZM50.889 77.7373C50.889 76.992 50.6532 76.4139 50.1816 76.0032C49.7101 75.5925 49.0104 75.3872 48.0825 75.3872H45.5726V80.0646H48.0825C49.0104 80.0646 49.7101 79.8669 50.1816 79.4714C50.6532 79.0607 50.889 78.4827 50.889 77.7373Z" fill="#EBEBEB"/>
<path d="M74.9661 71.8277V87.7996H71.247L64.1966 79.2889V87.7996H59.7701V71.8277H63.4893L70.5397 80.3384V71.8277H74.9661Z" fill="#EBEBEB"/>
<path d="M92.8013 84.3086V87.7996H79.9782V71.8277H92.5047V75.3187H84.4503V78.0111H91.5464V81.388H84.4503V84.3086H92.8013Z" fill="#EBEBEB"/>
<path d="M104.116 83.5556H101.651V87.7996H97.1337V71.8277H104.435C105.88 71.8277 107.135 72.0711 108.2 72.5579C109.265 73.0294 110.086 73.7139 110.664 74.6114C111.242 75.4937 111.531 76.5356 111.531 77.7373C111.531 78.8934 111.257 79.9049 110.71 80.772C110.177 81.6238 109.409 82.2931 108.405 82.7799L111.851 87.7996H107.013L104.116 83.5556ZM106.968 77.7373C106.968 76.992 106.732 76.4139 106.26 76.0032C105.789 75.5925 105.089 75.3872 104.161 75.3872H101.651V80.0646H104.161C105.089 80.0646 105.789 79.8669 106.26 79.4714C106.732 79.0607 106.968 78.4827 106.968 77.7373Z" fill="#EBEBEB"/>
<g filter="url(#filter0_f_3740_8300)">
<circle cx="57.7065" cy="35.6049" r="19.4253" fill="#2067F5" fill-opacity="0.5"/>
</g>
<g filter="url(#filter1_f_3740_8300)">
<circle cx="57.7683" cy="34.5257" r="10.3601" fill="#2067F5"/>
</g>
<mask id="path-6-inside-1_3740_8300" fill="white">
<path d="M70.4147 34.8671C72.3626 36.2409 74.7103 36.9315 77.0918 36.8311C79.4733 36.7307 81.7546 35.8449 83.5799 34.312C85.4053 32.7792 86.672 30.6853 87.1825 28.357C87.693 26.0287 87.4186 23.5969 86.4022 21.4409C85.3857 19.2849 83.6843 17.5259 81.5633 16.4382C79.4423 15.3506 77.021 14.9955 74.677 15.4282C72.333 15.861 70.1981 17.0573 68.6054 18.8306C67.0126 20.6039 66.0514 22.8545 65.8719 25.2313L69.4217 25.4996C69.542 23.9065 70.1862 22.398 71.2538 21.2095C72.3214 20.0209 73.7523 19.2191 75.3233 18.929C76.8944 18.6389 78.5173 18.877 79.9389 19.606C81.3605 20.335 82.5009 21.5139 83.1821 22.959C83.8634 24.4041 84.0473 26.034 83.7052 27.5945C83.363 29.1551 82.514 30.5585 81.2906 31.5859C80.0671 32.6133 78.5381 33.207 76.9419 33.2743C75.3457 33.3416 73.7721 32.8787 72.4665 31.9579L70.4147 34.8671Z"/>
</mask>
<path d="M70.4147 34.8671C72.3626 36.2409 74.7103 36.9315 77.0918 36.8311C79.4733 36.7307 81.7546 35.8449 83.5799 34.312C85.4053 32.7792 86.672 30.6853 87.1825 28.357C87.693 26.0287 87.4186 23.5969 86.4022 21.4409C85.3857 19.2849 83.6843 17.5259 81.5633 16.4382C79.4423 15.3506 77.021 14.9955 74.677 15.4282C72.333 15.861 70.1981 17.0573 68.6054 18.8306C67.0126 20.6039 66.0514 22.8545 65.8719 25.2313L69.4217 25.4996C69.542 23.9065 70.1862 22.398 71.2538 21.2095C72.3214 20.0209 73.7523 19.2191 75.3233 18.929C76.8944 18.6389 78.5173 18.877 79.9389 19.606C81.3605 20.335 82.5009 21.5139 83.1821 22.959C83.8634 24.4041 84.0473 26.034 83.7052 27.5945C83.363 29.1551 82.514 30.5585 81.2906 31.5859C80.0671 32.6133 78.5381 33.207 76.9419 33.2743C75.3457 33.3416 73.7721 32.8787 72.4665 31.9579L70.4147 34.8671Z" stroke="#EBEBEB" stroke-width="8" mask="url(#path-6-inside-1_3740_8300)"/>
<path d="M58.1217 46.0292L40.8721 26.3838H75.3713L58.1217 46.0292ZM58.1217 46.0292V62.7997M58.1217 62.7997H49.4969M58.1217 62.7997H66.7465" stroke="#EBEBEB" stroke-width="4" stroke-linecap="square"/>
<defs>
<filter id="filter0_f_3740_8300" x="22.741" y="0.63948" width="69.931" height="69.931" filterUnits="userSpaceOnUse" color-interpolation-filters="sRGB">
<feFlood flood-opacity="0" result="BackgroundImageFix"/>
<feBlend mode="normal" in="SourceGraphic" in2="BackgroundImageFix" result="shape"/>
<feGaussianBlur stdDeviation="7.7701" result="effect1_foregroundBlur_3740_8300"/>
</filter>
<filter id="filter1_f_3740_8300" x="31.868" y="8.62532" width="51.8006" height="51.8006" filterUnits="userSpaceOnUse" color-interpolation-filters="sRGB">
<feFlood flood-opacity="0" result="BackgroundImageFix"/>
<feBlend mode="normal" in="SourceGraphic" in2="BackgroundImageFix" result="shape"/>
<feGaussianBlur stdDeviation="7.7701" result="effect1_foregroundBlur_3740_8300"/>
</filter>
</defs>
</svg>
