<svg width="48" height="48" viewBox="0 0 48 48" fill="none" xmlns="http://www.w3.org/2000/svg"><path fill-rule="evenodd" clip-rule="evenodd" d="M6.343 6.343C4 8.686 4 12.457 4 20v8c0 7.542 0 11.314 2.343 13.657S12.457 44 20 44h8c7.542 0 11.314 0 13.657-2.343S44 35.543 44 28v-8c0-7.543 0-11.314-2.343-13.657S35.543 4 28 4h-8C12.457 4 8.686 4 6.343 6.343ZM6.341 33.66l8.57-8.57c.947-.947 1.42-1.42 1.94-1.32.522.1.785.716 1.313 1.946l3.672 8.57c.528 1.23.791 1.845 1.312 1.945.521.1.994-.372 1.94-1.319l4.578-4.578c.632-.631.948-.947 1.345-.959.397-.011.73.285 1.399.879l7.022 6.242c.28.25.421.374.593.44.172.065.36.065.735.065h1.04c.094 0 .141 0 .17-.03.03-.029.03-.076.03-.17V7.2c0-.094 0-.141-.03-.17C41.942 7 41.895 7 41.8 7H6.2c-.094 0-.141 0-.17.03C6 7.058 6 7.105 6 7.2v26.317c0 .206 0 .308.062.334.061.026.134-.047.28-.192Z" fill="#EBEBEB"/><path d="M6 6h36v36H6V6Z" stroke="#EBEBEB" stroke-width="4"/><circle cx="30" cy="18" r="4" fill="#EBEBEB"/></svg>