<svg xmlns="http://www.w3.org/2000/svg" width="24" height="24" fill="currentColor" viewBox="0 0 24 24">
  <path d="m13.74 14.574-.708-.707-.296.296.003.42 1-.009Zm.021 2.807.707.707.296-.296-.003-.419-1 .008Zm-.348.348-.707.707.707.707.707-.707-.707-.707Zm-7.071-7.071-.707-.707-.707.707.707.707.707-.707Zm.348-.348.008-1-.419-.003-.296.296.707.707Zm2.807.022-.008 1 .419.003.296-.296-.707-.707Zm-4.69 7.517a1 1 0 0 0 1.415 1.415l-1.414-1.415ZM18.95 9.364l1.414 1.414 1.414-1.414-1.414-1.414-1.414 1.414Zm0-1.414-5.918 5.917 1.414 1.414 5.918-5.917L18.95 7.95Zm-6.21 6.632.021 2.807 2-.016-.022-2.806-2 .015Zm.314 2.092-.348.348 1.414 1.414.348-.348-1.414-1.414Zm-6.005-5.309.348-.348-1.414-1.414-.348.348 1.414 1.414Zm-.367-.055 2.807.022.015-2-2.806-.022-.016 2Zm6.61-7.603 1.415 1.414 1.414-1.414-1.414-1.414-1.414 1.414Zm1.415 1.414 4.243 4.243 1.414-1.414-4.243-4.243-1.414 1.414Zm-4.503 5.918L16.12 5.12l-1.414-1.414L8.79 9.625l1.414 1.414Zm3.916 5.983-3.535-3.535L9.17 14.9l3.536 3.535 1.414-1.414Zm-3.535-3.535L7.049 9.95l-1.414 1.414L9.17 14.9l1.415-1.415Zm-1.415 0-4.362 4.362 1.414 1.415 4.363-4.363-1.415-1.415Z"/>
</svg>
