<svg xmlns="http://www.w3.org/2000/svg" width="48" height="48" fill="none" viewBox="0 0 48 48">
  <circle cx="27" cy="21" r="1" stroke="currentColor" stroke-linecap="round" stroke-width="2"/>
  <mask id="picture-blue-bg__a" fill="#fff">
    <path d="M16 29a3 3 0 1 1 6 0v3.83a.17.17 0 0 1-.17.17h-5.66a.17.17 0 0 1-.17-.17V29Z"/>
  </mask>
  <path stroke="currentColor" stroke-width="6" d="M16 29a3 3 0 1 1 6 0v3.83a.17.17 0 0 1-.17.17h-5.66a.17.17 0 0 1-.17-.17V29Z" mask="url(#picture-blue-bg__a)"/>
  <mask id="picture-blue-bg__b" fill="#fff">
    <path d="M24 31a3 3 0 1 1 6 0v1.878a.122.122 0 0 1-.122.122h-5.756a.122.122 0 0 1-.122-.122V31Z"/>
  </mask>
  <path stroke="currentColor" stroke-width="5" d="M24 31a3 3 0 1 1 6 0v1.878a.122.122 0 0 1-.122.122h-5.756a.122.122 0 0 1-.122-.122V31Z" mask="url(#picture-blue-bg__b)"/>
  <mask id="picture-blue-bg__c" fill="#fff">
    <path d="M20 30.419c0-.232.187-.419.419-.419h1.679A3.902 3.902 0 0 1 26 33.902a.098.098 0 0 1-.098.098H21a1 1 0 0 1-1-1v-2.581Z"/>
  </mask>
  <path stroke="currentColor" stroke-width="4" d="M20 30.419c0-.232.187-.419.419-.419h1.679A3.902 3.902 0 0 1 26 33.902a.098.098 0 0 1-.098.098H21a1 1 0 0 1-1-1v-2.581Z" mask="url(#picture-blue-bg__c)"/>
  <path stroke="currentColor" stroke-width="2" d="M15 30.5v2h18V32c-3-.5-4.5-4-6-4s-1.5 2.5-4 2.5-2.5-5.5-3.5-5.5c-.8 0-3.333 3.667-4.5 5.5Z"/>
  <path stroke="currentColor" stroke-width="2" d="M14 34V14h20v20H14Z"/>
</svg>
