<svg xmlns="http://www.w3.org/2000/svg" width="48" height="48" fill="none" viewBox="0 0 48 48">
  <path fill="#7B7B7B" d="M6 22c0-7.543 0-11.314 2.343-13.657S14.457 6 22 6h4c7.542 0 11.314 0 13.657 2.343S42 14.457 42 22v4c0 7.542 0 11.314-2.343 13.657S33.543 42 26 42h-4c-7.543 0-11.314 0-13.657-2.343S6 33.543 6 26v-4Z"/>
  <path stroke="currentColor" stroke-width="4" d="M6 22c0-7.543 0-11.314 2.343-13.657S14.457 6 22 6h4c7.542 0 11.314 0 13.657 2.343S42 14.457 42 22v4c0 7.542 0 11.314-2.343 13.657S33.543 42 26 42h-4c-7.543 0-11.314 0-13.657-2.343S6 33.543 6 26v-4Z"/>
  <path stroke="currentColor" stroke-linecap="square" stroke-linejoin="round" stroke-width="4" d="M24 16v16m8-8H16"/>
</svg>
