<svg xmlns="http://www.w3.org/2000/svg" width="48" height="48" fill="currentColor" viewBox="0 0 48 48">
  <path d="M32.398 19.471v1.093h1.093v-1.093h-1.093Zm-16.984 9.604v-1.093h-1.093v1.093h1.093Zm11.619-8.51h5.365v-2.187h-5.365v2.187Zm6.458-1.094V13.07h-2.186v6.402h2.186Zm-12.712 8.51h-5.365v2.187h5.365v-2.186Zm-6.458 1.094v6.402h2.186v-6.402h-2.186Zm18.793-9.642c0-.326-.129-.63-.21-.803a4.616 4.616 0 0 0-.438-.723 7.66 7.66 0 0 0-1.695-1.664c-1.55-1.128-3.943-2.111-7.406-2.111v2.186c3.028 0 4.964.852 6.119 1.693.584.425.975.852 1.212 1.179.12.164.193.294.231.375.062.13 0 .059 0-.132h2.187Zm-9.75-5.301c-3.384 0-5.842 1.697-7.42 3.713-1.547 1.978-2.329 4.36-2.329 5.985h2.187c0-1.065.57-2.985 1.864-4.638 1.262-1.613 3.132-2.874 5.699-2.874v-2.186Zm-9.02 15.076c0 .227.064.417.102.52.046.123.105.243.167.354.126.223.297.468.507.722.423.51 1.04 1.1 1.869 1.661 1.665 1.13 4.177 2.138 7.646 2.138v-2.186c-3.024 0-5.11-.873-6.42-1.761a6.795 6.795 0 0 1-1.411-1.247 2.83 2.83 0 0 1-.284-.397c-.024-.043-.03-.06-.027-.05.002.004.01.024.018.058.006.03.02.096.02.188h-2.186Zm10.291 5.395c3.385 0 5.843-1.697 7.42-3.713 1.548-1.978 2.33-4.36 2.33-5.985h-2.187c0 1.065-.571 2.985-1.864 4.637-1.262 1.614-3.133 2.875-5.699 2.875v2.186Z"/>
</svg>
