<svg xmlns="http://www.w3.org/2000/svg" width="48" height="48" fill="currentColor" viewBox="0 0 48 48">
  <path d="M27.402 7.018h-1.7v.085l.008.084 1.692-.169Zm0 0h1.7v-.085l-.009-.084-1.691.169Zm.64 6.4 1.691-.169-1.691.169Zm.032.014 1.077 1.315-1.077-1.316Zm5.156-4.218 1.076 1.315-1.076-1.315Zm.014-.008-.085 1.697.084-1.697Zm.013.009-1.203 1.202 1.203-1.202Zm4.782 4.783 1.202-1.202-1.202 1.202Zm.01.013 1.697-.085-1.697.085Zm-.008.013-1.316-1.076 1.316 1.076ZM33.315 19.8l1.202 1.202.06-.06.054-.065-1.316-1.077Zm0 0-1.202-1.202-.06.06-.054.066 1.316 1.076Zm-.013.025 1.57-.65v-.001l-1.57.65Zm.026.008-.169 1.691.17-1.691Zm7.654.765-.17 1.692.17-1.692Zm.015.004 1.26-1.14-1.26 1.14Zm.003 6.79-1.685-.229v.002l1.685.227Zm-.003.006 1.26 1.14h.001l-1.26-1.14Zm-.015.004.17 1.691-.17-1.691Zm-7.026.702.169 1.692-.17-1.692Zm-.027.008 1.57.651-1.57-.65Zm.013.025-1.316 1.076.054.066.06.06 1.202-1.202Zm0 0 1.316-1.076-.054-.066-.06-.06-1.202 1.202Zm4.471 5.465-1.315 1.076 1.316-1.076Zm0 .027 1.201 1.202-1.202-1.202ZM33.63 38.41l-1.203-1.202 1.203 1.202Zm-.027.002 1.076-1.316-1.076 1.316Zm-5.466-4.472-1.202 1.202.06.06.066.054 1.076-1.316Zm0 0 1.202-1.202-.06-.06-.066-.054-1.076 1.316Zm-.024-.013.65 1.57-.65-1.57Zm-.008.026 1.691.17-1.691-.17Zm-.703 7.028 1.691.17-1.691-.17Zm-6.8.015-1.14 1.26 1.14-1.26Zm-.004-.015 1.692-.17-1.692.17Zm-.765-7.654 1.691-.169-1.691.17Zm-.008-.026-.651 1.57.65-1.57Zm-.025.013-1.076-1.316-.066.054-.06.06 1.202 1.202Zm0 0 1.077 1.316.065-.054.06-.06-1.202-1.202Zm-5.776 4.726-1.076-1.316 1.076 1.316Zm-.013.008-.085 1.697.085-1.697Zm-.013-.01-1.202 1.202 1.202-1.202Zm-4.783-4.782 1.202-1.203-1.202 1.203Zm-.01-.014 1.698-.084-1.697.084Zm.009-.013 1.315 1.076-1.315-1.076Zm4.217-5.156 1.316 1.077-1.316-1.077Zm-.013-.032-.17 1.691h.001l.17-1.691Zm-6.4-.64.17-1.692-.085-.008h-.085v1.7Zm0 0-.17 1.691.085.009h.085v-1.7Zm-.015-.004-1.26 1.14 1.26-1.14Zm0-6.796-1.26-1.14 1.26 1.14Zm.015-.004.17 1.692-.17-1.692Zm7.027-.703.17 1.692-.17-1.692Zm.014-.032 1.316-1.077-1.316 1.077Zm-4.473-5.466-1.315 1.076 1.315-1.076Zm-.007-.014-1.698-.085 1.698.085Zm4.804-4.805.085 1.698-.085-1.698Zm.014.008L13.321 10.9l1.076-1.315Zm5.466 4.472-1.076 1.315 1.076-1.315Zm.033-.014 1.691.17-1.691-.17Zm.702-7.026 1.692.17-1.692-.17Zm.004-.015-1.14-1.26 1.14 1.26Zm6.796 0 1.14-1.26-1.14 1.26Zm1.704.015h-3.4 3.4Zm.631 6.23-.64-6.4-3.383.34.64 6.4 3.383-.34ZM28.7 11.875c.763.316.955.999.993 1.148.037.147.047.293.04.227l-3.383.338a3.905 3.905 0 0 0 .006.056c.004.026.014.108.04.208.04.158.235.846 1.003 1.164l1.301-3.14Zm-1.702.242c-.051.042.059-.054.189-.132a1.69 1.69 0 0 1 1.513-.11l-1.3 3.141a1.71 1.71 0 0 0 1.707-.233l.032-.025.012-.01-2.153-2.631Zm5.155-4.218-5.155 4.218 2.153 2.631 5.155-4.218-2.153-2.631Zm1.175-.39a1.71 1.71 0 0 0-1.138.36l-.027.022-.01.008 2.153 2.631-.028.023a1.691 1.691 0 0 1-1.12.352l.17-3.396Zm1.13.505a3.21 3.21 0 0 0-.033-.033 1.724 1.724 0 0 0-1.097-.472l-.17 3.395a1.691 1.691 0 0 1-.947-.35c-.067-.05-.114-.096-.131-.111l-.026-.025 2.405-2.404Zm4.783 4.783L34.46 8.012l-2.405 2.404 4.783 4.783 2.404-2.404Zm.505 1.13a1.71 1.71 0 0 0-.505-1.13L36.837 15.2l-.025-.026a1.69 1.69 0 0 1-.461-1.079l3.395-.17Zm-.39 1.175.008-.01a1.756 1.756 0 0 0 .125-.175c.099-.158.282-.508.257-.99l-3.395.17a1.69 1.69 0 0 1 .352-1.12l.022-.028 2.631 2.153Zm-4.725 5.776 4.725-5.776-2.631-2.153-4.726 5.776 2.632 2.153Zm-.114.125-2.404-2.404 2.404 2.404Zm.355-1.828a1.69 1.69 0 0 1-.11 1.514c-.077.13-.173.24-.131.189l-2.632-2.153-.01.012a1.764 1.764 0 0 0-.145.207 1.71 1.71 0 0 0-.113 1.533l3.141-1.302Zm-1.374-1.033c-.066-.006.08.004.226.04.15.038.832.23 1.148.993l-3.14 1.302a1.71 1.71 0 0 0 1.412 1.047l.015.001.339-3.383Zm7.653.766-7.654-.766-.338 3.383 7.654.766.338-3.383Zm1.107.554a1.71 1.71 0 0 0-1.06-.55l-.035-.003-.012-.001-.338 3.383-.036-.004a1.69 1.69 0 0 1-1.04-.542l2.52-2.283Zm.442 1.157v-.047c-.001-.026-.003-.094-.014-.18a1.709 1.709 0 0 0-.428-.93l-2.52 2.282a1.691 1.691 0 0 1-.438-1.09v-.035h3.4Zm0 6.764v-6.764h-3.4v6.764h3.4Zm-.016.239a1.74 1.74 0 0 0 .015-.19l.001-.037v-.012h-3.4v-.038c.001-.024.003-.093.015-.18l3.37.457Zm-.426.917c.316-.35.4-.727.426-.919l-3.37-.454c.026-.187.11-.561.423-.908l2.521 2.281Zm-1.107.555h.012l.035-.005a1.725 1.725 0 0 0 1.06-.55l-2.52-2.281a1.691 1.691 0 0 1 1.04-.543l.035-.004.338 3.383Zm-7.026.703 7.026-.703-.338-3.383-7.026.703.338 3.383Zm1.374-1.033a1.69 1.69 0 0 1-1.147.993c-.147.037-.293.046-.227.04l-.338-3.383-.016.001-.04.005a1.71 1.71 0 0 0-1.373 1.043l3.141 1.301Zm-.24-1.702c-.043-.051.053.059.131.189.079.132.426.75.11 1.513l-3.141-1.302a1.71 1.71 0 0 0 .233 1.709c.01.014.02.025.025.031l.01.012 2.631-2.152Zm-.115-.126L32.74 29.34l2.404-2.404Zm4.585 5.59-4.471-5.464-2.632 2.152 4.472 5.465 2.631-2.153Zm.39 1.176a1.71 1.71 0 0 0-.382-1.166l-.008-.01-2.631 2.154-.022-.029a1.691 1.691 0 0 1-.352-1.12l3.395.17Zm-.505 1.13.009-.009.024-.025a1.71 1.71 0 0 0 .472-1.096l-3.395-.17a1.69 1.69 0 0 1 .461-1.079l.025-.025 2.404 2.404Zm-4.782 4.782 4.782-4.782-2.404-2.404-4.783 4.782 2.404 2.404Zm-1.13.506a1.71 1.71 0 0 0 1.096-.473l.025-.024.008-.008-2.404-2.405.026-.025c.016-.015.064-.06.13-.112.144-.11.47-.325.949-.35l.17 3.397Zm-1.176-.39.01.007a2.2 2.2 0 0 0 .175.125c.158.099.508.282.99.258l-.17-3.396a1.69 1.69 0 0 1 .98.253c.07.045.122.085.14.099l.028.022-2.153 2.631Zm-5.465-4.472 5.465 4.471 2.153-2.631-5.465-4.472-2.153 2.632Zm-.126-.114 2.404-2.404-2.404 2.404Zm1.829.355a1.69 1.69 0 0 1-1.514-.11c-.13-.077-.24-.173-.19-.131l2.153-2.632-.012-.01-.031-.025a1.71 1.71 0 0 0-1.708-.233l1.302 3.141Zm1.032-1.374c.007-.066-.003.08-.04.227a1.69 1.69 0 0 1-.993 1.147l-1.301-3.14a1.71 1.71 0 0 0-1.049 1.427l3.383.339Zm-.703 7.027.703-7.027-3.383-.339-.703 7.028 3.383.338Zm-.555 1.107a1.709 1.709 0 0 0 .55-1.06l.004-.035.001-.012-3.383-.338.004-.036a1.691 1.691 0 0 1 .542-1.04l2.282 2.52Zm-1.156.442h.047c.026-.001.094-.003.18-.014a1.71 1.71 0 0 0 .93-.428l-2.282-2.52a1.691 1.691 0 0 1 1.09-.438h.035v3.4Zm-6.764 0h6.764v-3.4h-6.764v3.4Zm-1.156-.442a1.709 1.709 0 0 0 1.109.441l.035.001h.012v-3.4h.036c.023.001.088.003.171.014.18.023.563.102.918.423l-2.281 2.52Zm-.555-1.107v.012l.005.035a1.71 1.71 0 0 0 .55 1.06l2.281-2.52a1.69 1.69 0 0 1 .543 1.04l.004.035-3.383.338Zm-.766-7.654.766 7.654 3.383-.338-.766-7.654-3.383.339Zm1.033 1.375a1.69 1.69 0 0 1-.992-1.148c-.037-.146-.047-.292-.04-.226l3.382-.339-.001-.015a2.02 2.02 0 0 0-.044-.249 1.71 1.71 0 0 0-1.003-1.164l-1.302 3.141Zm1.703-.241c.05-.042-.06.054-.19.132a1.69 1.69 0 0 1-1.513.109l1.302-3.14a1.71 1.71 0 0 0-1.752.267l2.153 2.632Zm.125-.114-2.404-2.404 2.404 2.404Zm-5.901 4.84 5.776-4.726L18.724 32l-5.776 4.726 2.153 2.631Zm-1.175.39a1.709 1.709 0 0 0 1.166-.383l.009-.008-2.153-2.631.028-.022a1.69 1.69 0 0 1 1.12-.352l-.17 3.395Zm-1.13-.506a9469624060.346 9469624060.346 0 0 1 .033.033c.02.018.069.065.137.118.148.114.478.33.96.354l.17-3.395a1.69 1.69 0 0 1 1.078.461l.026.025-2.404 2.404ZM8.012 34.46l4.783 4.782 2.404-2.404-4.783-4.783-2.404 2.405Zm-.505-1.13a1.71 1.71 0 0 0 .505 1.13l2.404-2.405.025.026a1.69 1.69 0 0 1 .462 1.079l-3.396.17Zm.39-1.176-.008.01a1.617 1.617 0 0 0-.125.175 1.71 1.71 0 0 0-.257.99l3.395-.17a1.69 1.69 0 0 1-.351 1.12l-.023.028-2.631-2.153Zm4.218-5.155-4.218 5.155 2.631 2.153 4.218-5.155-2.631-2.153Zm-.242 1.702a1.69 1.69 0 0 1 .11-1.513c.078-.13.174-.24.132-.19l2.631 2.154.01-.012.025-.032a1.71 1.71 0 0 0 .233-1.708l-3.14 1.301Zm1.375 1.033c.066.007-.08-.003-.227-.04a1.69 1.69 0 0 1-1.148-.993l3.141-1.3a1.71 1.71 0 0 0-1.428-1.05l-.338 3.383Zm-6.4-.64 6.4.64.338-3.383-6.4-.64-.338 3.383Zm.169.009v-3.4 3.4Zm-1.276-.564a1.71 1.71 0 0 0 1.107.555l.338-3.383.036.004a1.69 1.69 0 0 1 1.04.542l-2.52 2.282ZM5.3 27.383a2.876 2.876 0 0 0 0 .047c.001.026.003.094.014.18.024.185.104.572.428.93l2.521-2.282a1.69 1.69 0 0 1 .437 1.09v.035H5.3Zm0-6.764v6.764h3.4v-6.764H5.3Zm.442-1.156a1.71 1.71 0 0 0-.442 1.144v.012h3.4v.036c-.001.023-.003.088-.014.171a1.69 1.69 0 0 1-.423.918l-2.52-2.281Zm1.107-.555h-.012l-.035.005a1.71 1.71 0 0 0-1.06.55l2.52 2.281a1.69 1.69 0 0 1-.87.513c-.082.019-.147.027-.17.03l-.035.004-.338-3.383Zm7.027-.703-7.027.703.338 3.383 7.028-.703-.339-3.383Zm-1.374 1.033a1.69 1.69 0 0 1 1.147-.993c.147-.037.293-.047.227-.04l.339 3.383s.008 0 .015-.002l.04-.004c.027-.004.108-.014.209-.04a1.71 1.71 0 0 0 1.164-1.003l-3.141-1.301Zm.241 1.702c.042.052-.054-.059-.132-.189a1.69 1.69 0 0 1-.11-1.513l3.142 1.301a1.71 1.71 0 0 0-.259-1.74l-.01-.012-2.63 2.153Zm-4.472-5.466 4.472 5.466 2.632-2.153-4.473-5.466-2.631 2.153Zm-.39-1.175a1.71 1.71 0 0 0 .36 1.138l.022.028.008.01 2.631-2.154.023.028c.013.018.053.07.098.141.096.154.277.5.253.978l-3.395-.169Zm.505-1.13a1.749 1.749 0 0 0-.15.17 1.71 1.71 0 0 0-.355.96l3.395.17a1.69 1.69 0 0 1-.461 1.078l-.025.026-2.404-2.404Zm4.783-4.783-4.783 4.783 2.404 2.404 4.783-4.783-2.405-2.404Zm1.13-.505a1.71 1.71 0 0 0-1.13.505l2.404 2.404-.026.025a1.69 1.69 0 0 1-1.079.462l-.17-3.396Zm1.175.39-.01-.008-.027-.021a1.71 1.71 0 0 0-1.138-.36l.17 3.395a1.69 1.69 0 0 1-1.12-.352l-.028-.023 2.153-2.631Zm5.465 4.472L15.474 8.27l-2.153 2.632 5.466 4.471 2.152-2.631Zm-1.702-.242a1.69 1.69 0 0 1 1.514.11c.13.078.24.174.188.132l-2.152 2.631.012.01.031.025a1.71 1.71 0 0 0 1.708.233l-1.3-3.14Zm-1.033 1.375c-.006.066.003-.08.04-.227.038-.15.23-.832.993-1.148l1.301 3.142a1.71 1.71 0 0 0 1.048-1.413l.001-.016-3.383-.338Zm.703-7.026-.703 7.026 3.383.338.703-7.026-3.383-.338Zm.555-1.107a1.71 1.71 0 0 0-.55 1.06l-.004.035-.001.012 3.383.338-.004.036c-.003.022-.011.087-.03.169a1.69 1.69 0 0 1-.513.87l-2.281-2.52Zm1.156-.442h-.012a1.748 1.748 0 0 0-.215.014 1.71 1.71 0 0 0-.93.428l2.282 2.521a1.69 1.69 0 0 1-1.09.437h-.035V5.3Zm6.764 0h-6.764v3.4h6.764V5.3Zm1.156.442a1.71 1.71 0 0 0-1.144-.442h-.012v3.4h-.036c-.023-.001-.088-.003-.171-.014a1.69 1.69 0 0 1-.918-.423l2.281-2.52Zm.555 1.107v-.012l-.005-.035a1.725 1.725 0 0 0-.55-1.06l-2.281 2.52a1.69 1.69 0 0 1-.543-1.039l-.004-.036 3.383-.338ZM27.3 24a3.3 3.3 0 0 1-3.3 3.3v3.4c3.7 0 6.7-3 6.7-6.7h-3.4ZM24 20.7a3.3 3.3 0 0 1 3.3 3.3h3.4c0-3.7-3-6.7-6.7-6.7v3.4ZM20.7 24a3.3 3.3 0 0 1 3.3-3.3v-3.4c-3.7 0-6.7 3-6.7 6.7h3.4Zm3.3 3.3a3.3 3.3 0 0 1-3.3-3.3h-3.4c0 3.7 3 6.7 6.7 6.7v-3.4Z"/>
</svg>
