<svg width="48" height="50" viewBox="0 0 48 50" fill="none" xmlns="http://www.w3.org/2000/svg"><path d="M20.857 7.462V2.846h7v4.616" stroke="#EBEBEB" stroke-width="4"/><path d="m14.857 14.923-1.979-.286-.02.142v.144h2Zm19 0h2v-.144l-.02-.142-1.98.286Zm-17.02.287c0 .003.003-.02.016-.073a2.97 2.97 0 0 1 .062-.202c.057-.168.14-.378.251-.616.222-.48.527-1.019.882-1.515.362-.504.731-.9 1.064-1.153.342-.26.51-.266.516-.266v-4c-1.186 0-2.186.513-2.932 1.078-.754.571-1.39 1.302-1.899 2.01a13.56 13.56 0 0 0-1.26 2.165c-.302.65-.568 1.373-.659 1.999l3.959.573Zm2.791-3.825H24.4v-4H19.628v4Zm16.209 3.252c-.103-.707-.451-1.48-.798-2.116a14.057 14.057 0 0 0-1.46-2.153c-.574-.698-1.273-1.405-2.059-1.952-.766-.534-1.782-1.031-2.947-1.031v4c.028 0 .244.023.661.313.397.277.834.697 1.257 1.212.418.508.778 1.052 1.037 1.526.29.531.353.794.35.774l3.959-.573Zm-7.264-7.252H23.802v4H28.574v-4Zm-15.716 7.538V20.5h4v-5.577h-4Zm19 0V20.5h4v-5.577h-4Z" fill="#EBEBEB"/><path d="M14.857 29.678v-7.524h19v7.524l-4.621 17.399H18.452l-3.595-17.4Z" fill="#2067F5" stroke="#EBEBEB" stroke-width="4"/></svg>