<svg width="48" height="50" viewBox="0 0 48 50" fill="none" xmlns="http://www.w3.org/2000/svg">
<path d="M20.8574 7.46158V2.84619H27.8574V5.36367V7.46158" stroke="#EBEBEB" stroke-width="4"/>
<path d="M14.8574 14.9232L12.8781 14.6367L12.8574 14.7792V14.9232H14.8574ZM33.8574 14.9232H35.8574V14.7792L35.8368 14.6367L33.8574 14.9232ZM16.8368 15.2098C16.8363 15.2132 16.8396 15.1903 16.8533 15.1375C16.8666 15.0866 16.8865 15.0191 16.915 14.9353C16.9724 14.7666 17.0559 14.557 17.1662 14.3189C17.388 13.8397 17.6926 13.3004 18.0482 12.8044C18.41 12.2999 18.7792 11.9035 19.1124 11.651C19.4542 11.3919 19.6211 11.3848 19.6281 11.3848V7.38477C18.4424 7.38477 17.4416 7.89827 16.6963 8.46312C15.9424 9.03447 15.3053 9.76529 14.7974 10.4737C14.2834 11.1906 13.8549 11.9502 13.5364 12.6382C13.2353 13.2885 12.9686 14.0112 12.8781 14.6367L16.8368 15.2098ZM19.6281 11.3848C19.6347 11.3848 19.6412 11.3848 19.6477 11.3848C19.6542 11.3848 19.6607 11.3848 19.6672 11.3848C19.6737 11.3848 19.6801 11.3848 19.6866 11.3848C19.6931 11.3848 19.6996 11.3848 19.706 11.3848C19.7125 11.3848 19.7189 11.3848 19.7254 11.3848C19.7318 11.3848 19.7382 11.3848 19.7447 11.3848C19.7511 11.3848 19.7575 11.3848 19.7639 11.3848C19.7703 11.3848 19.7767 11.3848 19.7831 11.3848C19.7895 11.3848 19.7959 11.3848 19.8023 11.3848C19.8087 11.3848 19.815 11.3848 19.8214 11.3848C19.8278 11.3848 19.8341 11.3848 19.8405 11.3848C19.8468 11.3848 19.8531 11.3848 19.8595 11.3848C19.8658 11.3848 19.8721 11.3848 19.8784 11.3848C19.8848 11.3848 19.8911 11.3848 19.8974 11.3848C19.9037 11.3848 19.91 11.3848 19.9162 11.3848C19.9225 11.3848 19.9288 11.3848 19.9351 11.3848C19.9413 11.3848 19.9476 11.3848 19.9538 11.3848C19.9601 11.3848 19.9663 11.3848 19.9726 11.3848C19.9788 11.3848 19.985 11.3848 19.9913 11.3848C19.9975 11.3848 20.0037 11.3848 20.0099 11.3848C20.0161 11.3848 20.0223 11.3848 20.0285 11.3848C20.0347 11.3848 20.0409 11.3848 20.047 11.3848C20.0532 11.3848 20.0594 11.3848 20.0655 11.3848C20.0717 11.3848 20.0778 11.3848 20.084 11.3848C20.0901 11.3848 20.0962 11.3848 20.1024 11.3848C20.1085 11.3848 20.1146 11.3848 20.1207 11.3848C20.1268 11.3848 20.1329 11.3848 20.139 11.3848C20.1451 11.3848 20.1512 11.3848 20.1573 11.3848C20.1634 11.3848 20.1694 11.3848 20.1755 11.3848C20.1816 11.3848 20.1876 11.3848 20.1937 11.3848C20.1997 11.3848 20.2057 11.3848 20.2118 11.3848C20.2178 11.3848 20.2238 11.3848 20.2299 11.3848C20.2359 11.3848 20.2419 11.3848 20.2479 11.3848C20.2539 11.3848 20.2599 11.3848 20.2659 11.3848C20.2718 11.3848 20.2778 11.3848 20.2838 11.3848C20.2898 11.3848 20.2957 11.3848 20.3017 11.3848C20.3076 11.3848 20.3136 11.3848 20.3195 11.3848C20.3255 11.3848 20.3314 11.3848 20.3373 11.3848C20.3432 11.3848 20.3491 11.3848 20.3551 11.3848C20.361 11.3848 20.3669 11.3848 20.3728 11.3848C20.3786 11.3848 20.3845 11.3848 20.3904 11.3848C20.3963 11.3848 20.4022 11.3848 20.408 11.3848C20.4139 11.3848 20.4197 11.3848 20.4256 11.3848C20.4314 11.3848 20.4373 11.3848 20.4431 11.3848C20.4489 11.3848 20.4547 11.3848 20.4606 11.3848C20.4664 11.3848 20.4722 11.3848 20.478 11.3848C20.4838 11.3848 20.4896 11.3848 20.4954 11.3848C20.5011 11.3848 20.5069 11.3848 20.5127 11.3848C20.5185 11.3848 20.5242 11.3848 20.53 11.3848C20.5357 11.3848 20.5415 11.3848 20.5472 11.3848C20.553 11.3848 20.5587 11.3848 20.5644 11.3848C20.5701 11.3848 20.5758 11.3848 20.5816 11.3848C20.5873 11.3848 20.593 11.3848 20.5987 11.3848C20.6043 11.3848 20.61 11.3848 20.6157 11.3848C20.6214 11.3848 20.6271 11.3848 20.6327 11.3848C20.6384 11.3848 20.644 11.3848 20.6497 11.3848C20.6553 11.3848 20.661 11.3848 20.6666 11.3848C20.6722 11.3848 20.6779 11.3848 20.6835 11.3848C20.6891 11.3848 20.6947 11.3848 20.7003 11.3848C20.7059 11.3848 20.7115 11.3848 20.7171 11.3848C20.7227 11.3848 20.7283 11.3848 20.7338 11.3848C20.7394 11.3848 20.745 11.3848 20.7505 11.3848C20.7561 11.3848 20.7616 11.3848 20.7672 11.3848C20.7727 11.3848 20.7782 11.3848 20.7838 11.3848C20.7893 11.3848 20.7948 11.3848 20.8003 11.3848C20.8058 11.3848 20.8113 11.3848 20.8168 11.3848C20.8223 11.3848 20.8278 11.3848 20.8333 11.3848C20.8388 11.3848 20.8443 11.3848 20.8497 11.3848C20.8552 11.3848 20.8606 11.3848 20.8661 11.3848C20.8715 11.3848 20.877 11.3848 20.8824 11.3848C20.8879 11.3848 20.8933 11.3848 20.8987 11.3848C20.9041 11.3848 20.9096 11.3848 20.915 11.3848C20.9204 11.3848 20.9258 11.3848 20.9312 11.3848C20.9365 11.3848 20.9419 11.3848 20.9473 11.3848C20.9527 11.3848 20.9581 11.3848 20.9634 11.3848C20.9688 11.3848 20.9741 11.3848 20.9795 11.3848C20.9848 11.3848 20.9902 11.3848 20.9955 11.3848C21.0008 11.3848 21.0062 11.3848 21.0115 11.3848C21.0168 11.3848 21.0221 11.3848 21.0274 11.3848C21.0327 11.3848 21.038 11.3848 21.0433 11.3848C21.0486 11.3848 21.0539 11.3848 21.0591 11.3848C21.0644 11.3848 21.0697 11.3848 21.0749 11.3848C21.0802 11.3848 21.0854 11.3848 21.0907 11.3848C21.0959 11.3848 21.1012 11.3848 21.1064 11.3848C21.1116 11.3848 21.1168 11.3848 21.122 11.3848C21.1273 11.3848 21.1325 11.3848 21.1377 11.3848C21.1429 11.3848 21.1481 11.3848 21.1532 11.3848C21.1584 11.3848 21.1636 11.3848 21.1688 11.3848C21.1739 11.3848 21.1791 11.3848 21.1843 11.3848C21.1894 11.3848 21.1946 11.3848 21.1997 11.3848C21.2048 11.3848 21.21 11.3848 21.2151 11.3848C21.2202 11.3848 21.2253 11.3848 21.2305 11.3848C21.2356 11.3848 21.2407 11.3848 21.2458 11.3848C21.2509 11.3848 21.256 11.3848 21.261 11.3848C21.2661 11.3848 21.2712 11.3848 21.2763 11.3848C21.2813 11.3848 21.2864 11.3848 21.2914 11.3848C21.2965 11.3848 21.3015 11.3848 21.3066 11.3848C21.3116 11.3848 21.3166 11.3848 21.3217 11.3848C21.3267 11.3848 21.3317 11.3848 21.3367 11.3848C21.3417 11.3848 21.3467 11.3848 21.3517 11.3848C21.3567 11.3848 21.3617 11.3848 21.3667 11.3848C21.3717 11.3848 21.3766 11.3848 21.3816 11.3848C21.3866 11.3848 21.3915 11.3848 21.3965 11.3848C21.4014 11.3848 21.4064 11.3848 21.4113 11.3848C21.4163 11.3848 21.4212 11.3848 21.4261 11.3848C21.431 11.3848 21.4359 11.3848 21.4409 11.3848C21.4458 11.3848 21.4507 11.3848 21.4556 11.3848C21.4605 11.3848 21.4653 11.3848 21.4702 11.3848C21.4751 11.3848 21.48 11.3848 21.4848 11.3848C21.4897 11.3848 21.4946 11.3848 21.4994 11.3848C21.5043 11.3848 21.5091 11.3848 21.5139 11.3848C21.5188 11.3848 21.5236 11.3848 21.5284 11.3848C21.5333 11.3848 21.5381 11.3848 21.5429 11.3848C21.5477 11.3848 21.5525 11.3848 21.5573 11.3848C21.5621 11.3848 21.5669 11.3848 21.5716 11.3848C21.5764 11.3848 21.5812 11.3848 21.586 11.3848C21.5907 11.3848 21.5955 11.3848 21.6002 11.3848C21.605 11.3848 21.6097 11.3848 21.6145 11.3848C21.6192 11.3848 21.6239 11.3848 21.6286 11.3848C21.6334 11.3848 21.6381 11.3848 21.6428 11.3848C21.6475 11.3848 21.6522 11.3848 21.6569 11.3848C21.6616 11.3848 21.6663 11.3848 21.671 11.3848C21.6756 11.3848 21.6803 11.3848 21.685 11.3848C21.6896 11.3848 21.6943 11.3848 21.699 11.3848C21.7036 11.3848 21.7083 11.3848 21.7129 11.3848C21.7175 11.3848 21.7222 11.3848 21.7268 11.3848C21.7314 11.3848 21.736 11.3848 21.7406 11.3848C21.7452 11.3848 21.7499 11.3848 21.7544 11.3848C21.759 11.3848 21.7636 11.3848 21.7682 11.3848C21.7728 11.3848 21.7774 11.3848 21.7819 11.3848C21.7865 11.3848 21.7911 11.3848 21.7956 11.3848C21.8002 11.3848 21.8047 11.3848 21.8093 11.3848C21.8138 11.3848 21.8183 11.3848 21.8229 11.3848C21.8274 11.3848 21.8319 11.3848 21.8364 11.3848C21.8409 11.3848 21.8454 11.3848 21.8499 11.3848C21.8544 11.3848 21.8589 11.3848 21.8634 11.3848C21.8679 11.3848 21.8724 11.3848 21.8768 11.3848C21.8813 11.3848 21.8858 11.3848 21.8902 11.3848C21.8947 11.3848 21.8991 11.3848 21.9036 11.3848C21.908 11.3848 21.9125 11.3848 21.9169 11.3848C21.9213 11.3848 21.9257 11.3848 21.9301 11.3848C21.9346 11.3848 21.939 11.3848 21.9434 11.3848C21.9478 11.3848 21.9522 11.3848 21.9566 11.3848C21.9609 11.3848 21.9653 11.3848 21.9697 11.3848C21.9741 11.3848 21.9784 11.3848 21.9828 11.3848C21.9872 11.3848 21.9915 11.3848 21.9958 11.3848C22.0002 11.3848 22.0045 11.3848 22.0089 11.3848C22.0132 11.3848 22.0175 11.3848 22.0218 11.3848C22.0262 11.3848 22.0305 11.3848 22.0348 11.3848C22.0391 11.3848 22.0434 11.3848 22.0477 11.3848C22.052 11.3848 22.0562 11.3848 22.0605 11.3848C22.0648 11.3848 22.0691 11.3848 22.0733 11.3848C22.0776 11.3848 22.0819 11.3848 22.0861 11.3848C22.0904 11.3848 22.0946 11.3848 22.0988 11.3848C22.1031 11.3848 22.1073 11.3848 22.1115 11.3848C22.1157 11.3848 22.12 11.3848 22.1242 11.3848C22.1284 11.3848 22.1326 11.3848 22.1368 11.3848C22.141 11.3848 22.1452 11.3848 22.1493 11.3848C22.1535 11.3848 22.1577 11.3848 22.1619 11.3848C22.166 11.3848 22.1702 11.3848 22.1744 11.3848C22.1785 11.3848 22.1827 11.3848 22.1868 11.3848C22.1909 11.3848 22.1951 11.3848 22.1992 11.3848C22.2033 11.3848 22.2075 11.3848 22.2116 11.3848C22.2157 11.3848 22.2198 11.3848 22.2239 11.3848C22.228 11.3848 22.2321 11.3848 22.2362 11.3848C22.2403 11.3848 22.2443 11.3848 22.2484 11.3848C22.2525 11.3848 22.2566 11.3848 22.2606 11.3848C22.2647 11.3848 22.2687 11.3848 22.2728 11.3848C22.2768 11.3848 22.2809 11.3848 22.2849 11.3848C22.2889 11.3848 22.293 11.3848 22.297 11.3848C22.301 11.3848 22.305 11.3848 22.309 11.3848C22.313 11.3848 22.317 11.3848 22.321 11.3848C22.325 11.3848 22.329 11.3848 22.333 11.3848C22.337 11.3848 22.341 11.3848 22.3449 11.3848C22.3489 11.3848 22.3528 11.3848 22.3568 11.3848C22.3608 11.3848 22.3647 11.3848 22.3686 11.3848C22.3726 11.3848 22.3765 11.3848 22.3804 11.3848C22.3844 11.3848 22.3883 11.3848 22.3922 11.3848C22.3961 11.3848 22.4 11.3848 22.4039 11.3848C22.4078 11.3848 22.4117 11.3848 22.4156 11.3848C22.4195 11.3848 22.4234 11.3848 22.4273 11.3848C22.4311 11.3848 22.435 11.3848 22.4389 11.3848C22.4427 11.3848 22.4466 11.3848 22.4504 11.3848C22.4543 11.3848 22.4581 11.3848 22.462 11.3848C22.4658 11.3848 22.4696 11.3848 22.4734 11.3848C22.4773 11.3848 22.4811 11.3848 22.4849 11.3848C22.4887 11.3848 22.4925 11.3848 22.4963 11.3848C22.5001 11.3848 22.5039 11.3848 22.5077 11.3848C22.5114 11.3848 22.5152 11.3848 22.519 11.3848C22.5228 11.3848 22.5265 11.3848 22.5303 11.3848C22.534 11.3848 22.5378 11.3848 22.5415 11.3848C22.5453 11.3848 22.549 11.3848 22.5527 11.3848C22.5565 11.3848 22.5602 11.3848 22.5639 11.3848C22.5676 11.3848 22.5713 11.3848 22.5751 11.3848C22.5788 11.3848 22.5825 11.3848 22.5861 11.3848C22.5898 11.3848 22.5935 11.3848 22.5972 11.3848C22.6009 11.3848 22.6046 11.3848 22.6082 11.3848C22.6119 11.3848 22.6155 11.3848 22.6192 11.3848C22.6229 11.3848 22.6265 11.3848 22.6301 11.3848C22.6338 11.3848 22.6374 11.3848 22.641 11.3848C22.6447 11.3848 22.6483 11.3848 22.6519 11.3848C22.6555 11.3848 22.6591 11.3848 22.6627 11.3848C22.6663 11.3848 22.6699 11.3848 22.6735 11.3848C22.6771 11.3848 22.6807 11.3848 22.6843 11.3848C22.6878 11.3848 22.6914 11.3848 22.695 11.3848C22.6985 11.3848 22.7021 11.3848 22.7056 11.3848C22.7092 11.3848 22.7127 11.3848 22.7163 11.3848C22.7198 11.3848 22.7233 11.3848 22.7269 11.3848C22.7304 11.3848 22.7339 11.3848 22.7374 11.3848C22.7409 11.3848 22.7444 11.3848 22.7479 11.3848C22.7514 11.3848 22.7549 11.3848 22.7584 11.3848C22.7619 11.3848 22.7654 11.3848 22.7689 11.3848C22.7723 11.3848 22.7758 11.3848 22.7793 11.3848C22.7827 11.3848 22.7862 11.3848 22.7896 11.3848C22.7931 11.3848 22.7965 11.3848 22.7999 11.3848C22.8034 11.3848 22.8068 11.3848 22.8102 11.3848C22.8137 11.3848 22.8171 11.3848 22.8205 11.3848C22.8239 11.3848 22.8273 11.3848 22.8307 11.3848C22.8341 11.3848 22.8375 11.3848 22.8409 11.3848C22.8443 11.3848 22.8476 11.3848 22.851 11.3848C22.8544 11.3848 22.8578 11.3848 22.8611 11.3848C22.8645 11.3848 22.8678 11.3848 22.8712 11.3848C22.8745 11.3848 22.8779 11.3848 22.8812 11.3848C22.8845 11.3848 22.8879 11.3848 22.8912 11.3848C22.8945 11.3848 22.8978 11.3848 22.9011 11.3848C22.9044 11.3848 22.9078 11.3848 22.911 11.3848C22.9143 11.3848 22.9176 11.3848 22.9209 11.3848C22.9242 11.3848 22.9275 11.3848 22.9308 11.3848C22.934 11.3848 22.9373 11.3848 22.9406 11.3848C22.9438 11.3848 22.9471 11.3848 22.9503 11.3848C22.9536 11.3848 22.9568 11.3848 22.9601 11.3848C22.9633 11.3848 22.9665 11.3848 22.9697 11.3848C22.973 11.3848 22.9762 11.3848 22.9794 11.3848C22.9826 11.3848 22.9858 11.3848 22.989 11.3848C22.9922 11.3848 22.9954 11.3848 22.9986 11.3848C23.0018 11.3848 23.0049 11.3848 23.0081 11.3848C23.0113 11.3848 23.0145 11.3848 23.0176 11.3848C23.0208 11.3848 23.0239 11.3848 23.0271 11.3848C23.0302 11.3848 23.0334 11.3848 23.0365 11.3848C23.0397 11.3848 23.0428 11.3848 23.0459 11.3848C23.049 11.3848 23.0522 11.3848 23.0553 11.3848C23.0584 11.3848 23.0615 11.3848 23.0646 11.3848C23.0677 11.3848 23.0708 11.3848 23.0739 11.3848C23.077 11.3848 23.08 11.3848 23.0831 11.3848C23.0862 11.3848 23.0893 11.3848 23.0923 11.3848C23.0954 11.3848 23.0985 11.3848 23.1015 11.3848C23.1046 11.3848 23.1076 11.3848 23.1106 11.3848C23.1137 11.3848 23.1167 11.3848 23.1197 11.3848C23.1228 11.3848 23.1258 11.3848 23.1288 11.3848C23.1318 11.3848 23.1348 11.3848 23.1378 11.3848C23.1408 11.3848 23.1438 11.3848 23.1468 11.3848C23.1498 11.3848 23.1528 11.3848 23.1558 11.3848C23.1588 11.3848 23.1617 11.3848 23.1647 11.3848C23.1677 11.3848 23.1706 11.3848 23.1736 11.3848C23.1765 11.3848 23.1795 11.3848 23.1824 11.3848C23.1854 11.3848 23.1883 11.3848 23.1912 11.3848C23.1942 11.3848 23.1971 11.3848 23.2 11.3848C23.2029 11.3848 23.2059 11.3848 23.2088 11.3848C23.2117 11.3848 23.2146 11.3848 23.2175 11.3848C23.2204 11.3848 23.2233 11.3848 23.2261 11.3848C23.229 11.3848 23.2319 11.3848 23.2348 11.3848C23.2376 11.3848 23.2405 11.3848 23.2434 11.3848C23.2462 11.3848 23.2491 11.3848 23.2519 11.3848C23.2548 11.3848 23.2576 11.3848 23.2605 11.3848C23.2633 11.3848 23.2661 11.3848 23.2689 11.3848C23.2718 11.3848 23.2746 11.3848 23.2774 11.3848C23.2802 11.3848 23.283 11.3848 23.2858 11.3848C23.2886 11.3848 23.2914 11.3848 23.2942 11.3848C23.297 11.3848 23.2998 11.3848 23.3025 11.3848C23.3053 11.3848 23.3081 11.3848 23.3109 11.3848C23.3136 11.3848 23.3164 11.3848 23.3191 11.3848C23.3219 11.3848 23.3246 11.3848 23.3274 11.3848C23.3301 11.3848 23.3329 11.3848 23.3356 11.3848C23.3383 11.3848 23.341 11.3848 23.3438 11.3848C23.3465 11.3848 23.3492 11.3848 23.3519 11.3848C23.3546 11.3848 23.3573 11.3848 23.36 11.3848C23.3627 11.3848 23.3654 11.3848 23.3681 11.3848C23.3707 11.3848 23.3734 11.3848 23.3761 11.3848C23.3788 11.3848 23.3814 11.3848 23.3841 11.3848C23.3868 11.3848 23.3894 11.3848 23.3921 11.3848C23.3947 11.3848 23.3973 11.3848 23.4 11.3848C23.4026 11.3848 23.4053 11.3848 23.4079 11.3848C23.4105 11.3848 23.4131 11.3848 23.4157 11.3848C23.4183 11.3848 23.421 11.3848 23.4236 11.3848C23.4262 11.3848 23.4288 11.3848 23.4313 11.3848C23.4339 11.3848 23.4365 11.3848 23.4391 11.3848C23.4417 11.3848 23.4443 11.3848 23.4468 11.3848C23.4494 11.3848 23.4519 11.3848 23.4545 11.3848C23.4571 11.3848 23.4596 11.3848 23.4622 11.3848C23.4647 11.3848 23.4672 11.3848 23.4698 11.3848C23.4723 11.3848 23.4748 11.3848 23.4774 11.3848C23.4799 11.3848 23.4824 11.3848 23.4849 11.3848C23.4874 11.3848 23.4899 11.3848 23.4924 11.3848C23.4949 11.3848 23.4974 11.3848 23.4999 11.3848C23.5024 11.3848 23.5049 11.3848 23.5073 11.3848C23.5098 11.3848 23.5123 11.3848 23.5148 11.3848C23.5172 11.3848 23.5197 11.3848 23.5221 11.3848C23.5246 11.3848 23.527 11.3848 23.5295 11.3848C23.5319 11.3848 23.5344 11.3848 23.5368 11.3848C23.5392 11.3848 23.5416 11.3848 23.5441 11.3848C23.5465 11.3848 23.5489 11.3848 23.5513 11.3848C23.5537 11.3848 23.5561 11.3848 23.5585 11.3848C23.5609 11.3848 23.5633 11.3848 23.5657 11.3848C23.5681 11.3848 23.5704 11.3848 23.5728 11.3848C23.5752 11.3848 23.5776 11.3848 23.5799 11.3848C23.5823 11.3848 23.5847 11.3848 23.587 11.3848C23.5894 11.3848 23.5917 11.3848 23.594 11.3848C23.5964 11.3848 23.5987 11.3848 23.601 11.3848C23.6034 11.3848 23.6057 11.3848 23.608 11.3848C23.6103 11.3848 23.6127 11.3848 23.615 11.3848C23.6173 11.3848 23.6196 11.3848 23.6219 11.3848C23.6242 11.3848 23.6265 11.3848 23.6287 11.3848C23.631 11.3848 23.6333 11.3848 23.6356 11.3848C23.6379 11.3848 23.6401 11.3848 23.6424 11.3848C23.6446 11.3848 23.6469 11.3848 23.6492 11.3848C23.6514 11.3848 23.6537 11.3848 23.6559 11.3848C23.6581 11.3848 23.6604 11.3848 23.6626 11.3848C23.6648 11.3848 23.6671 11.3848 23.6693 11.3848C23.6715 11.3848 23.6737 11.3848 23.6759 11.3848C23.6781 11.3848 23.6803 11.3848 23.6825 11.3848C23.6847 11.3848 23.6869 11.3848 23.6891 11.3848C23.6913 11.3848 23.6935 11.3848 23.6956 11.3848C23.6978 11.3848 23.7 11.3848 23.7022 11.3848C23.7043 11.3848 23.7065 11.3848 23.7086 11.3848C23.7108 11.3848 23.7129 11.3848 23.7151 11.3848C23.7172 11.3848 23.7194 11.3848 23.7215 11.3848C23.7236 11.3848 23.7257 11.3848 23.7279 11.3848C23.73 11.3848 23.7321 11.3848 23.7342 11.3848C23.7363 11.3848 23.7384 11.3848 23.7405 11.3848C23.7426 11.3848 23.7447 11.3848 23.7468 11.3848C23.7489 11.3848 23.751 11.3848 23.7531 11.3848C23.7551 11.3848 23.7572 11.3848 23.7593 11.3848C23.7613 11.3848 23.7634 11.3848 23.7655 11.3848C23.7675 11.3848 23.7696 11.3848 23.7716 11.3848C23.7737 11.3848 23.7757 11.3848 23.7777 11.3848C23.7798 11.3848 23.7818 11.3848 23.7838 11.3848C23.7858 11.3848 23.7879 11.3848 23.7899 11.3848C23.7919 11.3848 23.7939 11.3848 23.7959 11.3848C23.7979 11.3848 23.7999 11.3848 23.8019 11.3848C23.8039 11.3848 23.8059 11.3848 23.8079 11.3848C23.8098 11.3848 23.8118 11.3848 23.8138 11.3848C23.8157 11.3848 23.8177 11.3848 23.8197 11.3848C23.8216 11.3848 23.8236 11.3848 23.8255 11.3848C23.8275 11.3848 23.8294 11.3848 23.8314 11.3848C23.8333 11.3848 23.8352 11.3848 23.8372 11.3848C23.8391 11.3848 23.841 11.3848 23.8429 11.3848C23.8449 11.3848 23.8468 11.3848 23.8487 11.3848C23.8506 11.3848 23.8525 11.3848 23.8544 11.3848C23.8563 11.3848 23.8582 11.3848 23.8601 11.3848C23.8619 11.3848 23.8638 11.3848 23.8657 11.3848C23.8676 11.3848 23.8694 11.3848 23.8713 11.3848C23.8732 11.3848 23.875 11.3848 23.8769 11.3848C23.8787 11.3848 23.8806 11.3848 23.8824 11.3848C23.8843 11.3848 23.8861 11.3848 23.888 11.3848C23.8898 11.3848 23.8916 11.3848 23.8934 11.3848C23.8953 11.3848 23.8971 11.3848 23.8989 11.3848C23.9007 11.3848 23.9025 11.3848 23.9043 11.3848C23.9061 11.3848 23.9079 11.3848 23.9097 11.3848C23.9115 11.3848 23.9133 11.3848 23.9151 11.3848C23.9169 11.3848 23.9186 11.3848 23.9204 11.3848C23.9222 11.3848 23.9239 11.3848 23.9257 11.3848C23.9275 11.3848 23.9292 11.3848 23.931 11.3848C23.9327 11.3848 23.9345 11.3848 23.9362 11.3848C23.938 11.3848 23.9397 11.3848 23.9414 11.3848C23.9432 11.3848 23.9449 11.3848 23.9466 11.3848C23.9483 11.3848 23.95 11.3848 23.9517 11.3848C23.9535 11.3848 23.9552 11.3848 23.9569 11.3848C23.9586 11.3848 23.9603 11.3848 23.9619 11.3848C23.9636 11.3848 23.9653 11.3848 23.967 11.3848C23.9687 11.3848 23.9704 11.3848 23.972 11.3848C23.9737 11.3848 23.9754 11.3848 23.977 11.3848C23.9787 11.3848 23.9803 11.3848 23.982 11.3848C23.9836 11.3848 23.9853 11.3848 23.9869 11.3848C23.9885 11.3848 23.9902 11.3848 23.9918 11.3848C23.9934 11.3848 23.9951 11.3848 23.9967 11.3848C23.9983 11.3848 23.9999 11.3848 24.0015 11.3848C24.0031 11.3848 24.0047 11.3848 24.0063 11.3848C24.0079 11.3848 24.0095 11.3848 24.0111 11.3848C24.0127 11.3848 24.0143 11.3848 24.0159 11.3848C24.0174 11.3848 24.019 11.3848 24.0206 11.3848C24.0222 11.3848 24.0237 11.3848 24.0253 11.3848C24.0268 11.3848 24.0284 11.3848 24.0299 11.3848C24.0315 11.3848 24.033 11.3848 24.0346 11.3848C24.0361 11.3848 24.0376 11.3848 24.0392 11.3848C24.0407 11.3848 24.0422 11.3848 24.0437 11.3848C24.0453 11.3848 24.0468 11.3848 24.0483 11.3848C24.0498 11.3848 24.0513 11.3848 24.0528 11.3848C24.0543 11.3848 24.0558 11.3848 24.0573 11.3848C24.0588 11.3848 24.0602 11.3848 24.0617 11.3848C24.0632 11.3848 24.0647 11.3848 24.0661 11.3848C24.0676 11.3848 24.0691 11.3848 24.0705 11.3848C24.072 11.3848 24.0735 11.3848 24.0749 11.3848C24.0764 11.3848 24.0778 11.3848 24.0792 11.3848C24.0807 11.3848 24.0821 11.3848 24.0835 11.3848C24.085 11.3848 24.0864 11.3848 24.0878 11.3848C24.0892 11.3848 24.0907 11.3848 24.0921 11.3848C24.0935 11.3848 24.0949 11.3848 24.0963 11.3848C24.0977 11.3848 24.0991 11.3848 24.1005 11.3848C24.1019 11.3848 24.1033 11.3848 24.1046 11.3848C24.106 11.3848 24.1074 11.3848 24.1088 11.3848C24.1101 11.3848 24.1115 11.3848 24.1129 11.3848C24.1142 11.3848 24.1156 11.3848 24.1169 11.3848C24.1183 11.3848 24.1196 11.3848 24.121 11.3848C24.1223 11.3848 24.1237 11.3848 24.125 11.3848C24.1263 11.3848 24.1277 11.3848 24.129 11.3848C24.1303 11.3848 24.1316 11.3848 24.1329 11.3848C24.1342 11.3848 24.1356 11.3848 24.1369 11.3848C24.1382 11.3848 24.1395 11.3848 24.1408 11.3848C24.1421 11.3848 24.1433 11.3848 24.1446 11.3848C24.1459 11.3848 24.1472 11.3848 24.1485 11.3848C24.1497 11.3848 24.151 11.3848 24.1523 11.3848C24.1536 11.3848 24.1548 11.3848 24.1561 11.3848C24.1573 11.3848 24.1586 11.3848 24.1598 11.3848C24.1611 11.3848 24.1623 11.3848 24.1636 11.3848C24.1648 11.3848 24.166 11.3848 24.1673 11.3848C24.1685 11.3848 24.1697 11.3848 24.1709 11.3848C24.1721 11.3848 24.1734 11.3848 24.1746 11.3848C24.1758 11.3848 24.177 11.3848 24.1782 11.3848C24.1794 11.3848 24.1806 11.3848 24.1818 11.3848C24.183 11.3848 24.1841 11.3848 24.1853 11.3848C24.1865 11.3848 24.1877 11.3848 24.1889 11.3848C24.19 11.3848 24.1912 11.3848 24.1924 11.3848C24.1935 11.3848 24.1947 11.3848 24.1958 11.3848C24.197 11.3848 24.1981 11.3848 24.1993 11.3848C24.2004 11.3848 24.2016 11.3848 24.2027 11.3848C24.2038 11.3848 24.205 11.3848 24.2061 11.3848C24.2072 11.3848 24.2083 11.3848 24.2095 11.3848C24.2106 11.3848 24.2117 11.3848 24.2128 11.3848C24.2139 11.3848 24.215 11.3848 24.2161 11.3848C24.2172 11.3848 24.2183 11.3848 24.2194 11.3848C24.2205 11.3848 24.2215 11.3848 24.2226 11.3848C24.2237 11.3848 24.2248 11.3848 24.2259 11.3848C24.2269 11.3848 24.228 11.3848 24.2291 11.3848C24.2301 11.3848 24.2312 11.3848 24.2322 11.3848C24.2333 11.3848 24.2343 11.3848 24.2354 11.3848C24.2364 11.3848 24.2374 11.3848 24.2385 11.3848C24.2395 11.3848 24.2405 11.3848 24.2416 11.3848C24.2426 11.3848 24.2436 11.3848 24.2446 11.3848C24.2456 11.3848 24.2467 11.3848 24.2477 11.3848C24.2487 11.3848 24.2497 11.3848 24.2507 11.3848C24.2517 11.3848 24.2527 11.3848 24.2536 11.3848C24.2546 11.3848 24.2556 11.3848 24.2566 11.3848C24.2576 11.3848 24.2586 11.3848 24.2595 11.3848C24.2605 11.3848 24.2615 11.3848 24.2624 11.3848C24.2634 11.3848 24.2643 11.3848 24.2653 11.3848C24.2662 11.3848 24.2672 11.3848 24.2681 11.3848C24.2691 11.3848 24.27 11.3848 24.271 11.3848C24.2719 11.3848 24.2728 11.3848 24.2737 11.3848C24.2747 11.3848 24.2756 11.3848 24.2765 11.3848C24.2774 11.3848 24.2783 11.3848 24.2792 11.3848C24.2802 11.3848 24.2811 11.3848 24.282 11.3848C24.2829 11.3848 24.2837 11.3848 24.2846 11.3848C24.2855 11.3848 24.2864 11.3848 24.2873 11.3848C24.2882 11.3848 24.2891 11.3848 24.2899 11.3848C24.2908 11.3848 24.2917 11.3848 24.2925 11.3848C24.2934 11.3848 24.2943 11.3848 24.2951 11.3848C24.296 11.3848 24.2968 11.3848 24.2977 11.3848C24.2985 11.3848 24.2993 11.3848 24.3002 11.3848C24.301 11.3848 24.3019 11.3848 24.3027 11.3848C24.3035 11.3848 24.3043 11.3848 24.3052 11.3848C24.306 11.3848 24.3068 11.3848 24.3076 11.3848C24.3084 11.3848 24.3092 11.3848 24.31 11.3848C24.3108 11.3848 24.3116 11.3848 24.3124 11.3848C24.3132 11.3848 24.314 11.3848 24.3148 11.3848C24.3156 11.3848 24.3164 11.3848 24.3171 11.3848C24.3179 11.3848 24.3187 11.3848 24.3194 11.3848C24.3202 11.3848 24.321 11.3848 24.3217 11.3848C24.3225 11.3848 24.3233 11.3848 24.324 11.3848C24.3248 11.3848 24.3255 11.3848 24.3262 11.3848C24.327 11.3848 24.3277 11.3848 24.3285 11.3848C24.3292 11.3848 24.3299 11.3848 24.3306 11.3848C24.3314 11.3848 24.3321 11.3848 24.3328 11.3848C24.3335 11.3848 24.3342 11.3848 24.3349 11.3848C24.3357 11.3848 24.3364 11.3848 24.3371 11.3848C24.3378 11.3848 24.3384 11.3848 24.3391 11.3848C24.3398 11.3848 24.3405 11.3848 24.3412 11.3848C24.3419 11.3848 24.3426 11.3848 24.3432 11.3848C24.3439 11.3848 24.3446 11.3848 24.3452 11.3848C24.3459 11.3848 24.3466 11.3848 24.3472 11.3848C24.3479 11.3848 24.3485 11.3848 24.3492 11.3848C24.3498 11.3848 24.3505 11.3848 24.3511 11.3848C24.3518 11.3848 24.3524 11.3848 24.353 11.3848C24.3537 11.3848 24.3543 11.3848 24.3549 11.3848C24.3555 11.3848 24.3562 11.3848 24.3568 11.3848C24.3574 11.3848 24.358 11.3848 24.3586 11.3848C24.3592 11.3848 24.3598 11.3848 24.3604 11.3848C24.361 11.3848 24.3616 11.3848 24.3622 11.3848C24.3628 11.3848 24.3634 11.3848 24.364 11.3848C24.3645 11.3848 24.3651 11.3848 24.3657 11.3848C24.3663 11.3848 24.3668 11.3848 24.3674 11.3848C24.368 11.3848 24.3685 11.3848 24.3691 11.3848C24.3696 11.3848 24.3702 11.3848 24.3707 11.3848C24.3713 11.3848 24.3718 11.3848 24.3724 11.3848C24.3729 11.3848 24.3735 11.3848 24.374 11.3848C24.3745 11.3848 24.3751 11.3848 24.3756 11.3848C24.3761 11.3848 24.3766 11.3848 24.3771 11.3848C24.3777 11.3848 24.3782 11.3848 24.3787 11.3848C24.3792 11.3848 24.3797 11.3848 24.3802 11.3848C24.3807 11.3848 24.3812 11.3848 24.3817 11.3848C24.3822 11.3848 24.3827 11.3848 24.3831 11.3848C24.3836 11.3848 24.3841 11.3848 24.3846 11.3848C24.3851 11.3848 24.3855 11.3848 24.386 11.3848C24.3865 11.3848 24.3869 11.3848 24.3874 11.3848C24.3878 11.3848 24.3883 11.3848 24.3888 11.3848C24.3892 11.3848 24.3897 11.3848 24.3901 11.3848C24.3905 11.3848 24.391 11.3848 24.3914 11.3848C24.3919 11.3848 24.3923 11.3848 24.3927 11.3848C24.3931 11.3848 24.3936 11.3848 24.394 11.3848C24.3944 11.3848 24.3948 11.3848 24.3952 11.3848C24.3956 11.3848 24.3961 11.3848 24.3965 11.3848C24.3969 11.3848 24.3973 11.3848 24.3977 11.3848C24.3981 11.3848 24.3984 11.3848 24.3988 11.3848V7.38477C24.3984 7.38477 24.3981 7.38477 24.3977 7.38477C24.3973 7.38477 24.3969 7.38477 24.3965 7.38477C24.3961 7.38477 24.3956 7.38477 24.3952 7.38477C24.3948 7.38477 24.3944 7.38477 24.394 7.38477C24.3936 7.38477 24.3931 7.38477 24.3927 7.38477C24.3923 7.38477 24.3919 7.38477 24.3914 7.38477C24.391 7.38477 24.3905 7.38477 24.3901 7.38477C24.3897 7.38477 24.3892 7.38477 24.3888 7.38477C24.3883 7.38477 24.3878 7.38477 24.3874 7.38477C24.3869 7.38477 24.3865 7.38477 24.386 7.38477C24.3855 7.38477 24.3851 7.38477 24.3846 7.38477C24.3841 7.38477 24.3836 7.38477 24.3831 7.38477C24.3827 7.38477 24.3822 7.38477 24.3817 7.38477C24.3812 7.38477 24.3807 7.38477 24.3802 7.38477C24.3797 7.38477 24.3792 7.38477 24.3787 7.38477C24.3782 7.38477 24.3777 7.38477 24.3771 7.38477C24.3766 7.38477 24.3761 7.38477 24.3756 7.38477C24.3751 7.38477 24.3745 7.38477 24.374 7.38477C24.3735 7.38477 24.3729 7.38477 24.3724 7.38477C24.3718 7.38477 24.3713 7.38477 24.3707 7.38477C24.3702 7.38477 24.3696 7.38477 24.3691 7.38477C24.3685 7.38477 24.368 7.38477 24.3674 7.38477C24.3668 7.38477 24.3663 7.38477 24.3657 7.38477C24.3651 7.38477 24.3645 7.38477 24.364 7.38477C24.3634 7.38477 24.3628 7.38477 24.3622 7.38477C24.3616 7.38477 24.361 7.38477 24.3604 7.38477C24.3598 7.38477 24.3592 7.38477 24.3586 7.38477C24.358 7.38477 24.3574 7.38477 24.3568 7.38477C24.3562 7.38477 24.3555 7.38477 24.3549 7.38477C24.3543 7.38477 24.3537 7.38477 24.353 7.38477C24.3524 7.38477 24.3518 7.38477 24.3511 7.38477C24.3505 7.38477 24.3498 7.38477 24.3492 7.38477C24.3485 7.38477 24.3479 7.38477 24.3472 7.38477C24.3466 7.38477 24.3459 7.38477 24.3452 7.38477C24.3446 7.38477 24.3439 7.38477 24.3432 7.38477C24.3426 7.38477 24.3419 7.38477 24.3412 7.38477C24.3405 7.38477 24.3398 7.38477 24.3391 7.38477C24.3384 7.38477 24.3378 7.38477 24.3371 7.38477C24.3364 7.38477 24.3357 7.38477 24.3349 7.38477C24.3342 7.38477 24.3335 7.38477 24.3328 7.38477C24.3321 7.38477 24.3314 7.38477 24.3306 7.38477C24.3299 7.38477 24.3292 7.38477 24.3285 7.38477C24.3277 7.38477 24.327 7.38477 24.3262 7.38477C24.3255 7.38477 24.3248 7.38477 24.324 7.38477C24.3233 7.38477 24.3225 7.38477 24.3217 7.38477C24.321 7.38477 24.3202 7.38477 24.3194 7.38477C24.3187 7.38477 24.3179 7.38477 24.3171 7.38477C24.3164 7.38477 24.3156 7.38477 24.3148 7.38477C24.314 7.38477 24.3132 7.38477 24.3124 7.38477C24.3116 7.38477 24.3108 7.38477 24.31 7.38477C24.3092 7.38477 24.3084 7.38477 24.3076 7.38477C24.3068 7.38477 24.306 7.38477 24.3052 7.38477C24.3043 7.38477 24.3035 7.38477 24.3027 7.38477C24.3019 7.38477 24.301 7.38477 24.3002 7.38477C24.2993 7.38477 24.2985 7.38477 24.2977 7.38477C24.2968 7.38477 24.296 7.38477 24.2951 7.38477C24.2943 7.38477 24.2934 7.38477 24.2925 7.38477C24.2917 7.38477 24.2908 7.38477 24.2899 7.38477C24.2891 7.38477 24.2882 7.38477 24.2873 7.38477C24.2864 7.38477 24.2855 7.38477 24.2846 7.38477C24.2837 7.38477 24.2829 7.38477 24.282 7.38477C24.2811 7.38477 24.2802 7.38477 24.2792 7.38477C24.2783 7.38477 24.2774 7.38477 24.2765 7.38477C24.2756 7.38477 24.2747 7.38477 24.2737 7.38477C24.2728 7.38477 24.2719 7.38477 24.271 7.38477C24.27 7.38477 24.2691 7.38477 24.2681 7.38477C24.2672 7.38477 24.2662 7.38477 24.2653 7.38477C24.2643 7.38477 24.2634 7.38477 24.2624 7.38477C24.2615 7.38477 24.2605 7.38477 24.2595 7.38477C24.2586 7.38477 24.2576 7.38477 24.2566 7.38477C24.2556 7.38477 24.2546 7.38477 24.2536 7.38477C24.2527 7.38477 24.2517 7.38477 24.2507 7.38477C24.2497 7.38477 24.2487 7.38477 24.2477 7.38477C24.2467 7.38477 24.2456 7.38477 24.2446 7.38477C24.2436 7.38477 24.2426 7.38477 24.2416 7.38477C24.2405 7.38477 24.2395 7.38477 24.2385 7.38477C24.2374 7.38477 24.2364 7.38477 24.2354 7.38477C24.2343 7.38477 24.2333 7.38477 24.2322 7.38477C24.2312 7.38477 24.2301 7.38477 24.2291 7.38477C24.228 7.38477 24.2269 7.38477 24.2259 7.38477C24.2248 7.38477 24.2237 7.38477 24.2226 7.38477C24.2215 7.38477 24.2205 7.38477 24.2194 7.38477C24.2183 7.38477 24.2172 7.38477 24.2161 7.38477C24.215 7.38477 24.2139 7.38477 24.2128 7.38477C24.2117 7.38477 24.2106 7.38477 24.2095 7.38477C24.2083 7.38477 24.2072 7.38477 24.2061 7.38477C24.205 7.38477 24.2038 7.38477 24.2027 7.38477C24.2016 7.38477 24.2004 7.38477 24.1993 7.38477C24.1981 7.38477 24.197 7.38477 24.1958 7.38477C24.1947 7.38477 24.1935 7.38477 24.1924 7.38477C24.1912 7.38477 24.19 7.38477 24.1889 7.38477C24.1877 7.38477 24.1865 7.38477 24.1853 7.38477C24.1841 7.38477 24.183 7.38477 24.1818 7.38477C24.1806 7.38477 24.1794 7.38477 24.1782 7.38477C24.177 7.38477 24.1758 7.38477 24.1746 7.38477C24.1734 7.38477 24.1721 7.38477 24.1709 7.38477C24.1697 7.38477 24.1685 7.38477 24.1673 7.38477C24.166 7.38477 24.1648 7.38477 24.1636 7.38477C24.1623 7.38477 24.1611 7.38477 24.1598 7.38477C24.1586 7.38477 24.1573 7.38477 24.1561 7.38477C24.1548 7.38477 24.1536 7.38477 24.1523 7.38477C24.151 7.38477 24.1497 7.38477 24.1485 7.38477C24.1472 7.38477 24.1459 7.38477 24.1446 7.38477C24.1433 7.38477 24.1421 7.38477 24.1408 7.38477C24.1395 7.38477 24.1382 7.38477 24.1369 7.38477C24.1356 7.38477 24.1342 7.38477 24.1329 7.38477C24.1316 7.38477 24.1303 7.38477 24.129 7.38477C24.1277 7.38477 24.1263 7.38477 24.125 7.38477C24.1237 7.38477 24.1223 7.38477 24.121 7.38477C24.1196 7.38477 24.1183 7.38477 24.1169 7.38477C24.1156 7.38477 24.1142 7.38477 24.1129 7.38477C24.1115 7.38477 24.1101 7.38477 24.1088 7.38477C24.1074 7.38477 24.106 7.38477 24.1046 7.38477C24.1033 7.38477 24.1019 7.38477 24.1005 7.38477C24.0991 7.38477 24.0977 7.38477 24.0963 7.38477C24.0949 7.38477 24.0935 7.38477 24.0921 7.38477C24.0907 7.38477 24.0892 7.38477 24.0878 7.38477C24.0864 7.38477 24.085 7.38477 24.0835 7.38477C24.0821 7.38477 24.0807 7.38477 24.0792 7.38477C24.0778 7.38477 24.0764 7.38477 24.0749 7.38477C24.0735 7.38477 24.072 7.38477 24.0705 7.38477C24.0691 7.38477 24.0676 7.38477 24.0661 7.38477C24.0647 7.38477 24.0632 7.38477 24.0617 7.38477C24.0602 7.38477 24.0588 7.38477 24.0573 7.38477C24.0558 7.38477 24.0543 7.38477 24.0528 7.38477C24.0513 7.38477 24.0498 7.38477 24.0483 7.38477C24.0468 7.38477 24.0453 7.38477 24.0437 7.38477C24.0422 7.38477 24.0407 7.38477 24.0392 7.38477C24.0376 7.38477 24.0361 7.38477 24.0346 7.38477C24.033 7.38477 24.0315 7.38477 24.0299 7.38477C24.0284 7.38477 24.0268 7.38477 24.0253 7.38477C24.0237 7.38477 24.0222 7.38477 24.0206 7.38477C24.019 7.38477 24.0174 7.38477 24.0159 7.38477C24.0143 7.38477 24.0127 7.38477 24.0111 7.38477C24.0095 7.38477 24.0079 7.38477 24.0063 7.38477C24.0047 7.38477 24.0031 7.38477 24.0015 7.38477C23.9999 7.38477 23.9983 7.38477 23.9967 7.38477C23.9951 7.38477 23.9934 7.38477 23.9918 7.38477C23.9902 7.38477 23.9885 7.38477 23.9869 7.38477C23.9853 7.38477 23.9836 7.38477 23.982 7.38477C23.9803 7.38477 23.9787 7.38477 23.977 7.38477C23.9754 7.38477 23.9737 7.38477 23.972 7.38477C23.9704 7.38477 23.9687 7.38477 23.967 7.38477C23.9653 7.38477 23.9636 7.38477 23.9619 7.38477C23.9603 7.38477 23.9586 7.38477 23.9569 7.38477C23.9552 7.38477 23.9535 7.38477 23.9517 7.38477C23.95 7.38477 23.9483 7.38477 23.9466 7.38477C23.9449 7.38477 23.9432 7.38477 23.9414 7.38477C23.9397 7.38477 23.938 7.38477 23.9362 7.38477C23.9345 7.38477 23.9327 7.38477 23.931 7.38477C23.9292 7.38477 23.9275 7.38477 23.9257 7.38477C23.9239 7.38477 23.9222 7.38477 23.9204 7.38477C23.9186 7.38477 23.9169 7.38477 23.9151 7.38477C23.9133 7.38477 23.9115 7.38477 23.9097 7.38477C23.9079 7.38477 23.9061 7.38477 23.9043 7.38477C23.9025 7.38477 23.9007 7.38477 23.8989 7.38477C23.8971 7.38477 23.8953 7.38477 23.8934 7.38477C23.8916 7.38477 23.8898 7.38477 23.888 7.38477C23.8861 7.38477 23.8843 7.38477 23.8824 7.38477C23.8806 7.38477 23.8787 7.38477 23.8769 7.38477C23.875 7.38477 23.8732 7.38477 23.8713 7.38477C23.8694 7.38477 23.8676 7.38477 23.8657 7.38477C23.8638 7.38477 23.8619 7.38477 23.8601 7.38477C23.8582 7.38477 23.8563 7.38477 23.8544 7.38477C23.8525 7.38477 23.8506 7.38477 23.8487 7.38477C23.8468 7.38477 23.8449 7.38477 23.8429 7.38477C23.841 7.38477 23.8391 7.38477 23.8372 7.38477C23.8352 7.38477 23.8333 7.38477 23.8314 7.38477C23.8294 7.38477 23.8275 7.38477 23.8255 7.38477C23.8236 7.38477 23.8216 7.38477 23.8197 7.38477C23.8177 7.38477 23.8157 7.38477 23.8138 7.38477C23.8118 7.38477 23.8098 7.38477 23.8079 7.38477C23.8059 7.38477 23.8039 7.38477 23.8019 7.38477C23.7999 7.38477 23.7979 7.38477 23.7959 7.38477C23.7939 7.38477 23.7919 7.38477 23.7899 7.38477C23.7879 7.38477 23.7858 7.38477 23.7838 7.38477C23.7818 7.38477 23.7798 7.38477 23.7777 7.38477C23.7757 7.38477 23.7737 7.38477 23.7716 7.38477C23.7696 7.38477 23.7675 7.38477 23.7655 7.38477C23.7634 7.38477 23.7613 7.38477 23.7593 7.38477C23.7572 7.38477 23.7551 7.38477 23.7531 7.38477C23.751 7.38477 23.7489 7.38477 23.7468 7.38477C23.7447 7.38477 23.7426 7.38477 23.7405 7.38477C23.7384 7.38477 23.7363 7.38477 23.7342 7.38477C23.7321 7.38477 23.73 7.38477 23.7279 7.38477C23.7257 7.38477 23.7236 7.38477 23.7215 7.38477C23.7194 7.38477 23.7172 7.38477 23.7151 7.38477C23.7129 7.38477 23.7108 7.38477 23.7086 7.38477C23.7065 7.38477 23.7043 7.38477 23.7022 7.38477C23.7 7.38477 23.6978 7.38477 23.6956 7.38477C23.6935 7.38477 23.6913 7.38477 23.6891 7.38477C23.6869 7.38477 23.6847 7.38477 23.6825 7.38477C23.6803 7.38477 23.6781 7.38477 23.6759 7.38477C23.6737 7.38477 23.6715 7.38477 23.6693 7.38477C23.6671 7.38477 23.6648 7.38477 23.6626 7.38477C23.6604 7.38477 23.6581 7.38477 23.6559 7.38477C23.6537 7.38477 23.6514 7.38477 23.6492 7.38477C23.6469 7.38477 23.6446 7.38477 23.6424 7.38477C23.6401 7.38477 23.6379 7.38477 23.6356 7.38477C23.6333 7.38477 23.631 7.38477 23.6287 7.38477C23.6265 7.38477 23.6242 7.38477 23.6219 7.38477C23.6196 7.38477 23.6173 7.38477 23.615 7.38477C23.6127 7.38477 23.6103 7.38477 23.608 7.38477C23.6057 7.38477 23.6034 7.38477 23.601 7.38477C23.5987 7.38477 23.5964 7.38477 23.594 7.38477C23.5917 7.38477 23.5894 7.38477 23.587 7.38477C23.5847 7.38477 23.5823 7.38477 23.5799 7.38477C23.5776 7.38477 23.5752 7.38477 23.5728 7.38477C23.5704 7.38477 23.5681 7.38477 23.5657 7.38477C23.5633 7.38477 23.5609 7.38477 23.5585 7.38477C23.5561 7.38477 23.5537 7.38477 23.5513 7.38477C23.5489 7.38477 23.5465 7.38477 23.5441 7.38477C23.5416 7.38477 23.5392 7.38477 23.5368 7.38477C23.5344 7.38477 23.5319 7.38477 23.5295 7.38477C23.527 7.38477 23.5246 7.38477 23.5221 7.38477C23.5197 7.38477 23.5172 7.38477 23.5148 7.38477C23.5123 7.38477 23.5098 7.38477 23.5073 7.38477C23.5049 7.38477 23.5024 7.38477 23.4999 7.38477C23.4974 7.38477 23.4949 7.38477 23.4924 7.38477C23.4899 7.38477 23.4874 7.38477 23.4849 7.38477C23.4824 7.38477 23.4799 7.38477 23.4774 7.38477C23.4748 7.38477 23.4723 7.38477 23.4698 7.38477C23.4672 7.38477 23.4647 7.38477 23.4622 7.38477C23.4596 7.38477 23.4571 7.38477 23.4545 7.38477C23.4519 7.38477 23.4494 7.38477 23.4468 7.38477C23.4443 7.38477 23.4417 7.38477 23.4391 7.38477C23.4365 7.38477 23.4339 7.38477 23.4313 7.38477C23.4288 7.38477 23.4262 7.38477 23.4236 7.38477C23.421 7.38477 23.4183 7.38477 23.4157 7.38477C23.4131 7.38477 23.4105 7.38477 23.4079 7.38477C23.4053 7.38477 23.4026 7.38477 23.4 7.38477C23.3973 7.38477 23.3947 7.38477 23.3921 7.38477C23.3894 7.38477 23.3868 7.38477 23.3841 7.38477C23.3814 7.38477 23.3788 7.38477 23.3761 7.38477C23.3734 7.38477 23.3707 7.38477 23.3681 7.38477C23.3654 7.38477 23.3627 7.38477 23.36 7.38477C23.3573 7.38477 23.3546 7.38477 23.3519 7.38477C23.3492 7.38477 23.3465 7.38477 23.3438 7.38477C23.341 7.38477 23.3383 7.38477 23.3356 7.38477C23.3329 7.38477 23.3301 7.38477 23.3274 7.38477C23.3246 7.38477 23.3219 7.38477 23.3191 7.38477C23.3164 7.38477 23.3136 7.38477 23.3109 7.38477C23.3081 7.38477 23.3053 7.38477 23.3025 7.38477C23.2998 7.38477 23.297 7.38477 23.2942 7.38477C23.2914 7.38477 23.2886 7.38477 23.2858 7.38477C23.283 7.38477 23.2802 7.38477 23.2774 7.38477C23.2746 7.38477 23.2718 7.38477 23.2689 7.38477C23.2661 7.38477 23.2633 7.38477 23.2605 7.38477C23.2576 7.38477 23.2548 7.38477 23.2519 7.38477C23.2491 7.38477 23.2462 7.38477 23.2434 7.38477C23.2405 7.38477 23.2376 7.38477 23.2348 7.38477C23.2319 7.38477 23.229 7.38477 23.2261 7.38477C23.2233 7.38477 23.2204 7.38477 23.2175 7.38477C23.2146 7.38477 23.2117 7.38477 23.2088 7.38477C23.2059 7.38477 23.2029 7.38477 23.2 7.38477C23.1971 7.38477 23.1942 7.38477 23.1912 7.38477C23.1883 7.38477 23.1854 7.38477 23.1824 7.38477C23.1795 7.38477 23.1765 7.38477 23.1736 7.38477C23.1706 7.38477 23.1677 7.38477 23.1647 7.38477C23.1617 7.38477 23.1588 7.38477 23.1558 7.38477C23.1528 7.38477 23.1498 7.38477 23.1468 7.38477C23.1438 7.38477 23.1408 7.38477 23.1378 7.38477C23.1348 7.38477 23.1318 7.38477 23.1288 7.38477C23.1258 7.38477 23.1228 7.38477 23.1197 7.38477C23.1167 7.38477 23.1137 7.38477 23.1106 7.38477C23.1076 7.38477 23.1046 7.38477 23.1015 7.38477C23.0985 7.38477 23.0954 7.38477 23.0923 7.38477C23.0893 7.38477 23.0862 7.38477 23.0831 7.38477C23.08 7.38477 23.077 7.38477 23.0739 7.38477C23.0708 7.38477 23.0677 7.38477 23.0646 7.38477C23.0615 7.38477 23.0584 7.38477 23.0553 7.38477C23.0522 7.38477 23.049 7.38477 23.0459 7.38477C23.0428 7.38477 23.0397 7.38477 23.0365 7.38477C23.0334 7.38477 23.0302 7.38477 23.0271 7.38477C23.0239 7.38477 23.0208 7.38477 23.0176 7.38477C23.0145 7.38477 23.0113 7.38477 23.0081 7.38477C23.0049 7.38477 23.0018 7.38477 22.9986 7.38477C22.9954 7.38477 22.9922 7.38477 22.989 7.38477C22.9858 7.38477 22.9826 7.38477 22.9794 7.38477C22.9762 7.38477 22.973 7.38477 22.9697 7.38477C22.9665 7.38477 22.9633 7.38477 22.9601 7.38477C22.9568 7.38477 22.9536 7.38477 22.9503 7.38477C22.9471 7.38477 22.9438 7.38477 22.9406 7.38477C22.9373 7.38477 22.934 7.38477 22.9308 7.38477C22.9275 7.38477 22.9242 7.38477 22.9209 7.38477C22.9176 7.38477 22.9143 7.38477 22.911 7.38477C22.9078 7.38477 22.9044 7.38477 22.9011 7.38477C22.8978 7.38477 22.8945 7.38477 22.8912 7.38477C22.8879 7.38477 22.8845 7.38477 22.8812 7.38477C22.8779 7.38477 22.8745 7.38477 22.8712 7.38477C22.8678 7.38477 22.8645 7.38477 22.8611 7.38477C22.8578 7.38477 22.8544 7.38477 22.851 7.38477C22.8476 7.38477 22.8443 7.38477 22.8409 7.38477C22.8375 7.38477 22.8341 7.38477 22.8307 7.38477C22.8273 7.38477 22.8239 7.38477 22.8205 7.38477C22.8171 7.38477 22.8137 7.38477 22.8102 7.38477C22.8068 7.38477 22.8034 7.38477 22.7999 7.38477C22.7965 7.38477 22.7931 7.38477 22.7896 7.38477C22.7862 7.38477 22.7827 7.38477 22.7793 7.38477C22.7758 7.38477 22.7723 7.38477 22.7689 7.38477C22.7654 7.38477 22.7619 7.38477 22.7584 7.38477C22.7549 7.38477 22.7514 7.38477 22.7479 7.38477C22.7444 7.38477 22.7409 7.38477 22.7374 7.38477C22.7339 7.38477 22.7304 7.38477 22.7269 7.38477C22.7233 7.38477 22.7198 7.38477 22.7163 7.38477C22.7127 7.38477 22.7092 7.38477 22.7056 7.38477C22.7021 7.38477 22.6985 7.38477 22.695 7.38477C22.6914 7.38477 22.6878 7.38477 22.6843 7.38477C22.6807 7.38477 22.6771 7.38477 22.6735 7.38477C22.6699 7.38477 22.6663 7.38477 22.6627 7.38477C22.6591 7.38477 22.6555 7.38477 22.6519 7.38477C22.6483 7.38477 22.6447 7.38477 22.641 7.38477C22.6374 7.38477 22.6338 7.38477 22.6301 7.38477C22.6265 7.38477 22.6229 7.38477 22.6192 7.38477C22.6155 7.38477 22.6119 7.38477 22.6082 7.38477C22.6046 7.38477 22.6009 7.38477 22.5972 7.38477C22.5935 7.38477 22.5898 7.38477 22.5861 7.38477C22.5825 7.38477 22.5788 7.38477 22.5751 7.38477C22.5713 7.38477 22.5676 7.38477 22.5639 7.38477C22.5602 7.38477 22.5565 7.38477 22.5527 7.38477C22.549 7.38477 22.5453 7.38477 22.5415 7.38477C22.5378 7.38477 22.534 7.38477 22.5303 7.38477C22.5265 7.38477 22.5228 7.38477 22.519 7.38477C22.5152 7.38477 22.5114 7.38477 22.5077 7.38477C22.5039 7.38477 22.5001 7.38477 22.4963 7.38477C22.4925 7.38477 22.4887 7.38477 22.4849 7.38477C22.4811 7.38477 22.4773 7.38477 22.4734 7.38477C22.4696 7.38477 22.4658 7.38477 22.462 7.38477C22.4581 7.38477 22.4543 7.38477 22.4504 7.38477C22.4466 7.38477 22.4427 7.38477 22.4389 7.38477C22.435 7.38477 22.4311 7.38477 22.4273 7.38477C22.4234 7.38477 22.4195 7.38477 22.4156 7.38477C22.4117 7.38477 22.4078 7.38477 22.4039 7.38477C22.4 7.38477 22.3961 7.38477 22.3922 7.38477C22.3883 7.38477 22.3844 7.38477 22.3804 7.38477C22.3765 7.38477 22.3726 7.38477 22.3686 7.38477C22.3647 7.38477 22.3608 7.38477 22.3568 7.38477C22.3528 7.38477 22.3489 7.38477 22.3449 7.38477C22.341 7.38477 22.337 7.38477 22.333 7.38477C22.329 7.38477 22.325 7.38477 22.321 7.38477C22.317 7.38477 22.313 7.38477 22.309 7.38477C22.305 7.38477 22.301 7.38477 22.297 7.38477C22.293 7.38477 22.2889 7.38477 22.2849 7.38477C22.2809 7.38477 22.2768 7.38477 22.2728 7.38477C22.2687 7.38477 22.2647 7.38477 22.2606 7.38477C22.2566 7.38477 22.2525 7.38477 22.2484 7.38477C22.2443 7.38477 22.2403 7.38477 22.2362 7.38477C22.2321 7.38477 22.228 7.38477 22.2239 7.38477C22.2198 7.38477 22.2157 7.38477 22.2116 7.38477C22.2075 7.38477 22.2033 7.38477 22.1992 7.38477C22.1951 7.38477 22.1909 7.38477 22.1868 7.38477C22.1827 7.38477 22.1785 7.38477 22.1744 7.38477C22.1702 7.38477 22.166 7.38477 22.1619 7.38477C22.1577 7.38477 22.1535 7.38477 22.1493 7.38477C22.1452 7.38477 22.141 7.38477 22.1368 7.38477C22.1326 7.38477 22.1284 7.38477 22.1242 7.38477C22.12 7.38477 22.1157 7.38477 22.1115 7.38477C22.1073 7.38477 22.1031 7.38477 22.0988 7.38477C22.0946 7.38477 22.0904 7.38477 22.0861 7.38477C22.0819 7.38477 22.0776 7.38477 22.0733 7.38477C22.0691 7.38477 22.0648 7.38477 22.0605 7.38477C22.0562 7.38477 22.052 7.38477 22.0477 7.38477C22.0434 7.38477 22.0391 7.38477 22.0348 7.38477C22.0305 7.38477 22.0262 7.38477 22.0218 7.38477C22.0175 7.38477 22.0132 7.38477 22.0089 7.38477C22.0045 7.38477 22.0002 7.38477 21.9958 7.38477C21.9915 7.38477 21.9872 7.38477 21.9828 7.38477C21.9784 7.38477 21.9741 7.38477 21.9697 7.38477C21.9653 7.38477 21.9609 7.38477 21.9566 7.38477C21.9522 7.38477 21.9478 7.38477 21.9434 7.38477C21.939 7.38477 21.9346 7.38477 21.9301 7.38477C21.9257 7.38477 21.9213 7.38477 21.9169 7.38477C21.9125 7.38477 21.908 7.38477 21.9036 7.38477C21.8991 7.38477 21.8947 7.38477 21.8902 7.38477C21.8858 7.38477 21.8813 7.38477 21.8768 7.38477C21.8724 7.38477 21.8679 7.38477 21.8634 7.38477C21.8589 7.38477 21.8544 7.38477 21.8499 7.38477C21.8454 7.38477 21.8409 7.38477 21.8364 7.38477C21.8319 7.38477 21.8274 7.38477 21.8229 7.38477C21.8183 7.38477 21.8138 7.38477 21.8093 7.38477C21.8047 7.38477 21.8002 7.38477 21.7956 7.38477C21.7911 7.38477 21.7865 7.38477 21.7819 7.38477C21.7774 7.38477 21.7728 7.38477 21.7682 7.38477C21.7636 7.38477 21.759 7.38477 21.7544 7.38477C21.7499 7.38477 21.7452 7.38477 21.7406 7.38477C21.736 7.38477 21.7314 7.38477 21.7268 7.38477C21.7222 7.38477 21.7175 7.38477 21.7129 7.38477C21.7083 7.38477 21.7036 7.38477 21.699 7.38477C21.6943 7.38477 21.6896 7.38477 21.685 7.38477C21.6803 7.38477 21.6756 7.38477 21.671 7.38477C21.6663 7.38477 21.6616 7.38477 21.6569 7.38477C21.6522 7.38477 21.6475 7.38477 21.6428 7.38477C21.6381 7.38477 21.6334 7.38477 21.6286 7.38477C21.6239 7.38477 21.6192 7.38477 21.6145 7.38477C21.6097 7.38477 21.605 7.38477 21.6002 7.38477C21.5955 7.38477 21.5907 7.38477 21.586 7.38477C21.5812 7.38477 21.5764 7.38477 21.5716 7.38477C21.5669 7.38477 21.5621 7.38477 21.5573 7.38477C21.5525 7.38477 21.5477 7.38477 21.5429 7.38477C21.5381 7.38477 21.5333 7.38477 21.5284 7.38477C21.5236 7.38477 21.5188 7.38477 21.5139 7.38477C21.5091 7.38477 21.5043 7.38477 21.4994 7.38477C21.4946 7.38477 21.4897 7.38477 21.4848 7.38477C21.48 7.38477 21.4751 7.38477 21.4702 7.38477C21.4653 7.38477 21.4605 7.38477 21.4556 7.38477C21.4507 7.38477 21.4458 7.38477 21.4409 7.38477C21.4359 7.38477 21.431 7.38477 21.4261 7.38477C21.4212 7.38477 21.4163 7.38477 21.4113 7.38477C21.4064 7.38477 21.4014 7.38477 21.3965 7.38477C21.3915 7.38477 21.3866 7.38477 21.3816 7.38477C21.3766 7.38477 21.3717 7.38477 21.3667 7.38477C21.3617 7.38477 21.3567 7.38477 21.3517 7.38477C21.3467 7.38477 21.3417 7.38477 21.3367 7.38477C21.3317 7.38477 21.3267 7.38477 21.3217 7.38477C21.3166 7.38477 21.3116 7.38477 21.3066 7.38477C21.3015 7.38477 21.2965 7.38477 21.2914 7.38477C21.2864 7.38477 21.2813 7.38477 21.2763 7.38477C21.2712 7.38477 21.2661 7.38477 21.261 7.38477C21.256 7.38477 21.2509 7.38477 21.2458 7.38477C21.2407 7.38477 21.2356 7.38477 21.2305 7.38477C21.2253 7.38477 21.2202 7.38477 21.2151 7.38477C21.21 7.38477 21.2048 7.38477 21.1997 7.38477C21.1946 7.38477 21.1894 7.38477 21.1843 7.38477C21.1791 7.38477 21.1739 7.38477 21.1688 7.38477C21.1636 7.38477 21.1584 7.38477 21.1532 7.38477C21.1481 7.38477 21.1429 7.38477 21.1377 7.38477C21.1325 7.38477 21.1273 7.38477 21.122 7.38477C21.1168 7.38477 21.1116 7.38477 21.1064 7.38477C21.1012 7.38477 21.0959 7.38477 21.0907 7.38477C21.0854 7.38477 21.0802 7.38477 21.0749 7.38477C21.0697 7.38477 21.0644 7.38477 21.0591 7.38477C21.0539 7.38477 21.0486 7.38477 21.0433 7.38477C21.038 7.38477 21.0327 7.38477 21.0274 7.38477C21.0221 7.38477 21.0168 7.38477 21.0115 7.38477C21.0062 7.38477 21.0008 7.38477 20.9955 7.38477C20.9902 7.38477 20.9848 7.38477 20.9795 7.38477C20.9741 7.38477 20.9688 7.38477 20.9634 7.38477C20.9581 7.38477 20.9527 7.38477 20.9473 7.38477C20.9419 7.38477 20.9365 7.38477 20.9312 7.38477C20.9258 7.38477 20.9204 7.38477 20.915 7.38477C20.9096 7.38477 20.9041 7.38477 20.8987 7.38477C20.8933 7.38477 20.8879 7.38477 20.8824 7.38477C20.877 7.38477 20.8715 7.38477 20.8661 7.38477C20.8606 7.38477 20.8552 7.38477 20.8497 7.38477C20.8443 7.38477 20.8388 7.38477 20.8333 7.38477C20.8278 7.38477 20.8223 7.38477 20.8168 7.38477C20.8113 7.38477 20.8058 7.38477 20.8003 7.38477C20.7948 7.38477 20.7893 7.38477 20.7838 7.38477C20.7782 7.38477 20.7727 7.38477 20.7672 7.38477C20.7616 7.38477 20.7561 7.38477 20.7505 7.38477C20.745 7.38477 20.7394 7.38477 20.7338 7.38477C20.7283 7.38477 20.7227 7.38477 20.7171 7.38477C20.7115 7.38477 20.7059 7.38477 20.7003 7.38477C20.6947 7.38477 20.6891 7.38477 20.6835 7.38477C20.6779 7.38477 20.6722 7.38477 20.6666 7.38477C20.661 7.38477 20.6553 7.38477 20.6497 7.38477C20.644 7.38477 20.6384 7.38477 20.6327 7.38477C20.6271 7.38477 20.6214 7.38477 20.6157 7.38477C20.61 7.38477 20.6043 7.38477 20.5987 7.38477C20.593 7.38477 20.5873 7.38477 20.5816 7.38477C20.5758 7.38477 20.5701 7.38477 20.5644 7.38477C20.5587 7.38477 20.553 7.38477 20.5472 7.38477C20.5415 7.38477 20.5357 7.38477 20.53 7.38477C20.5242 7.38477 20.5185 7.38477 20.5127 7.38477C20.5069 7.38477 20.5011 7.38477 20.4954 7.38477C20.4896 7.38477 20.4838 7.38477 20.478 7.38477C20.4722 7.38477 20.4664 7.38477 20.4606 7.38477C20.4547 7.38477 20.4489 7.38477 20.4431 7.38477C20.4373 7.38477 20.4314 7.38477 20.4256 7.38477C20.4197 7.38477 20.4139 7.38477 20.408 7.38477C20.4022 7.38477 20.3963 7.38477 20.3904 7.38477C20.3845 7.38477 20.3786 7.38477 20.3728 7.38477C20.3669 7.38477 20.361 7.38477 20.3551 7.38477C20.3491 7.38477 20.3432 7.38477 20.3373 7.38477C20.3314 7.38477 20.3255 7.38477 20.3195 7.38477C20.3136 7.38477 20.3076 7.38477 20.3017 7.38477C20.2957 7.38477 20.2898 7.38477 20.2838 7.38477C20.2778 7.38477 20.2718 7.38477 20.2659 7.38477C20.2599 7.38477 20.2539 7.38477 20.2479 7.38477C20.2419 7.38477 20.2359 7.38477 20.2299 7.38477C20.2238 7.38477 20.2178 7.38477 20.2118 7.38477C20.2057 7.38477 20.1997 7.38477 20.1937 7.38477C20.1876 7.38477 20.1816 7.38477 20.1755 7.38477C20.1694 7.38477 20.1634 7.38477 20.1573 7.38477C20.1512 7.38477 20.1451 7.38477 20.139 7.38477C20.1329 7.38477 20.1268 7.38477 20.1207 7.38477C20.1146 7.38477 20.1085 7.38477 20.1024 7.38477C20.0962 7.38477 20.0901 7.38477 20.084 7.38477C20.0778 7.38477 20.0717 7.38477 20.0655 7.38477C20.0594 7.38477 20.0532 7.38477 20.047 7.38477C20.0409 7.38477 20.0347 7.38477 20.0285 7.38477C20.0223 7.38477 20.0161 7.38477 20.0099 7.38477C20.0037 7.38477 19.9975 7.38477 19.9913 7.38477C19.985 7.38477 19.9788 7.38477 19.9726 7.38477C19.9663 7.38477 19.9601 7.38477 19.9538 7.38477C19.9476 7.38477 19.9413 7.38477 19.9351 7.38477C19.9288 7.38477 19.9225 7.38477 19.9162 7.38477C19.91 7.38477 19.9037 7.38477 19.8974 7.38477C19.8911 7.38477 19.8848 7.38477 19.8784 7.38477C19.8721 7.38477 19.8658 7.38477 19.8595 7.38477C19.8531 7.38477 19.8468 7.38477 19.8405 7.38477C19.8341 7.38477 19.8278 7.38477 19.8214 7.38477C19.815 7.38477 19.8087 7.38477 19.8023 7.38477C19.7959 7.38477 19.7895 7.38477 19.7831 7.38477C19.7767 7.38477 19.7703 7.38477 19.7639 7.38477C19.7575 7.38477 19.7511 7.38477 19.7447 7.38477C19.7382 7.38477 19.7318 7.38477 19.7254 7.38477C19.7189 7.38477 19.7125 7.38477 19.706 7.38477C19.6996 7.38477 19.6931 7.38477 19.6866 7.38477C19.6801 7.38477 19.6737 7.38477 19.6672 7.38477C19.6607 7.38477 19.6542 7.38477 19.6477 7.38477C19.6412 7.38477 19.6347 7.38477 19.6281 7.38477V11.3848ZM35.8368 14.6367C35.7345 13.93 35.386 13.1567 35.0391 12.5208C34.661 11.8277 34.1598 11.0733 33.5797 10.3683C33.0048 9.6696 32.3064 8.96321 31.52 8.41569C30.7539 7.8823 29.7381 7.38477 28.5732 7.38477V11.3848C28.601 11.3848 28.8172 11.4079 29.2344 11.6984C29.6314 11.9748 30.0677 12.3955 30.4909 12.9098C30.9088 13.4178 31.269 13.9622 31.5276 14.4363C31.8174 14.9675 31.881 15.2299 31.8781 15.2098L35.8368 14.6367ZM28.5732 7.38477C28.5667 7.38477 28.5602 7.38477 28.5537 7.38477C28.5472 7.38477 28.5407 7.38477 28.5342 7.38477C28.5277 7.38477 28.5212 7.38477 28.5147 7.38477C28.5082 7.38477 28.5018 7.38477 28.4953 7.38477C28.4889 7.38477 28.4824 7.38477 28.476 7.38477C28.4695 7.38477 28.4631 7.38477 28.4567 7.38477C28.4502 7.38477 28.4438 7.38477 28.4374 7.38477C28.431 7.38477 28.4246 7.38477 28.4182 7.38477C28.4118 7.38477 28.4054 7.38477 28.399 7.38477C28.3927 7.38477 28.3863 7.38477 28.3799 7.38477C28.3736 7.38477 28.3672 7.38477 28.3609 7.38477C28.3545 7.38477 28.3482 7.38477 28.3419 7.38477C28.3355 7.38477 28.3292 7.38477 28.3229 7.38477C28.3166 7.38477 28.3103 7.38477 28.304 7.38477C28.2977 7.38477 28.2914 7.38477 28.2851 7.38477C28.2788 7.38477 28.2725 7.38477 28.2663 7.38477C28.26 7.38477 28.2537 7.38477 28.2475 7.38477C28.2412 7.38477 28.235 7.38477 28.2288 7.38477C28.2225 7.38477 28.2163 7.38477 28.2101 7.38477C28.2039 7.38477 28.1976 7.38477 28.1914 7.38477C28.1852 7.38477 28.179 7.38477 28.1728 7.38477C28.1667 7.38477 28.1605 7.38477 28.1543 7.38477C28.1481 7.38477 28.142 7.38477 28.1358 7.38477C28.1297 7.38477 28.1235 7.38477 28.1174 7.38477C28.1112 7.38477 28.1051 7.38477 28.099 7.38477C28.0928 7.38477 28.0867 7.38477 28.0806 7.38477C28.0745 7.38477 28.0684 7.38477 28.0623 7.38477C28.0562 7.38477 28.0501 7.38477 28.044 7.38477C28.038 7.38477 28.0319 7.38477 28.0258 7.38477C28.0198 7.38477 28.0137 7.38477 28.0077 7.38477C28.0016 7.38477 27.9956 7.38477 27.9895 7.38477C27.9835 7.38477 27.9775 7.38477 27.9715 7.38477C27.9655 7.38477 27.9595 7.38477 27.9535 7.38477C27.9475 7.38477 27.9415 7.38477 27.9355 7.38477C27.9295 7.38477 27.9235 7.38477 27.9175 7.38477C27.9116 7.38477 27.9056 7.38477 27.8997 7.38477C27.8937 7.38477 27.8878 7.38477 27.8818 7.38477C27.8759 7.38477 27.8699 7.38477 27.864 7.38477C27.8581 7.38477 27.8522 7.38477 27.8463 7.38477C27.8404 7.38477 27.8345 7.38477 27.8286 7.38477C27.8227 7.38477 27.8168 7.38477 27.8109 7.38477C27.805 7.38477 27.7992 7.38477 27.7933 7.38477C27.7875 7.38477 27.7816 7.38477 27.7758 7.38477C27.7699 7.38477 27.7641 7.38477 27.7582 7.38477C27.7524 7.38477 27.7466 7.38477 27.7408 7.38477C27.735 7.38477 27.7291 7.38477 27.7233 7.38477C27.7176 7.38477 27.7118 7.38477 27.706 7.38477C27.7002 7.38477 27.6944 7.38477 27.6886 7.38477C27.6829 7.38477 27.6771 7.38477 27.6714 7.38477C27.6656 7.38477 27.6599 7.38477 27.6541 7.38477C27.6484 7.38477 27.6426 7.38477 27.6369 7.38477C27.6312 7.38477 27.6255 7.38477 27.6198 7.38477C27.6141 7.38477 27.6084 7.38477 27.6027 7.38477C27.597 7.38477 27.5913 7.38477 27.5856 7.38477C27.5799 7.38477 27.5743 7.38477 27.5686 7.38477C27.5629 7.38477 27.5573 7.38477 27.5516 7.38477C27.546 7.38477 27.5404 7.38477 27.5347 7.38477C27.5291 7.38477 27.5235 7.38477 27.5179 7.38477C27.5122 7.38477 27.5066 7.38477 27.501 7.38477C27.4954 7.38477 27.4898 7.38477 27.4842 7.38477C27.4787 7.38477 27.4731 7.38477 27.4675 7.38477C27.4619 7.38477 27.4564 7.38477 27.4508 7.38477C27.4453 7.38477 27.4397 7.38477 27.4342 7.38477C27.4286 7.38477 27.4231 7.38477 27.4176 7.38477C27.412 7.38477 27.4065 7.38477 27.401 7.38477C27.3955 7.38477 27.39 7.38477 27.3845 7.38477C27.379 7.38477 27.3735 7.38477 27.368 7.38477C27.3625 7.38477 27.3571 7.38477 27.3516 7.38477C27.3461 7.38477 27.3407 7.38477 27.3352 7.38477C27.3298 7.38477 27.3243 7.38477 27.3189 7.38477C27.3135 7.38477 27.308 7.38477 27.3026 7.38477C27.2972 7.38477 27.2918 7.38477 27.2864 7.38477C27.281 7.38477 27.2756 7.38477 27.2702 7.38477C27.2648 7.38477 27.2594 7.38477 27.254 7.38477C27.2486 7.38477 27.2433 7.38477 27.2379 7.38477C27.2326 7.38477 27.2272 7.38477 27.2219 7.38477C27.2165 7.38477 27.2112 7.38477 27.2058 7.38477C27.2005 7.38477 27.1952 7.38477 27.1899 7.38477C27.1845 7.38477 27.1792 7.38477 27.1739 7.38477C27.1686 7.38477 27.1633 7.38477 27.158 7.38477C27.1528 7.38477 27.1475 7.38477 27.1422 7.38477C27.1369 7.38477 27.1317 7.38477 27.1264 7.38477C27.1212 7.38477 27.1159 7.38477 27.1107 7.38477C27.1054 7.38477 27.1002 7.38477 27.0949 7.38477C27.0897 7.38477 27.0845 7.38477 27.0793 7.38477C27.0741 7.38477 27.0689 7.38477 27.0637 7.38477C27.0585 7.38477 27.0533 7.38477 27.0481 7.38477C27.0429 7.38477 27.0377 7.38477 27.0326 7.38477C27.0274 7.38477 27.0222 7.38477 27.0171 7.38477C27.0119 7.38477 27.0068 7.38477 27.0016 7.38477C26.9965 7.38477 26.9914 7.38477 26.9862 7.38477C26.9811 7.38477 26.976 7.38477 26.9709 7.38477C26.9658 7.38477 26.9607 7.38477 26.9556 7.38477C26.9505 7.38477 26.9454 7.38477 26.9403 7.38477C26.9352 7.38477 26.9301 7.38477 26.9251 7.38477C26.92 7.38477 26.9149 7.38477 26.9099 7.38477C26.9048 7.38477 26.8998 7.38477 26.8948 7.38477C26.8897 7.38477 26.8847 7.38477 26.8797 7.38477C26.8746 7.38477 26.8696 7.38477 26.8646 7.38477C26.8596 7.38477 26.8546 7.38477 26.8496 7.38477C26.8446 7.38477 26.8396 7.38477 26.8346 7.38477C26.8297 7.38477 26.8247 7.38477 26.8197 7.38477C26.8148 7.38477 26.8098 7.38477 26.8048 7.38477C26.7999 7.38477 26.7949 7.38477 26.79 7.38477C26.7851 7.38477 26.7801 7.38477 26.7752 7.38477C26.7703 7.38477 26.7654 7.38477 26.7605 7.38477C26.7556 7.38477 26.7507 7.38477 26.7458 7.38477C26.7409 7.38477 26.736 7.38477 26.7311 7.38477C26.7262 7.38477 26.7214 7.38477 26.7165 7.38477C26.7116 7.38477 26.7068 7.38477 26.7019 7.38477C26.6971 7.38477 26.6922 7.38477 26.6874 7.38477C26.6826 7.38477 26.6777 7.38477 26.6729 7.38477C26.6681 7.38477 26.6633 7.38477 26.6585 7.38477C26.6536 7.38477 26.6488 7.38477 26.6441 7.38477C26.6393 7.38477 26.6345 7.38477 26.6297 7.38477C26.6249 7.38477 26.6201 7.38477 26.6154 7.38477C26.6106 7.38477 26.6059 7.38477 26.6011 7.38477C26.5964 7.38477 26.5916 7.38477 26.5869 7.38477C26.5821 7.38477 26.5774 7.38477 26.5727 7.38477C26.568 7.38477 26.5632 7.38477 26.5585 7.38477C26.5538 7.38477 26.5491 7.38477 26.5444 7.38477C26.5397 7.38477 26.535 7.38477 26.5304 7.38477C26.5257 7.38477 26.521 7.38477 26.5163 7.38477C26.5117 7.38477 26.507 7.38477 26.5024 7.38477C26.4977 7.38477 26.4931 7.38477 26.4884 7.38477C26.4838 7.38477 26.4792 7.38477 26.4745 7.38477C26.4699 7.38477 26.4653 7.38477 26.4607 7.38477C26.4561 7.38477 26.4515 7.38477 26.4469 7.38477C26.4423 7.38477 26.4377 7.38477 26.4331 7.38477C26.4285 7.38477 26.424 7.38477 26.4194 7.38477C26.4148 7.38477 26.4103 7.38477 26.4057 7.38477C26.4012 7.38477 26.3966 7.38477 26.3921 7.38477C26.3875 7.38477 26.383 7.38477 26.3785 7.38477C26.3739 7.38477 26.3694 7.38477 26.3649 7.38477C26.3604 7.38477 26.3559 7.38477 26.3514 7.38477C26.3469 7.38477 26.3424 7.38477 26.3379 7.38477C26.3334 7.38477 26.329 7.38477 26.3245 7.38477C26.32 7.38477 26.3156 7.38477 26.3111 7.38477C26.3066 7.38477 26.3022 7.38477 26.2978 7.38477C26.2933 7.38477 26.2889 7.38477 26.2845 7.38477C26.28 7.38477 26.2756 7.38477 26.2712 7.38477C26.2668 7.38477 26.2624 7.38477 26.258 7.38477C26.2536 7.38477 26.2492 7.38477 26.2448 7.38477C26.2404 7.38477 26.236 7.38477 26.2316 7.38477C26.2273 7.38477 26.2229 7.38477 26.2185 7.38477C26.2142 7.38477 26.2098 7.38477 26.2055 7.38477C26.2011 7.38477 26.1968 7.38477 26.1925 7.38477C26.1881 7.38477 26.1838 7.38477 26.1795 7.38477C26.1752 7.38477 26.1709 7.38477 26.1666 7.38477C26.1622 7.38477 26.158 7.38477 26.1537 7.38477C26.1494 7.38477 26.1451 7.38477 26.1408 7.38477C26.1365 7.38477 26.1323 7.38477 26.128 7.38477C26.1237 7.38477 26.1195 7.38477 26.1152 7.38477C26.111 7.38477 26.1067 7.38477 26.1025 7.38477C26.0983 7.38477 26.094 7.38477 26.0898 7.38477C26.0856 7.38477 26.0814 7.38477 26.0772 7.38477C26.0729 7.38477 26.0687 7.38477 26.0646 7.38477C26.0604 7.38477 26.0562 7.38477 26.052 7.38477C26.0478 7.38477 26.0436 7.38477 26.0395 7.38477C26.0353 7.38477 26.0311 7.38477 26.027 7.38477C26.0228 7.38477 26.0187 7.38477 26.0145 7.38477C26.0104 7.38477 26.0063 7.38477 26.0021 7.38477C25.998 7.38477 25.9939 7.38477 25.9898 7.38477C25.9856 7.38477 25.9815 7.38477 25.9774 7.38477C25.9733 7.38477 25.9692 7.38477 25.9652 7.38477C25.9611 7.38477 25.957 7.38477 25.9529 7.38477C25.9488 7.38477 25.9448 7.38477 25.9407 7.38477C25.9366 7.38477 25.9326 7.38477 25.9285 7.38477C25.9245 7.38477 25.9205 7.38477 25.9164 7.38477C25.9124 7.38477 25.9084 7.38477 25.9043 7.38477C25.9003 7.38477 25.8963 7.38477 25.8923 7.38477C25.8883 7.38477 25.8843 7.38477 25.8803 7.38477C25.8763 7.38477 25.8723 7.38477 25.8683 7.38477C25.8644 7.38477 25.8604 7.38477 25.8564 7.38477C25.8524 7.38477 25.8485 7.38477 25.8445 7.38477C25.8406 7.38477 25.8366 7.38477 25.8327 7.38477C25.8287 7.38477 25.8248 7.38477 25.8209 7.38477C25.817 7.38477 25.813 7.38477 25.8091 7.38477C25.8052 7.38477 25.8013 7.38477 25.7974 7.38477C25.7935 7.38477 25.7896 7.38477 25.7857 7.38477C25.7818 7.38477 25.7779 7.38477 25.7741 7.38477C25.7702 7.38477 25.7663 7.38477 25.7625 7.38477C25.7586 7.38477 25.7547 7.38477 25.7509 7.38477C25.7471 7.38477 25.7432 7.38477 25.7394 7.38477C25.7355 7.38477 25.7317 7.38477 25.7279 7.38477C25.7241 7.38477 25.7202 7.38477 25.7164 7.38477C25.7126 7.38477 25.7088 7.38477 25.705 7.38477C25.7012 7.38477 25.6974 7.38477 25.6937 7.38477C25.6899 7.38477 25.6861 7.38477 25.6823 7.38477C25.6786 7.38477 25.6748 7.38477 25.671 7.38477C25.6673 7.38477 25.6635 7.38477 25.6598 7.38477C25.656 7.38477 25.6523 7.38477 25.6486 7.38477C25.6449 7.38477 25.6411 7.38477 25.6374 7.38477C25.6337 7.38477 25.63 7.38477 25.6263 7.38477C25.6226 7.38477 25.6189 7.38477 25.6152 7.38477C25.6115 7.38477 25.6078 7.38477 25.6041 7.38477C25.6004 7.38477 25.5968 7.38477 25.5931 7.38477C25.5894 7.38477 25.5858 7.38477 25.5821 7.38477C25.5785 7.38477 25.5748 7.38477 25.5712 7.38477C25.5675 7.38477 25.5639 7.38477 25.5603 7.38477C25.5567 7.38477 25.553 7.38477 25.5494 7.38477C25.5458 7.38477 25.5422 7.38477 25.5386 7.38477C25.535 7.38477 25.5314 7.38477 25.5278 7.38477C25.5242 7.38477 25.5206 7.38477 25.5171 7.38477C25.5135 7.38477 25.5099 7.38477 25.5064 7.38477C25.5028 7.38477 25.4992 7.38477 25.4957 7.38477C25.4921 7.38477 25.4886 7.38477 25.4851 7.38477C25.4815 7.38477 25.478 7.38477 25.4745 7.38477C25.4709 7.38477 25.4674 7.38477 25.4639 7.38477C25.4604 7.38477 25.4569 7.38477 25.4534 7.38477C25.4499 7.38477 25.4464 7.38477 25.4429 7.38477C25.4394 7.38477 25.4359 7.38477 25.4325 7.38477C25.429 7.38477 25.4255 7.38477 25.4221 7.38477C25.4186 7.38477 25.4152 7.38477 25.4117 7.38477C25.4083 7.38477 25.4048 7.38477 25.4014 7.38477C25.3979 7.38477 25.3945 7.38477 25.3911 7.38477C25.3877 7.38477 25.3843 7.38477 25.3808 7.38477C25.3774 7.38477 25.374 7.38477 25.3706 7.38477C25.3672 7.38477 25.3638 7.38477 25.3605 7.38477C25.3571 7.38477 25.3537 7.38477 25.3503 7.38477C25.3469 7.38477 25.3436 7.38477 25.3402 7.38477C25.3369 7.38477 25.3335 7.38477 25.3302 7.38477C25.3268 7.38477 25.3235 7.38477 25.3201 7.38477C25.3168 7.38477 25.3135 7.38477 25.3101 7.38477C25.3068 7.38477 25.3035 7.38477 25.3002 7.38477C25.2969 7.38477 25.2936 7.38477 25.2903 7.38477C25.287 7.38477 25.2837 7.38477 25.2804 7.38477C25.2771 7.38477 25.2738 7.38477 25.2706 7.38477C25.2673 7.38477 25.264 7.38477 25.2608 7.38477C25.2575 7.38477 25.2543 7.38477 25.251 7.38477C25.2478 7.38477 25.2445 7.38477 25.2413 7.38477C25.238 7.38477 25.2348 7.38477 25.2316 7.38477C25.2284 7.38477 25.2252 7.38477 25.2219 7.38477C25.2187 7.38477 25.2155 7.38477 25.2123 7.38477C25.2091 7.38477 25.2059 7.38477 25.2027 7.38477C25.1996 7.38477 25.1964 7.38477 25.1932 7.38477C25.19 7.38477 25.1869 7.38477 25.1837 7.38477C25.1805 7.38477 25.1774 7.38477 25.1742 7.38477C25.1711 7.38477 25.1679 7.38477 25.1648 7.38477C25.1617 7.38477 25.1585 7.38477 25.1554 7.38477C25.1523 7.38477 25.1492 7.38477 25.1461 7.38477C25.1429 7.38477 25.1398 7.38477 25.1367 7.38477C25.1336 7.38477 25.1305 7.38477 25.1275 7.38477C25.1244 7.38477 25.1213 7.38477 25.1182 7.38477C25.1151 7.38477 25.1121 7.38477 25.109 7.38477C25.1059 7.38477 25.1029 7.38477 25.0998 7.38477C25.0968 7.38477 25.0937 7.38477 25.0907 7.38477C25.0876 7.38477 25.0846 7.38477 25.0816 7.38477C25.0786 7.38477 25.0755 7.38477 25.0725 7.38477C25.0695 7.38477 25.0665 7.38477 25.0635 7.38477C25.0605 7.38477 25.0575 7.38477 25.0545 7.38477C25.0515 7.38477 25.0485 7.38477 25.0455 7.38477C25.0426 7.38477 25.0396 7.38477 25.0366 7.38477C25.0337 7.38477 25.0307 7.38477 25.0277 7.38477C25.0248 7.38477 25.0218 7.38477 25.0189 7.38477C25.0159 7.38477 25.013 7.38477 25.0101 7.38477C25.0071 7.38477 25.0042 7.38477 25.0013 7.38477C24.9984 7.38477 24.9955 7.38477 24.9926 7.38477C24.9897 7.38477 24.9868 7.38477 24.9839 7.38477C24.981 7.38477 24.9781 7.38477 24.9752 7.38477C24.9723 7.38477 24.9694 7.38477 24.9666 7.38477C24.9637 7.38477 24.9608 7.38477 24.958 7.38477C24.9551 7.38477 24.9523 7.38477 24.9494 7.38477C24.9466 7.38477 24.9437 7.38477 24.9409 7.38477C24.938 7.38477 24.9352 7.38477 24.9324 7.38477C24.9296 7.38477 24.9267 7.38477 24.9239 7.38477C24.9211 7.38477 24.9183 7.38477 24.9155 7.38477C24.9127 7.38477 24.9099 7.38477 24.9071 7.38477C24.9043 7.38477 24.9016 7.38477 24.8988 7.38477C24.896 7.38477 24.8932 7.38477 24.8905 7.38477C24.8877 7.38477 24.8849 7.38477 24.8822 7.38477C24.8794 7.38477 24.8767 7.38477 24.874 7.38477C24.8712 7.38477 24.8685 7.38477 24.8657 7.38477C24.863 7.38477 24.8603 7.38477 24.8576 7.38477C24.8549 7.38477 24.8521 7.38477 24.8494 7.38477C24.8467 7.38477 24.844 7.38477 24.8413 7.38477C24.8386 7.38477 24.8359 7.38477 24.8333 7.38477C24.8306 7.38477 24.8279 7.38477 24.8252 7.38477C24.8226 7.38477 24.8199 7.38477 24.8172 7.38477C24.8146 7.38477 24.8119 7.38477 24.8093 7.38477C24.8066 7.38477 24.804 7.38477 24.8013 7.38477C24.7987 7.38477 24.7961 7.38477 24.7935 7.38477C24.7908 7.38477 24.7882 7.38477 24.7856 7.38477C24.783 7.38477 24.7804 7.38477 24.7778 7.38477C24.7752 7.38477 24.7726 7.38477 24.77 7.38477C24.7674 7.38477 24.7648 7.38477 24.7622 7.38477C24.7597 7.38477 24.7571 7.38477 24.7545 7.38477C24.7519 7.38477 24.7494 7.38477 24.7468 7.38477C24.7443 7.38477 24.7417 7.38477 24.7392 7.38477C24.7366 7.38477 24.7341 7.38477 24.7316 7.38477C24.729 7.38477 24.7265 7.38477 24.724 7.38477C24.7215 7.38477 24.7189 7.38477 24.7164 7.38477C24.7139 7.38477 24.7114 7.38477 24.7089 7.38477C24.7064 7.38477 24.7039 7.38477 24.7014 7.38477C24.6989 7.38477 24.6965 7.38477 24.694 7.38477C24.6915 7.38477 24.689 7.38477 24.6866 7.38477C24.6841 7.38477 24.6817 7.38477 24.6792 7.38477C24.6767 7.38477 24.6743 7.38477 24.6719 7.38477C24.6694 7.38477 24.667 7.38477 24.6645 7.38477C24.6621 7.38477 24.6597 7.38477 24.6573 7.38477C24.6549 7.38477 24.6524 7.38477 24.65 7.38477C24.6476 7.38477 24.6452 7.38477 24.6428 7.38477C24.6404 7.38477 24.638 7.38477 24.6356 7.38477C24.6333 7.38477 24.6309 7.38477 24.6285 7.38477C24.6261 7.38477 24.6238 7.38477 24.6214 7.38477C24.619 7.38477 24.6167 7.38477 24.6143 7.38477C24.612 7.38477 24.6096 7.38477 24.6073 7.38477C24.6049 7.38477 24.6026 7.38477 24.6003 7.38477C24.5979 7.38477 24.5956 7.38477 24.5933 7.38477C24.591 7.38477 24.5887 7.38477 24.5864 7.38477C24.5841 7.38477 24.5818 7.38477 24.5795 7.38477C24.5772 7.38477 24.5749 7.38477 24.5726 7.38477C24.5703 7.38477 24.568 7.38477 24.5657 7.38477C24.5635 7.38477 24.5612 7.38477 24.5589 7.38477C24.5567 7.38477 24.5544 7.38477 24.5522 7.38477C24.5499 7.38477 24.5477 7.38477 24.5454 7.38477C24.5432 7.38477 24.541 7.38477 24.5387 7.38477C24.5365 7.38477 24.5343 7.38477 24.532 7.38477C24.5298 7.38477 24.5276 7.38477 24.5254 7.38477C24.5232 7.38477 24.521 7.38477 24.5188 7.38477C24.5166 7.38477 24.5144 7.38477 24.5122 7.38477C24.51 7.38477 24.5079 7.38477 24.5057 7.38477C24.5035 7.38477 24.5013 7.38477 24.4992 7.38477C24.497 7.38477 24.4949 7.38477 24.4927 7.38477C24.4905 7.38477 24.4884 7.38477 24.4863 7.38477C24.4841 7.38477 24.482 7.38477 24.4798 7.38477C24.4777 7.38477 24.4756 7.38477 24.4735 7.38477C24.4713 7.38477 24.4692 7.38477 24.4671 7.38477C24.465 7.38477 24.4629 7.38477 24.4608 7.38477C24.4587 7.38477 24.4566 7.38477 24.4545 7.38477C24.4524 7.38477 24.4503 7.38477 24.4483 7.38477C24.4462 7.38477 24.4441 7.38477 24.4421 7.38477C24.44 7.38477 24.4379 7.38477 24.4359 7.38477C24.4338 7.38477 24.4318 7.38477 24.4297 7.38477C24.4277 7.38477 24.4256 7.38477 24.4236 7.38477C24.4216 7.38477 24.4195 7.38477 24.4175 7.38477C24.4155 7.38477 24.4135 7.38477 24.4115 7.38477C24.4094 7.38477 24.4074 7.38477 24.4054 7.38477C24.4034 7.38477 24.4014 7.38477 24.3994 7.38477C24.3974 7.38477 24.3955 7.38477 24.3935 7.38477C24.3915 7.38477 24.3895 7.38477 24.3876 7.38477C24.3856 7.38477 24.3836 7.38477 24.3817 7.38477C24.3797 7.38477 24.3777 7.38477 24.3758 7.38477C24.3738 7.38477 24.3719 7.38477 24.37 7.38477C24.368 7.38477 24.3661 7.38477 24.3642 7.38477C24.3622 7.38477 24.3603 7.38477 24.3584 7.38477C24.3565 7.38477 24.3546 7.38477 24.3527 7.38477C24.3507 7.38477 24.3488 7.38477 24.3469 7.38477C24.345 7.38477 24.3432 7.38477 24.3413 7.38477C24.3394 7.38477 24.3375 7.38477 24.3356 7.38477C24.3338 7.38477 24.3319 7.38477 24.33 7.38477C24.3282 7.38477 24.3263 7.38477 24.3244 7.38477C24.3226 7.38477 24.3207 7.38477 24.3189 7.38477C24.317 7.38477 24.3152 7.38477 24.3134 7.38477C24.3115 7.38477 24.3097 7.38477 24.3079 7.38477C24.3061 7.38477 24.3042 7.38477 24.3024 7.38477C24.3006 7.38477 24.2988 7.38477 24.297 7.38477C24.2952 7.38477 24.2934 7.38477 24.2916 7.38477C24.2898 7.38477 24.288 7.38477 24.2863 7.38477C24.2845 7.38477 24.2827 7.38477 24.2809 7.38477C24.2792 7.38477 24.2774 7.38477 24.2756 7.38477C24.2739 7.38477 24.2721 7.38477 24.2704 7.38477C24.2686 7.38477 24.2669 7.38477 24.2651 7.38477C24.2634 7.38477 24.2616 7.38477 24.2599 7.38477C24.2582 7.38477 24.2565 7.38477 24.2547 7.38477C24.253 7.38477 24.2513 7.38477 24.2496 7.38477C24.2479 7.38477 24.2462 7.38477 24.2445 7.38477C24.2428 7.38477 24.2411 7.38477 24.2394 7.38477C24.2377 7.38477 24.236 7.38477 24.2343 7.38477C24.2327 7.38477 24.231 7.38477 24.2293 7.38477C24.2276 7.38477 24.226 7.38477 24.2243 7.38477C24.2227 7.38477 24.221 7.38477 24.2194 7.38477C24.2177 7.38477 24.2161 7.38477 24.2144 7.38477C24.2128 7.38477 24.2112 7.38477 24.2095 7.38477C24.2079 7.38477 24.2063 7.38477 24.2046 7.38477C24.203 7.38477 24.2014 7.38477 24.1998 7.38477C24.1982 7.38477 24.1966 7.38477 24.195 7.38477C24.1934 7.38477 24.1918 7.38477 24.1902 7.38477C24.1886 7.38477 24.187 7.38477 24.1855 7.38477C24.1839 7.38477 24.1823 7.38477 24.1807 7.38477C24.1792 7.38477 24.1776 7.38477 24.1761 7.38477C24.1745 7.38477 24.1729 7.38477 24.1714 7.38477C24.1698 7.38477 24.1683 7.38477 24.1668 7.38477C24.1652 7.38477 24.1637 7.38477 24.1622 7.38477C24.1606 7.38477 24.1591 7.38477 24.1576 7.38477C24.1561 7.38477 24.1546 7.38477 24.153 7.38477C24.1515 7.38477 24.15 7.38477 24.1485 7.38477C24.147 7.38477 24.1455 7.38477 24.1441 7.38477C24.1426 7.38477 24.1411 7.38477 24.1396 7.38477C24.1381 7.38477 24.1366 7.38477 24.1352 7.38477C24.1337 7.38477 24.1322 7.38477 24.1308 7.38477C24.1293 7.38477 24.1279 7.38477 24.1264 7.38477C24.125 7.38477 24.1235 7.38477 24.1221 7.38477C24.1206 7.38477 24.1192 7.38477 24.1178 7.38477C24.1164 7.38477 24.1149 7.38477 24.1135 7.38477C24.1121 7.38477 24.1107 7.38477 24.1093 7.38477C24.1079 7.38477 24.1064 7.38477 24.105 7.38477C24.1036 7.38477 24.1022 7.38477 24.1009 7.38477C24.0995 7.38477 24.0981 7.38477 24.0967 7.38477C24.0953 7.38477 24.0939 7.38477 24.0926 7.38477C24.0912 7.38477 24.0898 7.38477 24.0885 7.38477C24.0871 7.38477 24.0857 7.38477 24.0844 7.38477C24.083 7.38477 24.0817 7.38477 24.0803 7.38477C24.079 7.38477 24.0777 7.38477 24.0763 7.38477C24.075 7.38477 24.0737 7.38477 24.0724 7.38477C24.071 7.38477 24.0697 7.38477 24.0684 7.38477C24.0671 7.38477 24.0658 7.38477 24.0645 7.38477C24.0632 7.38477 24.0619 7.38477 24.0606 7.38477C24.0593 7.38477 24.058 7.38477 24.0567 7.38477C24.0554 7.38477 24.0541 7.38477 24.0529 7.38477C24.0516 7.38477 24.0503 7.38477 24.049 7.38477C24.0478 7.38477 24.0465 7.38477 24.0453 7.38477C24.044 7.38477 24.0427 7.38477 24.0415 7.38477C24.0403 7.38477 24.039 7.38477 24.0378 7.38477C24.0365 7.38477 24.0353 7.38477 24.0341 7.38477C24.0328 7.38477 24.0316 7.38477 24.0304 7.38477C24.0292 7.38477 24.028 7.38477 24.0268 7.38477C24.0255 7.38477 24.0243 7.38477 24.0231 7.38477C24.0219 7.38477 24.0207 7.38477 24.0196 7.38477C24.0184 7.38477 24.0172 7.38477 24.016 7.38477C24.0148 7.38477 24.0136 7.38477 24.0125 7.38477C24.0113 7.38477 24.0101 7.38477 24.009 7.38477C24.0078 7.38477 24.0066 7.38477 24.0055 7.38477C24.0043 7.38477 24.0032 7.38477 24.002 7.38477C24.0009 7.38477 23.9998 7.38477 23.9986 7.38477C23.9975 7.38477 23.9964 7.38477 23.9952 7.38477C23.9941 7.38477 23.993 7.38477 23.9919 7.38477C23.9908 7.38477 23.9896 7.38477 23.9885 7.38477C23.9874 7.38477 23.9863 7.38477 23.9852 7.38477C23.9841 7.38477 23.983 7.38477 23.982 7.38477C23.9809 7.38477 23.9798 7.38477 23.9787 7.38477C23.9776 7.38477 23.9765 7.38477 23.9755 7.38477C23.9744 7.38477 23.9733 7.38477 23.9723 7.38477C23.9712 7.38477 23.9702 7.38477 23.9691 7.38477C23.9681 7.38477 23.967 7.38477 23.966 7.38477C23.9649 7.38477 23.9639 7.38477 23.9629 7.38477C23.9618 7.38477 23.9608 7.38477 23.9598 7.38477C23.9587 7.38477 23.9577 7.38477 23.9567 7.38477C23.9557 7.38477 23.9547 7.38477 23.9537 7.38477C23.9527 7.38477 23.9517 7.38477 23.9507 7.38477C23.9497 7.38477 23.9487 7.38477 23.9477 7.38477C23.9467 7.38477 23.9457 7.38477 23.9447 7.38477C23.9438 7.38477 23.9428 7.38477 23.9418 7.38477C23.9408 7.38477 23.9399 7.38477 23.9389 7.38477C23.9379 7.38477 23.937 7.38477 23.936 7.38477C23.9351 7.38477 23.9341 7.38477 23.9332 7.38477C23.9323 7.38477 23.9313 7.38477 23.9304 7.38477C23.9294 7.38477 23.9285 7.38477 23.9276 7.38477C23.9267 7.38477 23.9257 7.38477 23.9248 7.38477C23.9239 7.38477 23.923 7.38477 23.9221 7.38477C23.9212 7.38477 23.9203 7.38477 23.9194 7.38477C23.9185 7.38477 23.9176 7.38477 23.9167 7.38477C23.9158 7.38477 23.9149 7.38477 23.914 7.38477C23.9132 7.38477 23.9123 7.38477 23.9114 7.38477C23.9105 7.38477 23.9097 7.38477 23.9088 7.38477C23.9079 7.38477 23.9071 7.38477 23.9062 7.38477C23.9054 7.38477 23.9045 7.38477 23.9037 7.38477C23.9028 7.38477 23.902 7.38477 23.9011 7.38477C23.9003 7.38477 23.8995 7.38477 23.8986 7.38477C23.8978 7.38477 23.897 7.38477 23.8962 7.38477C23.8954 7.38477 23.8945 7.38477 23.8937 7.38477C23.8929 7.38477 23.8921 7.38477 23.8913 7.38477C23.8905 7.38477 23.8897 7.38477 23.8889 7.38477C23.8881 7.38477 23.8873 7.38477 23.8865 7.38477C23.8858 7.38477 23.885 7.38477 23.8842 7.38477C23.8834 7.38477 23.8826 7.38477 23.8819 7.38477C23.8811 7.38477 23.8804 7.38477 23.8796 7.38477C23.8788 7.38477 23.8781 7.38477 23.8773 7.38477C23.8766 7.38477 23.8758 7.38477 23.8751 7.38477C23.8743 7.38477 23.8736 7.38477 23.8729 7.38477C23.8721 7.38477 23.8714 7.38477 23.8707 7.38477C23.87 7.38477 23.8692 7.38477 23.8685 7.38477C23.8678 7.38477 23.8671 7.38477 23.8664 7.38477C23.8657 7.38477 23.865 7.38477 23.8643 7.38477C23.8636 7.38477 23.8629 7.38477 23.8622 7.38477C23.8615 7.38477 23.8608 7.38477 23.8601 7.38477C23.8594 7.38477 23.8588 7.38477 23.8581 7.38477C23.8574 7.38477 23.8568 7.38477 23.8561 7.38477C23.8554 7.38477 23.8548 7.38477 23.8541 7.38477C23.8534 7.38477 23.8528 7.38477 23.8521 7.38477C23.8515 7.38477 23.8508 7.38477 23.8502 7.38477C23.8496 7.38477 23.8489 7.38477 23.8483 7.38477C23.8477 7.38477 23.847 7.38477 23.8464 7.38477C23.8458 7.38477 23.8452 7.38477 23.8446 7.38477C23.8439 7.38477 23.8433 7.38477 23.8427 7.38477C23.8421 7.38477 23.8415 7.38477 23.8409 7.38477C23.8403 7.38477 23.8397 7.38477 23.8391 7.38477C23.8385 7.38477 23.838 7.38477 23.8374 7.38477C23.8368 7.38477 23.8362 7.38477 23.8356 7.38477C23.8351 7.38477 23.8345 7.38477 23.8339 7.38477C23.8334 7.38477 23.8328 7.38477 23.8322 7.38477C23.8317 7.38477 23.8311 7.38477 23.8306 7.38477C23.83 7.38477 23.8295 7.38477 23.8289 7.38477C23.8284 7.38477 23.8279 7.38477 23.8273 7.38477C23.8268 7.38477 23.8263 7.38477 23.8258 7.38477C23.8252 7.38477 23.8247 7.38477 23.8242 7.38477C23.8237 7.38477 23.8232 7.38477 23.8227 7.38477C23.8221 7.38477 23.8216 7.38477 23.8211 7.38477C23.8206 7.38477 23.8201 7.38477 23.8197 7.38477C23.8192 7.38477 23.8187 7.38477 23.8182 7.38477C23.8177 7.38477 23.8172 7.38477 23.8167 7.38477C23.8163 7.38477 23.8158 7.38477 23.8153 7.38477C23.8149 7.38477 23.8144 7.38477 23.8139 7.38477C23.8135 7.38477 23.813 7.38477 23.8126 7.38477C23.8121 7.38477 23.8117 7.38477 23.8112 7.38477C23.8108 7.38477 23.8103 7.38477 23.8099 7.38477C23.8095 7.38477 23.809 7.38477 23.8086 7.38477C23.8082 7.38477 23.8078 7.38477 23.8073 7.38477C23.8069 7.38477 23.8065 7.38477 23.8061 7.38477C23.8057 7.38477 23.8053 7.38477 23.8049 7.38477C23.8045 7.38477 23.8041 7.38477 23.8037 7.38477C23.8033 7.38477 23.8029 7.38477 23.8025 7.38477V11.3848C23.8029 11.3848 23.8033 11.3848 23.8037 11.3848C23.8041 11.3848 23.8045 11.3848 23.8049 11.3848C23.8053 11.3848 23.8057 11.3848 23.8061 11.3848C23.8065 11.3848 23.8069 11.3848 23.8073 11.3848C23.8078 11.3848 23.8082 11.3848 23.8086 11.3848C23.809 11.3848 23.8095 11.3848 23.8099 11.3848C23.8103 11.3848 23.8108 11.3848 23.8112 11.3848C23.8117 11.3848 23.8121 11.3848 23.8126 11.3848C23.813 11.3848 23.8135 11.3848 23.8139 11.3848C23.8144 11.3848 23.8149 11.3848 23.8153 11.3848C23.8158 11.3848 23.8163 11.3848 23.8167 11.3848C23.8172 11.3848 23.8177 11.3848 23.8182 11.3848C23.8187 11.3848 23.8192 11.3848 23.8197 11.3848C23.8201 11.3848 23.8206 11.3848 23.8211 11.3848C23.8216 11.3848 23.8221 11.3848 23.8227 11.3848C23.8232 11.3848 23.8237 11.3848 23.8242 11.3848C23.8247 11.3848 23.8252 11.3848 23.8258 11.3848C23.8263 11.3848 23.8268 11.3848 23.8273 11.3848C23.8279 11.3848 23.8284 11.3848 23.8289 11.3848C23.8295 11.3848 23.83 11.3848 23.8306 11.3848C23.8311 11.3848 23.8317 11.3848 23.8322 11.3848C23.8328 11.3848 23.8334 11.3848 23.8339 11.3848C23.8345 11.3848 23.8351 11.3848 23.8356 11.3848C23.8362 11.3848 23.8368 11.3848 23.8374 11.3848C23.838 11.3848 23.8385 11.3848 23.8391 11.3848C23.8397 11.3848 23.8403 11.3848 23.8409 11.3848C23.8415 11.3848 23.8421 11.3848 23.8427 11.3848C23.8433 11.3848 23.8439 11.3848 23.8446 11.3848C23.8452 11.3848 23.8458 11.3848 23.8464 11.3848C23.847 11.3848 23.8477 11.3848 23.8483 11.3848C23.8489 11.3848 23.8496 11.3848 23.8502 11.3848C23.8508 11.3848 23.8515 11.3848 23.8521 11.3848C23.8528 11.3848 23.8534 11.3848 23.8541 11.3848C23.8548 11.3848 23.8554 11.3848 23.8561 11.3848C23.8568 11.3848 23.8574 11.3848 23.8581 11.3848C23.8588 11.3848 23.8594 11.3848 23.8601 11.3848C23.8608 11.3848 23.8615 11.3848 23.8622 11.3848C23.8629 11.3848 23.8636 11.3848 23.8643 11.3848C23.865 11.3848 23.8657 11.3848 23.8664 11.3848C23.8671 11.3848 23.8678 11.3848 23.8685 11.3848C23.8692 11.3848 23.87 11.3848 23.8707 11.3848C23.8714 11.3848 23.8721 11.3848 23.8729 11.3848C23.8736 11.3848 23.8743 11.3848 23.8751 11.3848C23.8758 11.3848 23.8766 11.3848 23.8773 11.3848C23.8781 11.3848 23.8788 11.3848 23.8796 11.3848C23.8804 11.3848 23.8811 11.3848 23.8819 11.3848C23.8826 11.3848 23.8834 11.3848 23.8842 11.3848C23.885 11.3848 23.8858 11.3848 23.8865 11.3848C23.8873 11.3848 23.8881 11.3848 23.8889 11.3848C23.8897 11.3848 23.8905 11.3848 23.8913 11.3848C23.8921 11.3848 23.8929 11.3848 23.8937 11.3848C23.8945 11.3848 23.8954 11.3848 23.8962 11.3848C23.897 11.3848 23.8978 11.3848 23.8986 11.3848C23.8995 11.3848 23.9003 11.3848 23.9011 11.3848C23.902 11.3848 23.9028 11.3848 23.9037 11.3848C23.9045 11.3848 23.9054 11.3848 23.9062 11.3848C23.9071 11.3848 23.9079 11.3848 23.9088 11.3848C23.9097 11.3848 23.9105 11.3848 23.9114 11.3848C23.9123 11.3848 23.9132 11.3848 23.914 11.3848C23.9149 11.3848 23.9158 11.3848 23.9167 11.3848C23.9176 11.3848 23.9185 11.3848 23.9194 11.3848C23.9203 11.3848 23.9212 11.3848 23.9221 11.3848C23.923 11.3848 23.9239 11.3848 23.9248 11.3848C23.9257 11.3848 23.9267 11.3848 23.9276 11.3848C23.9285 11.3848 23.9294 11.3848 23.9304 11.3848C23.9313 11.3848 23.9323 11.3848 23.9332 11.3848C23.9341 11.3848 23.9351 11.3848 23.936 11.3848C23.937 11.3848 23.9379 11.3848 23.9389 11.3848C23.9399 11.3848 23.9408 11.3848 23.9418 11.3848C23.9428 11.3848 23.9438 11.3848 23.9447 11.3848C23.9457 11.3848 23.9467 11.3848 23.9477 11.3848C23.9487 11.3848 23.9497 11.3848 23.9507 11.3848C23.9517 11.3848 23.9527 11.3848 23.9537 11.3848C23.9547 11.3848 23.9557 11.3848 23.9567 11.3848C23.9577 11.3848 23.9587 11.3848 23.9598 11.3848C23.9608 11.3848 23.9618 11.3848 23.9629 11.3848C23.9639 11.3848 23.9649 11.3848 23.966 11.3848C23.967 11.3848 23.9681 11.3848 23.9691 11.3848C23.9702 11.3848 23.9712 11.3848 23.9723 11.3848C23.9733 11.3848 23.9744 11.3848 23.9755 11.3848C23.9765 11.3848 23.9776 11.3848 23.9787 11.3848C23.9798 11.3848 23.9809 11.3848 23.982 11.3848C23.983 11.3848 23.9841 11.3848 23.9852 11.3848C23.9863 11.3848 23.9874 11.3848 23.9885 11.3848C23.9896 11.3848 23.9908 11.3848 23.9919 11.3848C23.993 11.3848 23.9941 11.3848 23.9952 11.3848C23.9964 11.3848 23.9975 11.3848 23.9986 11.3848C23.9998 11.3848 24.0009 11.3848 24.002 11.3848C24.0032 11.3848 24.0043 11.3848 24.0055 11.3848C24.0066 11.3848 24.0078 11.3848 24.009 11.3848C24.0101 11.3848 24.0113 11.3848 24.0125 11.3848C24.0136 11.3848 24.0148 11.3848 24.016 11.3848C24.0172 11.3848 24.0184 11.3848 24.0196 11.3848C24.0207 11.3848 24.0219 11.3848 24.0231 11.3848C24.0243 11.3848 24.0255 11.3848 24.0268 11.3848C24.028 11.3848 24.0292 11.3848 24.0304 11.3848C24.0316 11.3848 24.0328 11.3848 24.0341 11.3848C24.0353 11.3848 24.0365 11.3848 24.0378 11.3848C24.039 11.3848 24.0403 11.3848 24.0415 11.3848C24.0427 11.3848 24.044 11.3848 24.0453 11.3848C24.0465 11.3848 24.0478 11.3848 24.049 11.3848C24.0503 11.3848 24.0516 11.3848 24.0529 11.3848C24.0541 11.3848 24.0554 11.3848 24.0567 11.3848C24.058 11.3848 24.0593 11.3848 24.0606 11.3848C24.0619 11.3848 24.0632 11.3848 24.0645 11.3848C24.0658 11.3848 24.0671 11.3848 24.0684 11.3848C24.0697 11.3848 24.071 11.3848 24.0724 11.3848C24.0737 11.3848 24.075 11.3848 24.0763 11.3848C24.0777 11.3848 24.079 11.3848 24.0803 11.3848C24.0817 11.3848 24.083 11.3848 24.0844 11.3848C24.0857 11.3848 24.0871 11.3848 24.0885 11.3848C24.0898 11.3848 24.0912 11.3848 24.0926 11.3848C24.0939 11.3848 24.0953 11.3848 24.0967 11.3848C24.0981 11.3848 24.0995 11.3848 24.1009 11.3848C24.1022 11.3848 24.1036 11.3848 24.105 11.3848C24.1064 11.3848 24.1079 11.3848 24.1093 11.3848C24.1107 11.3848 24.1121 11.3848 24.1135 11.3848C24.1149 11.3848 24.1164 11.3848 24.1178 11.3848C24.1192 11.3848 24.1206 11.3848 24.1221 11.3848C24.1235 11.3848 24.125 11.3848 24.1264 11.3848C24.1279 11.3848 24.1293 11.3848 24.1308 11.3848C24.1322 11.3848 24.1337 11.3848 24.1352 11.3848C24.1366 11.3848 24.1381 11.3848 24.1396 11.3848C24.1411 11.3848 24.1426 11.3848 24.1441 11.3848C24.1455 11.3848 24.147 11.3848 24.1485 11.3848C24.15 11.3848 24.1515 11.3848 24.153 11.3848C24.1546 11.3848 24.1561 11.3848 24.1576 11.3848C24.1591 11.3848 24.1606 11.3848 24.1622 11.3848C24.1637 11.3848 24.1652 11.3848 24.1668 11.3848C24.1683 11.3848 24.1698 11.3848 24.1714 11.3848C24.1729 11.3848 24.1745 11.3848 24.1761 11.3848C24.1776 11.3848 24.1792 11.3848 24.1807 11.3848C24.1823 11.3848 24.1839 11.3848 24.1855 11.3848C24.187 11.3848 24.1886 11.3848 24.1902 11.3848C24.1918 11.3848 24.1934 11.3848 24.195 11.3848C24.1966 11.3848 24.1982 11.3848 24.1998 11.3848C24.2014 11.3848 24.203 11.3848 24.2046 11.3848C24.2063 11.3848 24.2079 11.3848 24.2095 11.3848C24.2112 11.3848 24.2128 11.3848 24.2144 11.3848C24.2161 11.3848 24.2177 11.3848 24.2194 11.3848C24.221 11.3848 24.2227 11.3848 24.2243 11.3848C24.226 11.3848 24.2276 11.3848 24.2293 11.3848C24.231 11.3848 24.2327 11.3848 24.2343 11.3848C24.236 11.3848 24.2377 11.3848 24.2394 11.3848C24.2411 11.3848 24.2428 11.3848 24.2445 11.3848C24.2462 11.3848 24.2479 11.3848 24.2496 11.3848C24.2513 11.3848 24.253 11.3848 24.2547 11.3848C24.2565 11.3848 24.2582 11.3848 24.2599 11.3848C24.2616 11.3848 24.2634 11.3848 24.2651 11.3848C24.2669 11.3848 24.2686 11.3848 24.2704 11.3848C24.2721 11.3848 24.2739 11.3848 24.2756 11.3848C24.2774 11.3848 24.2792 11.3848 24.2809 11.3848C24.2827 11.3848 24.2845 11.3848 24.2863 11.3848C24.288 11.3848 24.2898 11.3848 24.2916 11.3848C24.2934 11.3848 24.2952 11.3848 24.297 11.3848C24.2988 11.3848 24.3006 11.3848 24.3024 11.3848C24.3042 11.3848 24.3061 11.3848 24.3079 11.3848C24.3097 11.3848 24.3115 11.3848 24.3134 11.3848C24.3152 11.3848 24.317 11.3848 24.3189 11.3848C24.3207 11.3848 24.3226 11.3848 24.3244 11.3848C24.3263 11.3848 24.3282 11.3848 24.33 11.3848C24.3319 11.3848 24.3338 11.3848 24.3356 11.3848C24.3375 11.3848 24.3394 11.3848 24.3413 11.3848C24.3432 11.3848 24.345 11.3848 24.3469 11.3848C24.3488 11.3848 24.3507 11.3848 24.3527 11.3848C24.3546 11.3848 24.3565 11.3848 24.3584 11.3848C24.3603 11.3848 24.3622 11.3848 24.3642 11.3848C24.3661 11.3848 24.368 11.3848 24.37 11.3848C24.3719 11.3848 24.3738 11.3848 24.3758 11.3848C24.3777 11.3848 24.3797 11.3848 24.3817 11.3848C24.3836 11.3848 24.3856 11.3848 24.3876 11.3848C24.3895 11.3848 24.3915 11.3848 24.3935 11.3848C24.3955 11.3848 24.3974 11.3848 24.3994 11.3848C24.4014 11.3848 24.4034 11.3848 24.4054 11.3848C24.4074 11.3848 24.4094 11.3848 24.4115 11.3848C24.4135 11.3848 24.4155 11.3848 24.4175 11.3848C24.4195 11.3848 24.4216 11.3848 24.4236 11.3848C24.4256 11.3848 24.4277 11.3848 24.4297 11.3848C24.4318 11.3848 24.4338 11.3848 24.4359 11.3848C24.4379 11.3848 24.44 11.3848 24.4421 11.3848C24.4441 11.3848 24.4462 11.3848 24.4483 11.3848C24.4503 11.3848 24.4524 11.3848 24.4545 11.3848C24.4566 11.3848 24.4587 11.3848 24.4608 11.3848C24.4629 11.3848 24.465 11.3848 24.4671 11.3848C24.4692 11.3848 24.4713 11.3848 24.4735 11.3848C24.4756 11.3848 24.4777 11.3848 24.4798 11.3848C24.482 11.3848 24.4841 11.3848 24.4863 11.3848C24.4884 11.3848 24.4905 11.3848 24.4927 11.3848C24.4949 11.3848 24.497 11.3848 24.4992 11.3848C24.5013 11.3848 24.5035 11.3848 24.5057 11.3848C24.5079 11.3848 24.51 11.3848 24.5122 11.3848C24.5144 11.3848 24.5166 11.3848 24.5188 11.3848C24.521 11.3848 24.5232 11.3848 24.5254 11.3848C24.5276 11.3848 24.5298 11.3848 24.532 11.3848C24.5343 11.3848 24.5365 11.3848 24.5387 11.3848C24.541 11.3848 24.5432 11.3848 24.5454 11.3848C24.5477 11.3848 24.5499 11.3848 24.5522 11.3848C24.5544 11.3848 24.5567 11.3848 24.5589 11.3848C24.5612 11.3848 24.5635 11.3848 24.5657 11.3848C24.568 11.3848 24.5703 11.3848 24.5726 11.3848C24.5749 11.3848 24.5772 11.3848 24.5795 11.3848C24.5818 11.3848 24.5841 11.3848 24.5864 11.3848C24.5887 11.3848 24.591 11.3848 24.5933 11.3848C24.5956 11.3848 24.5979 11.3848 24.6003 11.3848C24.6026 11.3848 24.6049 11.3848 24.6073 11.3848C24.6096 11.3848 24.612 11.3848 24.6143 11.3848C24.6167 11.3848 24.619 11.3848 24.6214 11.3848C24.6238 11.3848 24.6261 11.3848 24.6285 11.3848C24.6309 11.3848 24.6333 11.3848 24.6356 11.3848C24.638 11.3848 24.6404 11.3848 24.6428 11.3848C24.6452 11.3848 24.6476 11.3848 24.65 11.3848C24.6524 11.3848 24.6549 11.3848 24.6573 11.3848C24.6597 11.3848 24.6621 11.3848 24.6645 11.3848C24.667 11.3848 24.6694 11.3848 24.6719 11.3848C24.6743 11.3848 24.6767 11.3848 24.6792 11.3848C24.6817 11.3848 24.6841 11.3848 24.6866 11.3848C24.689 11.3848 24.6915 11.3848 24.694 11.3848C24.6965 11.3848 24.6989 11.3848 24.7014 11.3848C24.7039 11.3848 24.7064 11.3848 24.7089 11.3848C24.7114 11.3848 24.7139 11.3848 24.7164 11.3848C24.7189 11.3848 24.7215 11.3848 24.724 11.3848C24.7265 11.3848 24.729 11.3848 24.7316 11.3848C24.7341 11.3848 24.7366 11.3848 24.7392 11.3848C24.7417 11.3848 24.7443 11.3848 24.7468 11.3848C24.7494 11.3848 24.7519 11.3848 24.7545 11.3848C24.7571 11.3848 24.7597 11.3848 24.7622 11.3848C24.7648 11.3848 24.7674 11.3848 24.77 11.3848C24.7726 11.3848 24.7752 11.3848 24.7778 11.3848C24.7804 11.3848 24.783 11.3848 24.7856 11.3848C24.7882 11.3848 24.7908 11.3848 24.7935 11.3848C24.7961 11.3848 24.7987 11.3848 24.8013 11.3848C24.804 11.3848 24.8066 11.3848 24.8093 11.3848C24.8119 11.3848 24.8146 11.3848 24.8172 11.3848C24.8199 11.3848 24.8226 11.3848 24.8252 11.3848C24.8279 11.3848 24.8306 11.3848 24.8333 11.3848C24.8359 11.3848 24.8386 11.3848 24.8413 11.3848C24.844 11.3848 24.8467 11.3848 24.8494 11.3848C24.8521 11.3848 24.8549 11.3848 24.8576 11.3848C24.8603 11.3848 24.863 11.3848 24.8657 11.3848C24.8685 11.3848 24.8712 11.3848 24.874 11.3848C24.8767 11.3848 24.8794 11.3848 24.8822 11.3848C24.8849 11.3848 24.8877 11.3848 24.8905 11.3848C24.8932 11.3848 24.896 11.3848 24.8988 11.3848C24.9016 11.3848 24.9043 11.3848 24.9071 11.3848C24.9099 11.3848 24.9127 11.3848 24.9155 11.3848C24.9183 11.3848 24.9211 11.3848 24.9239 11.3848C24.9267 11.3848 24.9296 11.3848 24.9324 11.3848C24.9352 11.3848 24.938 11.3848 24.9409 11.3848C24.9437 11.3848 24.9466 11.3848 24.9494 11.3848C24.9523 11.3848 24.9551 11.3848 24.958 11.3848C24.9608 11.3848 24.9637 11.3848 24.9666 11.3848C24.9694 11.3848 24.9723 11.3848 24.9752 11.3848C24.9781 11.3848 24.981 11.3848 24.9839 11.3848C24.9868 11.3848 24.9897 11.3848 24.9926 11.3848C24.9955 11.3848 24.9984 11.3848 25.0013 11.3848C25.0042 11.3848 25.0071 11.3848 25.0101 11.3848C25.013 11.3848 25.0159 11.3848 25.0189 11.3848C25.0218 11.3848 25.0248 11.3848 25.0277 11.3848C25.0307 11.3848 25.0337 11.3848 25.0366 11.3848C25.0396 11.3848 25.0426 11.3848 25.0455 11.3848C25.0485 11.3848 25.0515 11.3848 25.0545 11.3848C25.0575 11.3848 25.0605 11.3848 25.0635 11.3848C25.0665 11.3848 25.0695 11.3848 25.0725 11.3848C25.0755 11.3848 25.0786 11.3848 25.0816 11.3848C25.0846 11.3848 25.0876 11.3848 25.0907 11.3848C25.0937 11.3848 25.0968 11.3848 25.0998 11.3848C25.1029 11.3848 25.1059 11.3848 25.109 11.3848C25.1121 11.3848 25.1151 11.3848 25.1182 11.3848C25.1213 11.3848 25.1244 11.3848 25.1275 11.3848C25.1305 11.3848 25.1336 11.3848 25.1367 11.3848C25.1398 11.3848 25.1429 11.3848 25.1461 11.3848C25.1492 11.3848 25.1523 11.3848 25.1554 11.3848C25.1585 11.3848 25.1617 11.3848 25.1648 11.3848C25.1679 11.3848 25.1711 11.3848 25.1742 11.3848C25.1774 11.3848 25.1805 11.3848 25.1837 11.3848C25.1869 11.3848 25.19 11.3848 25.1932 11.3848C25.1964 11.3848 25.1996 11.3848 25.2027 11.3848C25.2059 11.3848 25.2091 11.3848 25.2123 11.3848C25.2155 11.3848 25.2187 11.3848 25.2219 11.3848C25.2252 11.3848 25.2284 11.3848 25.2316 11.3848C25.2348 11.3848 25.238 11.3848 25.2413 11.3848C25.2445 11.3848 25.2478 11.3848 25.251 11.3848C25.2543 11.3848 25.2575 11.3848 25.2608 11.3848C25.264 11.3848 25.2673 11.3848 25.2706 11.3848C25.2738 11.3848 25.2771 11.3848 25.2804 11.3848C25.2837 11.3848 25.287 11.3848 25.2903 11.3848C25.2936 11.3848 25.2969 11.3848 25.3002 11.3848C25.3035 11.3848 25.3068 11.3848 25.3101 11.3848C25.3135 11.3848 25.3168 11.3848 25.3201 11.3848C25.3235 11.3848 25.3268 11.3848 25.3302 11.3848C25.3335 11.3848 25.3369 11.3848 25.3402 11.3848C25.3436 11.3848 25.3469 11.3848 25.3503 11.3848C25.3537 11.3848 25.3571 11.3848 25.3605 11.3848C25.3638 11.3848 25.3672 11.3848 25.3706 11.3848C25.374 11.3848 25.3774 11.3848 25.3808 11.3848C25.3843 11.3848 25.3877 11.3848 25.3911 11.3848C25.3945 11.3848 25.3979 11.3848 25.4014 11.3848C25.4048 11.3848 25.4083 11.3848 25.4117 11.3848C25.4152 11.3848 25.4186 11.3848 25.4221 11.3848C25.4255 11.3848 25.429 11.3848 25.4325 11.3848C25.4359 11.3848 25.4394 11.3848 25.4429 11.3848C25.4464 11.3848 25.4499 11.3848 25.4534 11.3848C25.4569 11.3848 25.4604 11.3848 25.4639 11.3848C25.4674 11.3848 25.4709 11.3848 25.4745 11.3848C25.478 11.3848 25.4815 11.3848 25.4851 11.3848C25.4886 11.3848 25.4921 11.3848 25.4957 11.3848C25.4992 11.3848 25.5028 11.3848 25.5064 11.3848C25.5099 11.3848 25.5135 11.3848 25.5171 11.3848C25.5206 11.3848 25.5242 11.3848 25.5278 11.3848C25.5314 11.3848 25.535 11.3848 25.5386 11.3848C25.5422 11.3848 25.5458 11.3848 25.5494 11.3848C25.553 11.3848 25.5567 11.3848 25.5603 11.3848C25.5639 11.3848 25.5675 11.3848 25.5712 11.3848C25.5748 11.3848 25.5785 11.3848 25.5821 11.3848C25.5858 11.3848 25.5894 11.3848 25.5931 11.3848C25.5968 11.3848 25.6004 11.3848 25.6041 11.3848C25.6078 11.3848 25.6115 11.3848 25.6152 11.3848C25.6189 11.3848 25.6226 11.3848 25.6263 11.3848C25.63 11.3848 25.6337 11.3848 25.6374 11.3848C25.6411 11.3848 25.6449 11.3848 25.6486 11.3848C25.6523 11.3848 25.656 11.3848 25.6598 11.3848C25.6635 11.3848 25.6673 11.3848 25.671 11.3848C25.6748 11.3848 25.6786 11.3848 25.6823 11.3848C25.6861 11.3848 25.6899 11.3848 25.6937 11.3848C25.6974 11.3848 25.7012 11.3848 25.705 11.3848C25.7088 11.3848 25.7126 11.3848 25.7164 11.3848C25.7202 11.3848 25.7241 11.3848 25.7279 11.3848C25.7317 11.3848 25.7355 11.3848 25.7394 11.3848C25.7432 11.3848 25.7471 11.3848 25.7509 11.3848C25.7547 11.3848 25.7586 11.3848 25.7625 11.3848C25.7663 11.3848 25.7702 11.3848 25.7741 11.3848C25.7779 11.3848 25.7818 11.3848 25.7857 11.3848C25.7896 11.3848 25.7935 11.3848 25.7974 11.3848C25.8013 11.3848 25.8052 11.3848 25.8091 11.3848C25.813 11.3848 25.817 11.3848 25.8209 11.3848C25.8248 11.3848 25.8287 11.3848 25.8327 11.3848C25.8366 11.3848 25.8406 11.3848 25.8445 11.3848C25.8485 11.3848 25.8524 11.3848 25.8564 11.3848C25.8604 11.3848 25.8644 11.3848 25.8683 11.3848C25.8723 11.3848 25.8763 11.3848 25.8803 11.3848C25.8843 11.3848 25.8883 11.3848 25.8923 11.3848C25.8963 11.3848 25.9003 11.3848 25.9043 11.3848C25.9084 11.3848 25.9124 11.3848 25.9164 11.3848C25.9205 11.3848 25.9245 11.3848 25.9285 11.3848C25.9326 11.3848 25.9366 11.3848 25.9407 11.3848C25.9448 11.3848 25.9488 11.3848 25.9529 11.3848C25.957 11.3848 25.9611 11.3848 25.9652 11.3848C25.9692 11.3848 25.9733 11.3848 25.9774 11.3848C25.9815 11.3848 25.9856 11.3848 25.9898 11.3848C25.9939 11.3848 25.998 11.3848 26.0021 11.3848C26.0063 11.3848 26.0104 11.3848 26.0145 11.3848C26.0187 11.3848 26.0228 11.3848 26.027 11.3848C26.0311 11.3848 26.0353 11.3848 26.0395 11.3848C26.0436 11.3848 26.0478 11.3848 26.052 11.3848C26.0562 11.3848 26.0604 11.3848 26.0646 11.3848C26.0687 11.3848 26.0729 11.3848 26.0772 11.3848C26.0814 11.3848 26.0856 11.3848 26.0898 11.3848C26.094 11.3848 26.0983 11.3848 26.1025 11.3848C26.1067 11.3848 26.111 11.3848 26.1152 11.3848C26.1195 11.3848 26.1237 11.3848 26.128 11.3848C26.1323 11.3848 26.1365 11.3848 26.1408 11.3848C26.1451 11.3848 26.1494 11.3848 26.1537 11.3848C26.158 11.3848 26.1622 11.3848 26.1666 11.3848C26.1709 11.3848 26.1752 11.3848 26.1795 11.3848C26.1838 11.3848 26.1881 11.3848 26.1925 11.3848C26.1968 11.3848 26.2011 11.3848 26.2055 11.3848C26.2098 11.3848 26.2142 11.3848 26.2185 11.3848C26.2229 11.3848 26.2273 11.3848 26.2316 11.3848C26.236 11.3848 26.2404 11.3848 26.2448 11.3848C26.2492 11.3848 26.2536 11.3848 26.258 11.3848C26.2624 11.3848 26.2668 11.3848 26.2712 11.3848C26.2756 11.3848 26.28 11.3848 26.2845 11.3848C26.2889 11.3848 26.2933 11.3848 26.2978 11.3848C26.3022 11.3848 26.3066 11.3848 26.3111 11.3848C26.3156 11.3848 26.32 11.3848 26.3245 11.3848C26.329 11.3848 26.3334 11.3848 26.3379 11.3848C26.3424 11.3848 26.3469 11.3848 26.3514 11.3848C26.3559 11.3848 26.3604 11.3848 26.3649 11.3848C26.3694 11.3848 26.3739 11.3848 26.3785 11.3848C26.383 11.3848 26.3875 11.3848 26.3921 11.3848C26.3966 11.3848 26.4012 11.3848 26.4057 11.3848C26.4103 11.3848 26.4148 11.3848 26.4194 11.3848C26.424 11.3848 26.4285 11.3848 26.4331 11.3848C26.4377 11.3848 26.4423 11.3848 26.4469 11.3848C26.4515 11.3848 26.4561 11.3848 26.4607 11.3848C26.4653 11.3848 26.4699 11.3848 26.4745 11.3848C26.4792 11.3848 26.4838 11.3848 26.4884 11.3848C26.4931 11.3848 26.4977 11.3848 26.5024 11.3848C26.507 11.3848 26.5117 11.3848 26.5163 11.3848C26.521 11.3848 26.5257 11.3848 26.5304 11.3848C26.535 11.3848 26.5397 11.3848 26.5444 11.3848C26.5491 11.3848 26.5538 11.3848 26.5585 11.3848C26.5632 11.3848 26.568 11.3848 26.5727 11.3848C26.5774 11.3848 26.5821 11.3848 26.5869 11.3848C26.5916 11.3848 26.5964 11.3848 26.6011 11.3848C26.6059 11.3848 26.6106 11.3848 26.6154 11.3848C26.6201 11.3848 26.6249 11.3848 26.6297 11.3848C26.6345 11.3848 26.6393 11.3848 26.6441 11.3848C26.6488 11.3848 26.6536 11.3848 26.6585 11.3848C26.6633 11.3848 26.6681 11.3848 26.6729 11.3848C26.6777 11.3848 26.6826 11.3848 26.6874 11.3848C26.6922 11.3848 26.6971 11.3848 26.7019 11.3848C26.7068 11.3848 26.7116 11.3848 26.7165 11.3848C26.7214 11.3848 26.7262 11.3848 26.7311 11.3848C26.736 11.3848 26.7409 11.3848 26.7458 11.3848C26.7507 11.3848 26.7556 11.3848 26.7605 11.3848C26.7654 11.3848 26.7703 11.3848 26.7752 11.3848C26.7801 11.3848 26.7851 11.3848 26.79 11.3848C26.7949 11.3848 26.7999 11.3848 26.8048 11.3848C26.8098 11.3848 26.8148 11.3848 26.8197 11.3848C26.8247 11.3848 26.8297 11.3848 26.8346 11.3848C26.8396 11.3848 26.8446 11.3848 26.8496 11.3848C26.8546 11.3848 26.8596 11.3848 26.8646 11.3848C26.8696 11.3848 26.8746 11.3848 26.8797 11.3848C26.8847 11.3848 26.8897 11.3848 26.8948 11.3848C26.8998 11.3848 26.9048 11.3848 26.9099 11.3848C26.9149 11.3848 26.92 11.3848 26.9251 11.3848C26.9301 11.3848 26.9352 11.3848 26.9403 11.3848C26.9454 11.3848 26.9505 11.3848 26.9556 11.3848C26.9607 11.3848 26.9658 11.3848 26.9709 11.3848C26.976 11.3848 26.9811 11.3848 26.9862 11.3848C26.9914 11.3848 26.9965 11.3848 27.0016 11.3848C27.0068 11.3848 27.0119 11.3848 27.0171 11.3848C27.0222 11.3848 27.0274 11.3848 27.0326 11.3848C27.0377 11.3848 27.0429 11.3848 27.0481 11.3848C27.0533 11.3848 27.0585 11.3848 27.0637 11.3848C27.0689 11.3848 27.0741 11.3848 27.0793 11.3848C27.0845 11.3848 27.0897 11.3848 27.0949 11.3848C27.1002 11.3848 27.1054 11.3848 27.1107 11.3848C27.1159 11.3848 27.1212 11.3848 27.1264 11.3848C27.1317 11.3848 27.1369 11.3848 27.1422 11.3848C27.1475 11.3848 27.1528 11.3848 27.158 11.3848C27.1633 11.3848 27.1686 11.3848 27.1739 11.3848C27.1792 11.3848 27.1845 11.3848 27.1899 11.3848C27.1952 11.3848 27.2005 11.3848 27.2058 11.3848C27.2112 11.3848 27.2165 11.3848 27.2219 11.3848C27.2272 11.3848 27.2326 11.3848 27.2379 11.3848C27.2433 11.3848 27.2486 11.3848 27.254 11.3848C27.2594 11.3848 27.2648 11.3848 27.2702 11.3848C27.2756 11.3848 27.281 11.3848 27.2864 11.3848C27.2918 11.3848 27.2972 11.3848 27.3026 11.3848C27.308 11.3848 27.3135 11.3848 27.3189 11.3848C27.3243 11.3848 27.3298 11.3848 27.3352 11.3848C27.3407 11.3848 27.3461 11.3848 27.3516 11.3848C27.3571 11.3848 27.3625 11.3848 27.368 11.3848C27.3735 11.3848 27.379 11.3848 27.3845 11.3848C27.39 11.3848 27.3955 11.3848 27.401 11.3848C27.4065 11.3848 27.412 11.3848 27.4176 11.3848C27.4231 11.3848 27.4286 11.3848 27.4342 11.3848C27.4397 11.3848 27.4453 11.3848 27.4508 11.3848C27.4564 11.3848 27.4619 11.3848 27.4675 11.3848C27.4731 11.3848 27.4787 11.3848 27.4842 11.3848C27.4898 11.3848 27.4954 11.3848 27.501 11.3848C27.5066 11.3848 27.5122 11.3848 27.5179 11.3848C27.5235 11.3848 27.5291 11.3848 27.5347 11.3848C27.5404 11.3848 27.546 11.3848 27.5516 11.3848C27.5573 11.3848 27.5629 11.3848 27.5686 11.3848C27.5743 11.3848 27.5799 11.3848 27.5856 11.3848C27.5913 11.3848 27.597 11.3848 27.6027 11.3848C27.6084 11.3848 27.6141 11.3848 27.6198 11.3848C27.6255 11.3848 27.6312 11.3848 27.6369 11.3848C27.6426 11.3848 27.6484 11.3848 27.6541 11.3848C27.6599 11.3848 27.6656 11.3848 27.6714 11.3848C27.6771 11.3848 27.6829 11.3848 27.6886 11.3848C27.6944 11.3848 27.7002 11.3848 27.706 11.3848C27.7118 11.3848 27.7176 11.3848 27.7233 11.3848C27.7291 11.3848 27.735 11.3848 27.7408 11.3848C27.7466 11.3848 27.7524 11.3848 27.7582 11.3848C27.7641 11.3848 27.7699 11.3848 27.7758 11.3848C27.7816 11.3848 27.7875 11.3848 27.7933 11.3848C27.7992 11.3848 27.805 11.3848 27.8109 11.3848C27.8168 11.3848 27.8227 11.3848 27.8286 11.3848C27.8345 11.3848 27.8404 11.3848 27.8463 11.3848C27.8522 11.3848 27.8581 11.3848 27.864 11.3848C27.8699 11.3848 27.8759 11.3848 27.8818 11.3848C27.8878 11.3848 27.8937 11.3848 27.8997 11.3848C27.9056 11.3848 27.9116 11.3848 27.9175 11.3848C27.9235 11.3848 27.9295 11.3848 27.9355 11.3848C27.9415 11.3848 27.9475 11.3848 27.9535 11.3848C27.9595 11.3848 27.9655 11.3848 27.9715 11.3848C27.9775 11.3848 27.9835 11.3848 27.9895 11.3848C27.9956 11.3848 28.0016 11.3848 28.0077 11.3848C28.0137 11.3848 28.0198 11.3848 28.0258 11.3848C28.0319 11.3848 28.038 11.3848 28.044 11.3848C28.0501 11.3848 28.0562 11.3848 28.0623 11.3848C28.0684 11.3848 28.0745 11.3848 28.0806 11.3848C28.0867 11.3848 28.0928 11.3848 28.099 11.3848C28.1051 11.3848 28.1112 11.3848 28.1174 11.3848C28.1235 11.3848 28.1297 11.3848 28.1358 11.3848C28.142 11.3848 28.1481 11.3848 28.1543 11.3848C28.1605 11.3848 28.1667 11.3848 28.1728 11.3848C28.179 11.3848 28.1852 11.3848 28.1914 11.3848C28.1976 11.3848 28.2039 11.3848 28.2101 11.3848C28.2163 11.3848 28.2225 11.3848 28.2288 11.3848C28.235 11.3848 28.2412 11.3848 28.2475 11.3848C28.2537 11.3848 28.26 11.3848 28.2663 11.3848C28.2725 11.3848 28.2788 11.3848 28.2851 11.3848C28.2914 11.3848 28.2977 11.3848 28.304 11.3848C28.3103 11.3848 28.3166 11.3848 28.3229 11.3848C28.3292 11.3848 28.3355 11.3848 28.3419 11.3848C28.3482 11.3848 28.3545 11.3848 28.3609 11.3848C28.3672 11.3848 28.3736 11.3848 28.3799 11.3848C28.3863 11.3848 28.3927 11.3848 28.399 11.3848C28.4054 11.3848 28.4118 11.3848 28.4182 11.3848C28.4246 11.3848 28.431 11.3848 28.4374 11.3848C28.4438 11.3848 28.4502 11.3848 28.4567 11.3848C28.4631 11.3848 28.4695 11.3848 28.476 11.3848C28.4824 11.3848 28.4889 11.3848 28.4953 11.3848C28.5018 11.3848 28.5082 11.3848 28.5147 11.3848C28.5212 11.3848 28.5277 11.3848 28.5342 11.3848C28.5407 11.3848 28.5472 11.3848 28.5537 11.3848C28.5602 11.3848 28.5667 11.3848 28.5732 11.3848V7.38477ZM12.8574 14.9232V20.5H16.8574V14.9232H12.8574ZM31.8574 14.9232V20.5H35.8574V14.9232H31.8574Z" fill="#EBEBEB"/>
<path d="M14.8574 29.6778V22.1538H33.8574V29.6778L29.2358 47.0769H18.452L14.8574 29.6778Z" fill="#2067F5" stroke="#EBEBEB" stroke-width="4"/>
</svg>
