<svg xmlns="http://www.w3.org/2000/svg" width="49" height="48" fill="currentColor" viewBox="0 0 49 48">
  <path fill="#0D85FF" d="M20 29.5a1.5 1.5 0 0 1-3 0v-11a1.5 1.5 0 0 1 3 0v11Z"/>
  <rect width="38" height="14" x="44" y="31" fill="#A0A0A0" rx="4" transform="rotate(180 44 31)"/>
  <path stroke="#EBEBEB" stroke-width="4" d="M44 24c0 2.809 0 4.213-.674 5.222a4.003 4.003 0 0 1-1.104 1.104C41.213 31 39.81 31 37 31H13c-2.809 0-4.213 0-5.222-.674a4.002 4.002 0 0 1-1.104-1.104C6 28.213 6 26.81 6 24c0-2.809 0-4.213.674-5.222a4.002 4.002 0 0 1 1.104-1.104C8.787 17 10.19 17 13 17h24c2.809 0 4.213 0 5.222.674a4 4 0 0 1 1.104 1.104C44 19.787 44 21.19 44 24Z"/>
  <g filter="url(#a)">
    <mask id="b" fill="#fff">
      <rect width="16" height="24" x="4" y="12" rx="4"/>
    </mask>
    <rect width="16" height="24" x="4" y="12" stroke="#EBEBEB" stroke-width="16" mask="url(#b)" rx="4" shape-rendering="crispEdges"/>
  </g>
  <defs>
    <filter id="a" width="24" height="32" x="0" y="12" color-interpolation-filters="sRGB" filterUnits="userSpaceOnUse">
      <feFlood flood-opacity="0" result="BackgroundImageFix"/>
      <feColorMatrix in="SourceAlpha" result="hardAlpha" values="0 0 0 0 0 0 0 0 0 0 0 0 0 0 0 0 0 0 127 0"/>
      <feOffset dy="4"/>
      <feGaussianBlur stdDeviation="2"/>
      <feComposite in2="hardAlpha" operator="out"/>
      <feColorMatrix values="0 0 0 0 0 0 0 0 0 0 0 0 0 0 0 0 0 0 0.25 0"/>
      <feBlend in2="BackgroundImageFix" result="effect1_dropShadow_965_896"/>
      <feBlend in="SourceGraphic" in2="effect1_dropShadow_965_896" result="shape"/>
    </filter>
  </defs>
</svg>
