<svg xmlns="http://www.w3.org/2000/svg" width="48" height="48" fill="none" viewBox="0 0 48 48">
  <path stroke="currentColor" stroke-linecap="square" stroke-width="3" d="M21 29.25v-4.5m6 4.5v-4.5"/>
  <path stroke="currentColor" stroke-linecap="round" stroke-width="3" d="M10.5 17.25h27v0c-1.398 0-2.097 0-2.648.228a3 3 0 0 0-1.624 1.623C33 19.654 33 20.352 33 21.75v15H15v-15c0-1.398 0-2.097-.228-2.648a3 3 0 0 0-1.624-1.624c-.551-.229-1.25-.229-2.648-.229v0Z"/>
  <path stroke="currentColor" stroke-linecap="square" stroke-width="3" d="M22.174 11.405A10.02 10.02 0 0 1 24 11.25c.66 0 1.302.055 1.826.155"/>
</svg>
