<svg width="48" height="48" viewBox="0 0 48 48" fill="none" xmlns="http://www.w3.org/2000/svg"><path d="M20 30v-6M28 30v-6" stroke="#EBEBEB" stroke-width="4" stroke-linecap="square"/><path d="M6 14h36v0c-1.864 0-2.796 0-3.53.305a4 4 0 0 0-2.166 2.164C36 17.204 36 18.136 36 20v20H12V20c0-1.864 0-2.796-.305-3.53a4 4 0 0 0-2.164-2.165C8.796 14 7.864 14 6 14v0Z" stroke="#EBEBEB" stroke-width="4" stroke-linecap="round"/><path d="M21.565 6.207A13.359 13.359 0 0 1 24 6c.88 0 1.736.073 2.435.207" stroke="#EBEBEB" stroke-width="4" stroke-linecap="square"/></svg>