<svg xmlns="http://www.w3.org/2000/svg" width="48" height="48" fill="none" viewBox="0 0 48 48">
  <path stroke="currentColor" stroke-linecap="square" stroke-width="4" d="M20 31v-6m8 6v-6"/>
  <path stroke="currentColor" stroke-linecap="round" stroke-width="4" d="M6 15h36v0c-1.864 0-2.796 0-3.53.304a4 4 0 0 0-2.166 2.165C36 18.204 36 19.136 36 20.999v20H12V21c0-1.863 0-2.795-.305-3.53a4 4 0 0 0-2.164-2.165C8.796 15 7.864 15 6 15v0Z"/>
  <path stroke="currentColor" stroke-linecap="square" stroke-width="4" d="M21.565 7.207A13.359 13.359 0 0 1 24 7c.88 0 1.736.073 2.435.207"/>
</svg>
